<svg width="24" height="24" viewBox="0 0 24 24" fill="none" xmlns="http://www.w3.org/2000/svg">
<g clip-path="url(#clip0_5303_21434)">
<path d="M13.2908 0C13.8114 1.36458 14.3038 2.72938 14.7976 4.09367C15.1797 5.14943 15.5627 6.20485 15.9467 7.25988C16.536 8.87877 17.1288 10.4963 17.7158 12.1161C18.2039 13.4629 18.6823 14.8134 19.1794 16.1568C19.2089 16.2363 19.3662 16.3115 19.4651 16.3129C20.299 16.3253 21.1331 16.32 22 16.32C22 17.0738 22 17.8091 21.9687 18.5722C16.1574 18.6 10.3774 18.6 4.5975 18.6001C4.49921 18.6001 4.39427 18.5795 4.30466 18.6081C4.22858 18.6324 4.17019 18.7139 4.08712 18.7795C4.10586 18.827 4.13519 18.8759 4.17798 18.9015C5.36482 19.6114 5.83208 20.8912 5.34665 22.2721C5.14472 22.8465 4.95113 23.424 4.75375 24C3.84682 24 2.93989 24 2.00528 24C2.11999 23.5687 2.25092 23.1331 2.40691 22.7069C2.88271 21.4071 3.36815 20.1109 3.85879 18.7892C3.2296 18.7892 2.62595 18.7892 2 18.7892C2 17.969 2 17.1658 2 16.3353C2.07129 16.3307 2.1555 16.3208 2.23973 16.3207C2.99703 16.3195 3.75438 16.3155 4.51161 16.3233C4.68961 16.3251 4.77431 16.2815 4.84292 16.0917C5.58325 14.043 6.33886 12 7.09006 9.95534C7.84132 7.91056 8.593 5.86595 9.34208 3.82035C9.40187 3.65708 9.44285 3.48671 9.5367 3.30434C9.72638 3.27269 9.8718 3.24395 10.0175 3.24226C10.5278 3.23634 11.0382 3.24343 11.5485 3.23663C11.6547 3.23521 11.8297 3.28469 11.7762 3.05724C11.5209 2.29102 11.2644 1.52527 11.0114 0.758296C10.9334 0.521996 10.8652 0.282368 10.7856 0.0221322C11.6067 1.78814e-09 12.4349 0 13.2908 0ZM11.9118 3.45758C11.8954 3.43397 11.879 3.41037 11.8626 3.38676C11.8368 3.44012 11.811 3.49347 11.7831 3.59733C11.7637 3.7222 11.7621 3.85332 11.7219 3.97085C11.5526 4.46623 11.3679 4.95617 11.1958 5.45062C10.4153 7.69333 9.63818 9.93723 8.85786 12.18C8.51697 13.1597 8.1692 14.137 7.8289 15.117C7.69219 15.5106 7.56716 15.9085 7.43368 16.314C10.4508 16.314 13.4322 16.314 16.4249 16.314C15.91 14.8313 15.4006 13.3566 14.8859 11.8838C14.0609 9.52309 13.2344 7.16285 12.4033 4.80434C12.2464 4.35921 12.0647 3.92312 11.9118 3.45758Z" fill="#11181C"/>
<path d="M18.8939 24C18.6421 23.4415 18.4353 22.8784 18.1974 22.3256C17.6908 21.1484 18.182 19.7982 19.4119 19.1846C19.5228 19.1293 19.6264 19.0625 19.7813 19.0002C19.8779 18.9997 19.9267 19.0002 19.9754 19.0007C20.1562 19.3887 20.3462 19.7736 20.516 20.1653C20.8843 21.0146 21.2533 21.8639 21.5998 22.7201C21.7692 23.1387 21.8888 23.5729 22 24C20.9543 24 19.9396 24 18.8939 24Z" fill="#11181C"/>
<path d="M20.1245 18.91C20.0755 19.0047 20.0316 19.0026 19.9656 18.9985C19.8349 18.9184 19.7262 18.7722 19.6175 18.7719C14.4209 18.7589 9.22428 18.7586 4 18.7391C4.03918 18.4926 4.09812 18.1607 4.1749 18.0619C4.26536 17.9454 4.37128 18.0291 4.47049 18.029C10.3046 18.0287 16.1386 18.0288 22 18.0287C21.9808 18.2729 21.9339 18.7306 21.888 18.729C21.3178 18.7087 20.7478 18.6195 20.1776 18.5629C20.1621 18.5614 20.1456 18.7261 20.1245 18.91Z" fill="#11181C"/>
</g>
<defs>
<clipPath id="clip0_5303_21434">
<rect width="24" height="24" fill="white"/>
</clipPath>
</defs>
</svg>
