<svg width="24" height="24" viewBox="0 0 24 24" fill="none" xmlns="http://www.w3.org/2000/svg">
<g clip-path="url(#clip0_5480_9749)">
<mask id="mask0_5480_9749" style="mask-type:luminance" maskUnits="userSpaceOnUse" x="0" y="0" width="24" height="24">
<path d="M24 12C24 5.37258 18.6274 0 12 0C5.37258 0 0 5.37258 0 12C0 18.6274 5.37258 24 12 24C18.6274 24 24 18.6274 24 12Z" fill="white"/>
</mask>
<g mask="url(#mask0_5480_9749)">
<path d="M24 12C24 5.37258 18.6274 0 12 0C5.37258 0 0 5.37258 0 12C0 18.6274 5.37258 24 12 24C18.6274 24 24 18.6274 24 12Z" fill="#11181C"/>
<path d="M20.1602 8.25426C20.11 8.54799 20.0512 8.6904 19.9824 8.85531L19.9823 8.85569C19.9079 9.03431 19.8236 9.23711 19.7472 9.63949C19.7169 9.80052 19.7017 9.91874 19.6885 10.0229L19.6876 10.0293L19.6868 10.0354C19.6656 10.2021 19.6514 10.3145 19.5836 10.5145C19.5287 10.6777 19.4367 10.9502 19.2153 11.2437C19.0364 11.4812 18.737 11.8786 18.3374 11.9262C18.3028 11.9285 18.2302 11.9322 18.2006 11.917C17.0672 11.3382 16.0934 10.9106 15.7563 10.8147C15.3643 10.7036 15.4145 9.84876 15.4589 9.09458C15.4788 8.75753 15.4975 8.43883 15.4818 8.16592C15.4267 7.21385 15.2581 6.17177 14.4289 5.66372C13.9339 5.36055 13.2954 5.27156 12.6853 5.27027C12.7983 5.21646 12.9245 5.14339 13.0618 5.06345L13.0661 5.061C13.4253 4.85302 13.8712 4.59473 14.3143 4.54933C14.4592 4.53498 14.6016 4.51829 14.7421 4.50264C15.6353 4.40149 16.407 4.31458 17.221 4.59331C17.59 4.71993 18.3469 5.14222 18.5423 5.53425C18.6799 5.81104 18.9121 6.02678 19.3753 6.45735C19.6164 6.68162 19.7752 6.81213 19.8915 6.90758L19.8968 6.91198C20.06 7.04623 20.0922 7.0743 20.1408 7.1735C20.2909 7.47939 20.2361 7.80429 20.1602 8.25426Z" fill="white"/>
<path d="M16.0371 12.1682C16.0908 12.1867 16.1108 12.2519 16.0797 12.2992C15.9586 12.4829 15.8199 12.7348 15.6537 13.0429C15.5757 13.1881 15.5019 13.3252 15.4399 13.4322C15.2203 13.8094 15.2025 14.1268 15.1885 14.3816C15.1734 14.648 15.1599 14.7704 15.0007 14.8765C14.8693 14.9646 14.7346 14.994 13.8015 15.1361C13.6386 15.1613 13.5663 15.1929 13.5028 15.2206C13.4855 15.2281 13.4683 15.2356 13.4486 15.243C13.3947 15.2631 13.3419 15.2172 13.3452 15.1599C13.3525 15.0254 13.3573 14.8574 13.3578 14.6461V14.6056C13.3627 14.4227 13.3551 14.2743 13.3485 14.1547C13.3362 13.9165 13.3347 13.8161 13.3982 13.7124C13.4762 13.587 13.537 13.5487 13.6369 13.4854C13.7765 13.3977 13.9679 13.277 14.2512 12.8877C14.4017 12.6815 14.4351 12.5698 14.4559 12.4732C14.465 12.4331 14.4682 12.4181 14.5841 12.3302C14.7066 12.2372 15.08 11.9544 15.5579 12.0347C15.6901 12.0571 15.8585 12.1065 16.0371 12.1682Z" fill="white"/>
<path d="M12.324 16.4706C12.3037 16.4971 12.2799 16.5094 12.2456 16.511C12.1481 16.5152 12.0795 16.491 12.0341 16.4364C11.9379 16.3192 11.9508 16.0838 11.9733 15.9462L12.3679 15.8411C12.3989 16.0499 12.4133 16.3543 12.324 16.4706Z" fill="white"/>
<path d="M12.356 15.0464C12.3494 15.104 12.3422 15.1688 12.3424 15.2366C12.3429 15.2618 12.3432 15.2873 12.344 15.312C12.3447 15.3765 12.3473 15.479 12.3384 15.5255C12.2151 15.5704 12.1099 15.5704 11.9715 15.5679C11.9694 15.528 11.972 15.4683 11.9735 15.4281C11.9743 15.3971 11.976 15.3662 11.9764 15.3367C11.9768 15.304 11.9764 15.2718 11.9764 15.2395C11.9759 15.1636 11.9748 15.0392 11.9935 15.0026C12.0306 14.9972 12.0686 14.989 12.1093 14.9797C12.191 14.9621 12.2974 14.9396 12.3652 14.9498C12.3641 14.9762 12.36 15.0154 12.356 15.0464Z" fill="white"/>
<path d="M11.6258 16.3492C11.6068 16.5515 11.5444 16.8016 11.3546 16.8396C11.2693 16.8572 11.228 16.8315 11.202 16.807C11.0738 16.6883 11.0534 16.3295 11.0712 16.0729C11.1566 16.0745 11.2685 16.0553 11.4009 16.0297C11.4818 16.0137 11.5622 15.9958 11.6262 15.9811C11.6336 16.076 11.6389 16.2116 11.6258 16.3492Z" fill="white"/>
<path d="M11.5363 15.6228L11.1082 15.773C11.1299 15.6068 11.1589 15.3729 11.1691 15.2176C11.1764 15.1082 11.2062 15.0747 11.2147 15.0674C11.2176 15.065 11.2233 15.0598 11.2392 15.0598C11.2416 15.0598 11.2441 15.0602 11.2468 15.0602L11.2559 15.0615L11.5263 15.0468C11.5378 15.1739 11.5378 15.4531 11.5363 15.6228Z" fill="white"/>
<path d="M10.8447 15.4898C10.8205 15.5542 10.7919 15.7367 10.774 15.8652L10.2378 15.8489C10.2681 15.6828 10.31 15.5138 10.356 15.3791C10.4026 15.2452 10.4528 15.1449 10.4989 15.1167C10.5527 15.0844 10.6712 15.0771 10.7438 15.1391C10.8617 15.2397 10.8943 15.3548 10.8447 15.4898Z" fill="white"/>
<path d="M10.6445 17.1311C10.6029 17.1879 10.5568 17.2168 10.4996 17.2229C10.4413 17.2294 10.3959 17.2164 10.3597 17.1825C10.1913 17.027 10.205 16.5177 10.2112 16.2729C10.4335 16.2222 10.6736 16.1791 10.7874 16.1725C10.8045 16.3775 10.8094 16.9067 10.6445 17.1311Z" fill="white"/>
<path d="M9.94429 15.8344C9.91817 15.9043 9.89281 15.9702 9.87367 16.0287C9.81133 16.0482 9.62068 16.0311 9.42603 15.9882L9.55989 15.1443C9.77977 15.0859 10.0348 15.0672 10.0965 15.1325C10.1777 15.2188 10.0145 15.6505 9.94429 15.8344Z" fill="white"/>
<path d="M9.70181 17.2596C9.59782 17.3878 9.44183 17.4477 9.22428 17.4454C9.07373 17.4429 9.01993 17.3858 8.99302 17.3429C8.87222 17.1516 8.99044 16.7006 9.10891 16.4126L9.83528 16.4562C9.84265 16.5068 9.84873 16.5683 9.85158 16.6353C9.8596 16.8403 9.83386 17.0956 9.70181 17.2596Z" fill="white"/>
<path d="M15.7046 11.1353C15.0506 10.9501 15.1069 9.99391 15.1614 9.06978C15.1806 8.74281 15.1989 8.43356 15.184 8.18083C15.1338 7.3158 14.9883 6.37369 14.2926 5.94726C13.5442 5.48966 12.32 5.59391 11.5647 5.69001C11.564 5.69013 11.5634 5.69052 11.5627 5.69065C11.5624 5.69065 11.5621 5.69065 11.5618 5.69078C11.2852 5.77459 11.0264 5.82891 10.8258 5.81831C10.3801 5.79528 10.0333 5.60762 9.72793 5.44297C9.48968 5.31389 9.28183 5.20239 9.08614 5.20239C9.0758 5.20239 9.06493 5.2024 9.0542 5.20278C8.46868 5.24081 8.19952 5.38386 7.95507 5.60205C7.89363 5.65637 7.81862 5.81404 7.57313 6.5214C7.44922 6.87889 7.42633 7.07445 7.40331 7.26458C7.38261 7.43829 7.36153 7.6169 7.26918 7.88334C7.2049 8.06726 7.15743 8.22584 7.11152 8.37872C6.99045 8.78497 6.89474 9.10496 6.60722 9.48548C6.57346 9.53049 6.53169 9.59671 6.48331 9.67211C6.41813 9.77481 6.33742 9.90246 6.23097 10.0503C6.15583 10.1544 5.98329 10.5441 5.99273 10.6629C6.00683 10.8519 6.06826 10.9693 6.13862 11.1062C6.2086 11.2413 6.28827 11.3941 6.30276 11.6052L6.30522 11.6395C6.33082 11.9744 6.2831 12.1424 5.6461 12.7113C5.23881 13.0758 4.94947 13.4268 4.7543 13.6845C4.7371 13.7072 4.75948 13.741 4.78793 13.7387C4.79453 13.7378 4.80113 13.7374 4.8072 13.7374C4.81949 13.7364 4.83165 13.736 4.84381 13.736C4.85596 13.736 4.86825 13.7364 4.88028 13.7369C4.89256 13.7374 4.90434 13.7383 4.91637 13.7401C5.07041 13.7577 5.22057 13.8229 5.32896 13.9351C5.34784 13.9547 5.3772 13.96 5.40229 13.9499C5.50602 13.9067 5.61997 13.9138 5.72888 13.924C5.86339 13.9364 5.99919 13.9767 6.08844 14.0635C6.11534 14.0897 6.15376 14.103 6.19049 14.0946C6.2959 14.0707 6.40649 14.0729 6.50905 14.1101C6.59002 14.1403 6.65805 14.1879 6.71212 14.2478C6.74988 14.2897 6.81688 14.2977 6.86422 14.2672C6.89371 14.2481 6.92617 14.2321 6.96226 14.22C7.10052 14.173 7.25353 14.1998 7.38779 14.248C7.45388 14.2718 7.52321 14.293 7.58283 14.3329C7.69238 14.4058 7.75925 14.5124 7.80193 14.6315C7.82612 14.6986 7.91653 14.7219 7.97137 14.6763C8.06992 14.5943 8.14791 14.5804 8.22655 14.6153C8.26665 14.6334 8.29459 14.6583 8.31334 14.6895C8.34607 14.7436 8.41267 14.7883 8.47359 14.7712C8.68765 14.7116 8.95564 14.7426 9.14978 14.8466C9.21833 14.8826 9.28572 14.9375 9.33486 15.0206L9.33499 15.0207C9.33512 15.0211 9.33551 15.021 9.33551 15.0206L9.3412 14.9837C9.34379 14.967 9.35556 14.9532 9.37173 14.9481L9.41674 14.9343C9.52279 14.9005 10.0632 14.7448 10.2734 14.9661C10.2824 14.9752 10.2982 14.9761 10.307 14.9666C10.3356 14.9352 10.3588 14.918 10.3737 14.9095C10.5106 14.8264 10.7453 14.8213 10.9014 14.955C10.9329 14.9814 10.9838 14.9718 11.0075 14.9382C11.0221 14.9176 11.0387 14.8994 11.0573 14.8837C11.1121 14.8364 11.1816 14.8138 11.2585 14.8185L11.5554 14.8025C11.63 14.7984 11.862 14.7826 11.9351 14.7672C11.9407 14.766 11.9464 14.765 11.9522 14.7641C11.9831 14.7593 12.0198 14.7514 12.0582 14.7434C12.2022 14.712 12.3655 14.6766 12.4997 14.7386C12.6285 14.7982 12.6122 14.945 12.5967 15.0745C12.5906 15.127 12.584 15.1818 12.5845 15.234C12.5854 15.2583 12.5859 15.2827 12.5863 15.3077C12.5883 15.4193 12.5906 15.5224 12.5685 15.6016V15.6021V15.6025L12.5821 15.6638C12.5827 15.6661 12.5834 15.6691 12.5841 15.6727C12.5963 15.7288 12.6566 15.7601 12.7056 15.7302C12.8091 15.6671 12.9178 15.5851 12.9507 15.5379C12.9531 15.5343 12.9551 15.5305 12.9565 15.5264C12.961 15.5145 12.9694 15.4888 12.9786 15.435C12.997 15.3246 13.0176 15.1005 13.0194 14.6453C13.0194 14.6213 13.0194 14.6041 13.0199 14.5961C13.0236 14.4272 13.017 14.2916 13.0104 14.172C12.9983 13.9252 12.9883 13.731 13.1108 13.5334C13.2301 13.3411 13.3458 13.2684 13.457 13.1979C13.5864 13.1168 13.7324 13.0247 13.9783 12.6875C14.0988 12.5215 14.1137 12.4545 14.1255 12.4009C14.1522 12.2756 14.1936 12.2002 14.3798 12.0595C14.5313 11.945 14.9924 11.5955 15.6146 11.7002C15.8185 11.7348 16.1493 11.8436 16.4756 11.9722C16.4756 11.9722 16.4758 11.9723 16.4761 11.9723H16.4765C16.4886 11.9759 16.5012 11.9802 16.5127 11.9863C16.5168 11.9885 16.5211 11.9905 16.5255 11.9923C16.817 12.1087 17.1007 12.2387 17.2824 12.3426C17.3247 12.3668 17.3789 12.3528 17.4086 12.3141C17.4681 12.2369 17.5331 12.1922 17.603 12.1501C17.6293 12.1342 17.6495 12.1221 17.6687 12.1056C17.6753 12.1001 17.6818 12.0946 17.6881 12.0895C17.7425 12.0455 17.7423 11.9515 17.6801 11.9194C16.8033 11.4661 15.9775 11.2129 15.7046 11.1353ZM9.47326 11.3366C9.27097 12.2218 7.89971 13.1948 7.27642 13.1948H7.26414C7.25431 13.1943 7.24344 13.1934 7.2318 13.1914C7.22003 13.1896 7.20736 13.1868 7.1939 13.183C7.18731 13.1811 7.1802 13.1788 7.17321 13.177C7.06004 13.1413 6.90341 13.0543 6.7848 12.9377C6.70319 12.8576 6.63891 12.7631 6.61873 12.6613C6.61498 12.6434 6.61123 12.6257 6.60735 12.6079C6.57372 12.4573 6.53182 12.2692 6.66465 11.9614C6.68302 11.9202 6.69931 11.8816 6.71432 11.8464C6.7191 11.8348 6.72428 11.823 6.72893 11.8118C6.74303 11.7785 6.75557 11.748 6.76696 11.7203C6.78571 11.6735 6.8011 11.6337 6.81378 11.5998C6.81895 11.5866 6.82374 11.5739 6.82788 11.5623C6.8659 11.4558 6.87056 11.416 6.87573 11.3747C6.88052 11.3424 6.88517 11.3028 6.89837 11.2466C6.9373 11.0805 6.95748 10.9398 6.97532 10.8144C7.00727 10.5891 7.03495 10.3946 7.1564 10.2159C7.17709 10.1855 7.19998 10.1577 7.22585 10.1333C7.23478 10.1249 7.24331 10.1169 7.2525 10.1089C7.26194 10.1009 7.27138 10.0939 7.28056 10.0868C7.31005 10.0661 7.34161 10.0478 7.37576 10.0323C7.38753 10.0272 7.3993 10.022 7.41094 10.0178C7.43499 10.0089 7.46021 10.0013 7.4866 9.99468C7.59822 9.96765 7.73002 9.96338 7.88147 9.98253C8.04716 9.99572 8.20056 10.027 8.33649 10.065C8.45005 10.0963 8.55146 10.1331 8.63721 10.1672C8.64613 10.1706 8.65467 10.1738 8.66307 10.1776C8.6795 10.1842 8.69541 10.1908 8.71093 10.1979C8.73447 10.2077 8.75594 10.2171 8.77612 10.2259C8.80289 10.2381 8.82734 10.249 8.84894 10.2587L8.86911 10.2681C8.96483 10.3117 9.04708 10.3596 9.11731 10.4097C9.15198 10.4352 9.18444 10.461 9.21341 10.4871C9.22337 10.4956 9.23282 10.5045 9.24148 10.5139C9.25092 10.5229 9.25985 10.5318 9.26826 10.5408C9.53172 10.8182 9.51866 11.1391 9.47326 11.3366ZM10.1087 7.98139L10.0821 8.1419C10.0206 8.50353 9.87938 8.99941 9.35866 9.12707C8.85773 9.24956 8.739 9.27569 8.38241 9.29172C8.37452 9.29263 8.36598 9.29263 8.35757 9.29263C8.09721 9.29263 7.59615 9.1285 7.50743 8.7203C7.45064 8.45761 7.56654 8.26722 7.75744 7.95151C7.78926 7.89938 7.82366 7.84351 7.86013 7.78117C8.11247 7.35603 8.21194 7.04833 8.29187 6.80155C8.3696 6.56046 8.4344 6.36115 8.60099 6.19598C8.63941 6.15757 8.683 6.12135 8.7337 6.08669C8.76603 6.06457 8.79979 6.04491 8.83548 6.02655C8.88282 6.00301 8.93249 5.98257 8.98461 5.96602C9.1005 5.92903 9.2257 5.91027 9.35103 5.91027C9.59393 5.91027 9.83657 5.98011 10.0096 6.11902C10.0875 6.18136 10.1982 6.30605 10.2625 6.67389C10.2956 6.86337 10.2392 7.21156 10.1087 7.98139ZM13.8237 9.01067C13.6445 9.31837 13.5464 9.4878 13.3916 9.61482C13.0844 9.86716 12.726 9.93105 12.4309 9.93105C12.2189 9.93105 12.0388 9.89833 11.9328 9.87893C11.6278 9.82318 11.0603 9.71997 10.8712 9.27194C10.8342 9.18334 10.8338 9.12708 10.8338 9.05568C10.8338 8.98519 10.8338 8.86671 10.8009 8.58462L10.7991 8.56587C10.784 8.43821 10.7672 8.29374 10.8038 8.1084L10.808 8.08628C10.915 7.54228 10.944 7.45911 10.968 7.41216C11.0234 7.3052 11.1547 7.26303 11.2616 7.318C11.3652 7.37193 11.4084 7.49752 11.3597 7.60307C11.3488 7.63398 11.3184 7.74987 11.2358 8.17074L11.2315 8.19285C11.208 8.31159 11.2183 8.40161 11.232 8.51569L11.2338 8.53496C11.2694 8.84124 11.2694 8.98001 11.2694 9.05516C11.2694 9.06848 11.2694 9.08297 11.2699 9.09164C11.27 9.095 11.2717 9.09939 11.2728 9.10263C11.3082 9.1867 11.3881 9.25046 11.4855 9.29948C11.5461 9.32988 11.6093 9.27206 11.5959 9.20571C11.499 8.72625 11.5043 8.16698 11.6874 7.82139C11.7474 7.70667 11.8584 7.51887 11.9638 7.34361C11.9642 7.3431 11.9645 7.34271 11.9647 7.34219C11.965 7.34167 11.9654 7.34128 11.9656 7.34077C11.9764 7.32305 11.987 7.30558 11.9976 7.28799C12.0065 7.27286 12.0154 7.2585 12.0237 7.24441C12.0701 7.16732 12.1137 7.09657 12.1486 7.04031C12.1533 7.03229 12.158 7.02427 12.1627 7.01677C12.166 7.01108 12.1693 7.00591 12.1726 7.00125C12.1801 6.98896 12.1867 6.97771 12.1929 6.96801C12.1956 6.96335 12.1984 6.95908 12.2008 6.95482C12.2022 6.95301 12.2032 6.95106 12.2041 6.94964C12.2074 6.94395 12.2107 6.93878 12.2136 6.93464C12.2191 6.92571 12.2234 6.91912 12.2257 6.91485C12.226 6.91446 12.2261 6.9142 12.2263 6.91381C12.2268 6.91291 12.2278 6.91149 12.2283 6.91058C12.2287 6.90993 12.2288 6.90981 12.2292 6.90916C12.2656 6.85626 12.3015 6.80595 12.3364 6.75861C12.3839 6.69433 12.3289 6.61013 12.255 6.64039C12.077 6.71295 11.9554 6.80569 11.9307 6.82522C11.8364 6.90036 11.6993 6.88485 11.6248 6.79056C11.5502 6.6964 11.5657 6.55891 11.66 6.48376C11.7721 6.39568 12.3665 5.96213 13.0782 6.16571C13.591 6.31161 13.8598 6.70338 13.9611 6.8507C14.0427 6.97034 14.2928 7.33352 14.2848 7.84053C14.2789 8.22726 14.1176 8.50547 13.8237 9.01067Z" fill="white"/>
<path d="M9.20129 6.35889C9.16481 6.4471 9.12122 6.55639 9.0744 6.67512C8.96498 6.9501 8.84094 7.26155 8.78132 7.37446C8.67849 7.56963 8.59843 7.69276 8.53454 7.79197C8.46133 7.90592 8.403 7.99607 8.35903 8.12179C8.28181 8.34166 8.26797 8.58741 8.31815 8.85462C8.18183 8.83962 7.95872 8.74572 7.9335 8.62737C7.91462 8.53929 7.96932 8.44294 8.13061 8.17766C8.16295 8.12476 8.19761 8.06721 8.23551 8.00318C8.51268 7.5364 8.62482 7.18912 8.70734 6.93522C8.79632 6.65895 8.83836 6.54307 8.97999 6.44632C9.04336 6.40221 9.12045 6.37415 9.20129 6.35889Z" fill="white"/>
<path d="M8.93041 16.1478C8.77934 16.4564 8.59129 16.7412 8.4741 16.8823C8.3771 16.62 8.20844 16.019 8.25293 15.5354C8.25423 15.5214 8.25578 15.5076 8.25785 15.4941C8.2757 15.3447 8.3154 15.2078 8.38602 15.098C8.43259 15.0258 8.56154 14.9817 8.70795 14.9817C8.81608 14.9817 8.93365 15.0054 9.03492 15.0597H9.0357C9.08989 15.0887 9.16374 15.1474 9.1715 15.318C9.18263 15.5485 9.07281 15.8582 8.93041 16.1478Z" fill="white"/>
<path d="M17.2076 12.6896C17.2192 12.699 17.2266 12.7133 17.2199 12.7267C17.1747 12.8174 17.1207 12.881 17.0568 12.9559C16.9797 13.0477 16.8915 13.1518 16.8095 13.3142C16.6927 13.5443 16.6553 13.7542 16.6356 14.2916C16.6125 14.9229 16.6369 15.2775 16.6553 15.5361C16.6728 15.7858 16.6835 15.9364 16.639 16.1799C16.5492 16.6713 16.3391 16.9966 16.0729 17.4083C15.7398 17.9232 15.3954 18.4554 14.825 18.6251C14.772 18.6414 14.7702 18.6414 14.6214 18.6419C14.492 18.6419 14.2766 18.6424 13.8689 18.6575C13.1238 18.6845 12.75 18.6979 12.4302 18.7594C12.0947 18.8243 11.9197 18.8957 11.75 18.9642C11.5968 19.0262 11.4521 19.085 11.1747 19.1421C11.0092 19.1755 10.7621 19.2119 9.91982 19.2132C9.04445 19.2148 8.51597 19.2152 7.81818 19.1356C6.86081 19.0263 6.38018 18.9716 6.06097 18.8011C5.30809 18.3995 4.99017 17.6773 4.46428 16.4808C4.46337 16.4787 4.46246 16.4767 4.46156 16.4745C4.45509 16.4596 4.4732 16.4452 4.48717 16.4535C4.51213 16.469 4.53813 16.4818 4.56555 16.491C4.58857 16.4992 4.6125 16.5054 4.63668 16.5094C4.6848 16.5175 4.73498 16.518 4.78594 16.5094C4.79487 16.5078 4.80301 16.5058 4.8109 16.5025C4.81246 16.5019 4.81388 16.5011 4.81543 16.5005C4.82436 16.4961 4.83535 16.4997 4.8391 16.5089C4.8726 16.6011 4.92576 16.6832 5.015 16.7305C5.10438 16.7771 5.20604 16.7807 5.3055 16.78C5.40794 16.7784 5.51115 16.7726 5.6132 16.7603C5.66726 16.7546 5.72262 16.7811 5.74331 16.8314C5.83682 17.058 5.95258 17.222 6.12655 17.2462C6.13599 17.2475 6.14827 17.2491 6.1638 17.2491C6.20299 17.2491 6.26352 17.2377 6.34888 17.179C6.41497 17.1337 6.51728 17.1603 6.56475 17.2249C6.60821 17.2837 6.65994 17.326 6.70443 17.3617C6.88357 17.5456 7.31893 17.6339 7.68457 17.6339C7.88401 17.6339 8.06289 17.6076 8.16817 17.5564C8.31872 17.4833 8.31872 17.3712 8.31135 17.3258C8.29855 17.2444 8.2869 17.1637 8.27707 17.0838C8.27591 17.0742 8.2904 17.0705 8.29428 17.0794C8.31614 17.1271 8.34291 17.1866 8.41418 17.1981C8.42194 17.1989 8.4306 17.2006 8.44043 17.2006C8.54235 17.2006 8.70092 17.2338 8.72821 17.332C8.74218 17.382 8.76184 17.4288 8.78861 17.4711C8.84979 17.568 8.97435 17.6834 9.22125 17.6875H9.2404C9.52391 17.6875 9.74275 17.5948 9.89033 17.4115C9.8999 17.3997 9.90908 17.3876 9.91788 17.3753C9.97091 17.3005 10.1284 17.2973 10.1958 17.3594C10.2718 17.4296 10.3673 17.4658 10.4738 17.4658C10.4909 17.4658 10.5082 17.4651 10.526 17.463C10.6529 17.4495 10.7627 17.3823 10.8447 17.2676C10.8984 17.1927 10.9376 17.1006 10.9662 17.001C10.9746 16.9716 11.0149 16.963 11.0374 16.9835C11.0916 17.0337 11.1785 17.0867 11.3039 17.0867C11.3344 17.0867 11.3675 17.0835 11.4027 17.0761C11.649 17.0266 11.7716 16.8228 11.8296 16.5927C11.8316 16.5849 11.8427 16.5828 11.8479 16.5889C11.9102 16.6648 12.0253 16.7525 12.2257 16.7525C12.2359 16.7525 12.2465 16.7525 12.257 16.752C12.363 16.7471 12.4524 16.7005 12.517 16.6172C12.5955 16.5149 12.6264 16.3632 12.6335 16.2106C12.6356 16.1661 12.6643 16.127 12.7054 16.1098C12.9167 16.0215 13.1727 15.8312 13.2477 15.7016C13.2503 15.6971 13.2529 15.6923 13.2555 15.6874C13.2727 15.6541 13.3022 15.6277 13.339 15.6207C13.5028 15.5896 13.5742 15.5587 13.6391 15.5305C13.692 15.5073 13.7346 15.4889 13.8536 15.4704C14.8003 15.3259 14.9851 15.2941 15.19 15.1575C15.4964 14.9532 15.5119 14.6718 15.5271 14.3997C15.54 14.1696 15.5548 13.9085 15.7335 13.6021C15.7984 13.4902 15.8733 13.3506 15.953 13.2029C16.0924 12.9444 16.2872 12.5824 16.4266 12.3926C16.4529 12.3568 16.5004 12.3457 16.5412 12.363C16.8685 12.502 17.1472 12.6412 17.2076 12.6896Z" fill="white"/>
<path d="M8.01311 15.5068C7.9756 15.8341 7.9527 16.2714 8.00573 16.841C8.02074 17.0018 8.04169 17.1686 8.06769 17.3377C8.02281 17.3621 7.88881 17.3964 7.65057 17.3927C7.3082 17.3858 6.9749 17.2997 6.87479 17.1914L6.85926 17.1774C6.77597 17.1106 6.72139 17.0665 6.71363 16.947C6.71104 16.9066 6.72837 16.8666 6.76537 16.8101C6.7858 16.7783 6.8127 16.7416 6.84607 16.6963C6.90363 16.6191 6.97503 16.5229 7.0481 16.3987C7.26242 16.0367 7.34364 15.9249 7.44685 15.7837C7.455 15.7723 7.46367 15.7608 7.47259 15.749C7.53338 15.6657 7.60478 15.5661 7.71213 15.4025C7.79206 15.2811 7.85855 15.1859 7.91339 15.1111C8.00483 14.9868 8.06471 14.9193 8.10312 14.8826C8.09743 14.939 8.08476 15.0181 8.07247 15.0912C8.05436 15.2036 8.03147 15.3411 8.01311 15.5068Z" fill="white"/>
<path d="M7.85632 10.4177C7.85425 10.4205 7.85179 10.4234 7.84972 10.4263C7.80523 10.488 7.75427 10.5577 7.69348 10.6935C7.53025 11.0563 7.52715 11.2617 7.52456 11.4269C7.52301 11.5134 7.5221 11.5824 7.49843 11.6628C7.48214 11.7158 7.45562 11.7766 7.42497 11.8467C7.32874 12.0671 7.20302 12.3561 7.25941 12.7449C7.18142 12.7074 7.06217 12.6216 7.04561 12.576C7.04148 12.5547 7.03695 12.5339 7.03216 12.5131C7.00513 12.3918 6.98728 12.3127 7.06437 12.1352C7.26718 11.6675 7.29214 11.5566 7.30805 11.4292C7.31128 11.4014 7.31464 11.3798 7.32279 11.3446C7.3656 11.1602 7.38798 11.0023 7.40634 10.8754C7.43363 10.6828 7.452 10.5554 7.51693 10.4596C7.5406 10.4241 7.60759 10.4058 7.70344 10.4058C7.74133 10.4058 7.78415 10.4086 7.83084 10.4152L7.8417 10.416C7.84649 10.4165 7.85153 10.4169 7.85632 10.4177Z" fill="white"/>
<path d="M7.58867 15.0311C7.57768 14.919 7.55802 14.8066 7.51728 14.7009C7.51443 14.6956 7.50228 14.6686 7.49969 14.6634C7.49232 14.6499 7.48391 14.6373 7.47602 14.6239C7.4755 14.6234 7.47524 14.6234 7.47524 14.623C7.47472 14.6223 7.47447 14.6223 7.47447 14.6219C7.46994 14.617 7.4658 14.6122 7.4614 14.6075C7.45481 14.6009 7.44769 14.5946 7.44058 14.5888C7.43929 14.5872 7.43812 14.5859 7.43696 14.5854C7.43372 14.5827 7.42881 14.5788 7.42351 14.5757C7.41484 14.5712 7.40669 14.5663 7.39828 14.562C7.3957 14.5603 7.38962 14.5578 7.38393 14.5558C7.38393 14.5558 7.38354 14.5558 7.38354 14.5554C7.38225 14.5549 7.38095 14.5546 7.37992 14.5541C7.37862 14.5533 7.37785 14.5528 7.37707 14.5525C7.37578 14.552 7.37501 14.5518 7.37423 14.5518C7.37345 14.5518 7.37345 14.5513 7.37345 14.5513C7.37086 14.55 7.36931 14.5497 7.36815 14.5492C7.30283 14.5253 7.23661 14.499 7.16729 14.4888C7.1669 14.4888 7.16573 14.4884 7.16483 14.4884H7.16327C7.15551 14.4884 7.13961 14.4868 7.13883 14.4868C7.12913 14.4863 7.11969 14.4863 7.11025 14.4868C7.10572 14.4868 7.10132 14.4868 7.09718 14.4872H7.09356C7.09201 14.4872 7.09007 14.4877 7.088 14.4877C7.08722 14.4885 7.08593 14.4885 7.08541 14.4885C7.08503 14.4885 7.08464 14.4885 7.08464 14.4885C7.06912 14.493 7.05282 14.4972 7.0373 14.502C7.0307 14.5053 7.02346 14.5086 7.01686 14.5127C7.0113 14.5159 7.00548 14.5201 6.99979 14.5229C6.9994 14.5233 6.99863 14.5241 6.99772 14.5241L6.99656 14.5254C6.98918 14.5328 6.98142 14.5396 6.97405 14.547C6.97159 14.5496 6.96474 14.558 6.95982 14.5642C6.95853 14.565 6.95776 14.5657 6.95776 14.5665C6.95737 14.5669 6.95737 14.5669 6.95698 14.5673C6.95659 14.5677 6.95659 14.5681 6.95568 14.5685C6.9553 14.569 6.9553 14.5694 6.95491 14.5694C6.95297 14.5728 6.9509 14.5758 6.95012 14.5775C6.92387 14.6182 6.89735 14.6587 6.87006 14.699C6.8072 14.7953 6.74279 14.8912 6.67747 14.9863C6.61785 15.0725 6.55835 15.1586 6.49911 15.2446C6.466 15.2929 6.43341 15.3405 6.40082 15.3887C6.39513 15.3969 6.38982 15.405 6.38452 15.4132C6.42319 15.4205 6.462 15.4282 6.50119 15.4355C6.58888 15.4516 6.67618 15.467 6.76517 15.4791C6.94831 15.5041 7.13456 15.5156 7.32017 15.509C7.32909 15.5085 7.33801 15.509 7.34629 15.5106C7.39091 15.4469 7.44342 15.371 7.51042 15.2693C7.54754 15.2126 7.58298 15.1601 7.61635 15.1114C7.60135 15.0881 7.59191 15.0603 7.58867 15.0311Z" fill="white"/>
<path d="M6.93634 15.7881C6.92056 15.9293 6.76251 16.2948 6.51599 16.6429C6.30956 16.9339 6.18423 17.0045 6.15927 17.007C6.05968 16.9932 5.96138 16.7466 5.88339 16.5022C5.85209 16.4031 5.82376 16.3043 5.80009 16.2215C5.74667 16.0355 5.73698 15.786 5.74629 15.6294C5.95453 15.7448 6.32004 15.7758 6.83352 15.7779H6.83507C6.86896 15.7815 6.90245 15.7852 6.93634 15.7881Z" fill="white"/>
<path d="M6.57132 14.6252C6.57132 14.6258 6.57132 14.6258 6.57132 14.626C6.56886 14.6294 6.56679 14.633 6.56446 14.6362C6.47625 14.766 6.3874 14.895 6.29841 15.0243C6.25237 15.0909 6.20671 15.1573 6.16131 15.2243C6.13648 15.2607 6.10298 15.3007 6.07401 15.3439C6.00093 15.3266 5.92798 15.31 5.85568 15.2895C5.79657 15.2725 5.73824 15.2541 5.68094 15.2312C5.66943 15.2271 5.65844 15.2225 5.64783 15.2174C5.63839 15.1982 5.62494 15.181 5.60864 15.168C5.60903 15.1676 5.60903 15.1664 5.60942 15.1659C5.63024 15.1235 5.65145 15.0806 5.67228 15.0382C5.71186 14.9604 5.75156 14.8829 5.79554 14.8077C5.87405 14.6722 5.96859 14.5343 6.1013 14.4465C6.10789 14.4416 6.11514 14.4371 6.12212 14.4327C6.1736 14.4003 6.22507 14.3776 6.28819 14.3698C6.29556 14.369 6.34006 14.3693 6.36088 14.3711C6.3645 14.3711 6.36748 14.3715 6.36955 14.3715H6.36993C6.37149 14.372 6.37446 14.3728 6.37886 14.3743C6.39438 14.3792 6.41003 14.3825 6.42555 14.3878C6.43086 14.3904 6.43564 14.3927 6.44107 14.3955C6.45452 14.4037 6.46836 14.4111 6.48104 14.4213C6.4606 14.4058 6.50923 14.4559 6.50923 14.4523C6.54842 14.5065 6.56032 14.5519 6.57132 14.6252Z" fill="white"/>
<path d="M5.87283 14.2574C5.7096 14.3916 5.59087 14.5704 5.49179 14.7564C5.43618 14.8596 5.386 14.9649 5.33374 15.0698C5.32844 15.0805 5.32314 15.0907 5.31706 15.1012C5.26765 15.0905 5.21824 15.0762 5.17 15.0608C5.11865 15.0445 5.06756 15.0258 5.01867 15.003C4.9963 14.9923 4.97379 14.9813 4.95142 14.9695C5.00031 14.8769 5.05864 14.7879 5.11425 14.7015C5.19263 14.5794 5.27748 14.4595 5.3697 14.3469C5.40436 14.3041 5.44109 14.2571 5.48973 14.2289C5.53939 14.1996 5.59954 14.2065 5.65658 14.2098C5.71698 14.2135 5.78191 14.2151 5.83894 14.238C5.85071 14.243 5.86352 14.2509 5.87283 14.2574Z" fill="white"/>
<path d="M5.6136 16.4478C5.60545 16.4547 5.59859 16.462 5.59251 16.4707C5.58682 16.4723 5.581 16.4735 5.57738 16.4744C5.53819 16.4785 5.49823 16.4813 5.45865 16.4839C5.38272 16.4887 5.30564 16.492 5.22894 16.4892C5.18613 16.4876 5.14733 16.481 5.12974 16.4538C5.10154 16.4109 5.093 16.3362 5.08292 16.2794C5.03273 16.0007 5.02614 15.7103 5.0617 15.4282C5.20734 15.4805 5.35724 15.521 5.5109 15.5462C5.47779 15.8005 5.53418 16.1737 5.56716 16.2881C5.58255 16.3412 5.59808 16.395 5.6136 16.4478Z" fill="white"/>
<path d="M5.14513 14.1645C5.01618 14.3228 4.89874 14.4913 4.79333 14.666C4.75077 14.737 4.70266 14.8104 4.66722 14.8863C4.61613 14.8721 4.57009 14.8517 4.5212 14.8214C4.48369 14.7981 4.44722 14.7724 4.41178 14.7455C4.40285 14.7381 4.37841 14.719 4.36315 14.7067C4.35965 14.704 4.35629 14.7011 4.35254 14.6991C4.36431 14.6657 4.38591 14.6284 4.39781 14.6035C4.42484 14.5444 4.45498 14.4863 4.48654 14.4298C4.54642 14.3237 4.61342 14.22 4.68934 14.1245C4.71754 14.0894 4.74431 14.0441 4.78816 14.031C4.82812 14.0196 4.88076 14.0249 4.91297 14.0305C5.00842 14.049 5.08318 14.0923 5.14513 14.1645Z" fill="white"/>
<path d="M4.15137 14.8518C4.15318 14.845 4.16197 14.8441 4.16598 14.8498C4.19987 14.8981 4.24708 14.94 4.29778 14.9794C4.32041 14.9966 4.34279 15.0137 4.36568 15.0299C4.36852 15.0319 4.36982 15.0354 4.36904 15.0389C4.31563 15.2602 4.27915 15.4952 4.2798 15.7267C4.2798 15.737 4.26441 15.739 4.26208 15.7291C4.19676 15.4595 4.10804 15.0102 4.15137 14.8518Z" fill="white"/>
<path d="M4.7828 15.3329C4.75668 15.5255 4.74413 15.7186 4.75254 15.9127C4.75667 16.0192 4.76806 16.1249 4.78241 16.2301C4.78241 16.2309 4.78241 16.2318 4.7828 16.2322V16.2327C4.75991 16.2274 4.73598 16.2266 4.71154 16.2301C4.71632 16.2285 4.70377 16.2293 4.69847 16.2293H4.69692C4.6933 16.2289 4.68799 16.2286 4.68618 16.2282C4.65928 16.2216 4.65695 16.2187 4.63561 16.2053C4.60781 16.1873 4.57845 16.1546 4.55892 16.1212C4.50705 16.0314 4.49567 15.9224 4.49153 15.8207C4.4839 15.6213 4.50097 15.4221 4.53822 15.2267C4.57004 15.2396 4.59772 15.2515 4.64389 15.2714C4.68955 15.2914 4.73689 15.311 4.78306 15.3324V15.3329H4.7828Z" fill="white"/>
<g opacity="0.8" filter="url(#filter0_i_5480_9749)">
<path d="M9.8754 25.4109C8.99654 25.4109 8.16295 25.3554 7.46348 25.3009L7.27064 25.2859L7.07805 25.2592C6.99385 25.2473 6.87938 25.235 6.76893 25.2229C6.09597 25.1497 4.84448 25.0134 3.46301 24.3646L3.24843 24.2635L3.04834 24.1515C0.393259 22.6632 -0.600456 20.4234 -1.13553 19.2193C-1.16955 19.1428 -1.21094 19.0497 -1.24974 18.9639C-1.51993 18.4111 -1.69066 17.9128 -1.83552 17.4566L-1.86773 17.3547L-1.8945 17.2557C-2.27993 15.886 -2.37732 14.7032 -2.20077 13.5336C-2.02384 12.3592 -1.58874 11.2907 -0.833008 10.1723L-0.44111 9.53236C-0.361566 9.40315 -0.305432 9.26088 -0.275166 9.11214C0.0236082 7.63133 0.701605 6.58238 1.03478 6.08145C1.12649 5.47498 1.27768 4.87911 1.48618 4.30239L1.51722 4.21495L1.55046 4.12972C1.55589 4.11471 1.56288 4.09351 1.57568 4.05483C1.72533 3.60408 2.07623 2.54919 2.97462 1.44152L3.31207 1.03281L3.65585 0.722265C4.53898 -0.0802868 5.59116 -0.674214 6.73452 -1.01567C7.37294 -1.20606 8.03102 -1.32246 8.69596 -1.36256L8.76024 -1.36734L8.85711 -1.37187C8.9721 -1.3773 9.08669 -1.37989 9.19844 -1.37989C9.61336 -1.38067 10.0276 -1.34574 10.4365 -1.27564C10.6921 -1.23257 10.9545 -1.26258 11.1936 -1.36217C11.9025 -1.65797 12.6478 -1.85806 13.4095 -1.95713C13.4731 -1.96619 13.5286 -1.97317 13.5723 -1.97886C13.6925 -1.99386 13.8834 -2.01637 14.1141 -2.03836C14.5164 -2.07677 15.1332 -2.12256 15.8019 -2.12256C17.1077 -2.12256 18.2318 -1.95338 19.238 -1.60546L19.3237 -1.57571L19.4073 -1.54428C21.628 -0.705125 22.7584 0.46721 23.5714 1.50141L23.61 1.55069L23.7219 1.65015C24.4562 2.22481 25.0808 2.92725 25.5655 3.72398L25.717 3.97335L25.845 4.23487C26.9312 6.45201 26.586 8.4992 26.4558 9.26838L26.4489 9.30951C26.3553 9.87692 26.2065 10.4339 26.0044 10.9723C25.9301 11.4915 25.8078 12.0026 25.6392 12.4992C25.3509 13.3819 24.9255 14.2137 24.3786 14.9642C24.0638 15.4096 23.7083 15.8247 23.3166 16.2043C23.1781 16.3382 23.0884 16.5145 23.0616 16.7051C23.0446 16.8226 23.0254 16.9387 23.0034 17.0537C22.6849 18.7616 21.938 19.9503 21.6331 20.4237L20.7113 21.7476C19.6012 23.1306 18.284 24.0428 16.6902 24.533L16.304 24.6541L15.8869 24.7267C15.4097 24.8109 14.9261 24.8528 14.4416 24.8517C14.3747 24.8517 14.3075 24.8517 14.2329 24.8498H14.2114L14.1291 24.855L14.0409 24.8582H14.0385C13.8538 24.8644 13.6706 24.8945 13.4937 24.948C12.4641 25.2629 11.2996 25.4109 9.8754 25.4109Z" stroke="white" stroke-width="0.136505" stroke-miterlimit="10"/>
<path d="M9.87552 24.5006C9.03339 24.5006 8.22566 24.4469 7.54676 24.3934L7.38586 24.381L7.22496 24.3587C7.1246 24.3448 7.00211 24.3319 6.88376 24.3185C6.23021 24.2475 5.13755 24.1286 3.91775 23.5566L3.73861 23.4724L3.57202 23.3787C1.22904 22.0646 0.362202 20.1134 -0.155933 18.9473C-0.192924 18.8641 -0.238321 18.7619 -0.280615 18.6692C-0.521962 18.1741 -0.680274 17.7167 -0.813882 17.296L-0.840655 17.2112L-0.863937 17.1286C-1.20669 15.9104 -1.29529 14.8709 -1.14241 13.8566C-0.989526 12.8422 -0.604352 11.9049 0.0674376 10.9168L0.569534 10.097C0.658391 9.95171 0.719309 9.79107 0.749186 9.62358C0.9992 8.23072 1.65715 7.24321 1.95619 6.79375L1.99395 6.73685L2.00792 6.71434C2.01413 6.70063 2.01995 6.68757 2.02564 6.67334C2.04388 6.6141 2.06186 6.55667 2.07932 6.50196C2.15795 5.93054 2.29674 5.36921 2.49359 4.82702L2.52049 4.75407L2.54921 4.68086C2.55826 4.65758 2.5668 4.63236 2.59202 4.55669C2.73442 4.12755 3.03087 3.23666 3.80626 2.28071L4.08757 1.94016L4.37315 1.68186C5.13897 0.986017 6.05121 0.471117 7.04259 0.175059C7.60548 0.00795204 8.18557 -0.0939674 8.77161 -0.12876L8.82528 -0.133031L8.90573 -0.13678C9.00364 -0.141437 9.10129 -0.143506 9.19648 -0.143506C9.61697 -0.144282 10.0363 -0.265343 10.4482 -0.180755C10.766 -0.115051 11.0965 -0.150229 11.3933 -0.28138C11.9479 -0.525961 12.6946 -0.623613 13.5494 -0.73006C13.6103 -0.738984 13.6634 -0.745581 13.7046 -0.750755C13.817 -0.764982 13.9968 -0.786194 14.2142 -0.806759C14.5924 -0.842974 15.1744 -0.887207 15.8002 -0.887207C16.9848 -0.887207 17.994 -0.737305 18.8858 -0.428959L18.9571 -0.404254L19.0268 -0.37735C20.9952 0.366353 21.968 1.36188 22.7259 2.32714C22.768 2.38082 22.8112 2.43579 22.8272 2.4548L22.8452 2.47084L22.989 2.59888L23.0083 2.61867C23.6631 3.12025 24.2188 3.7394 24.647 4.4443L24.7731 4.65215L24.8803 4.86996C25.8147 6.77707 25.5219 8.51216 25.3969 9.25315L25.3902 9.29259C25.3015 9.8309 25.1565 10.3585 24.9573 10.8664C24.8946 11.3607 24.782 11.8474 24.6215 12.3193C24.3666 13.1002 23.9903 13.8364 23.5066 14.5005C23.1791 14.9661 22.8004 15.3933 22.3777 15.7745C22.1817 15.9506 22.0579 16.1932 22.0305 16.4554C22.01 16.6485 21.9825 16.8362 21.9476 17.0205C21.6668 18.5281 21.0105 19.5708 20.71 20.0377L19.9634 21.1232C18.9711 22.3982 17.7952 23.232 16.3708 23.6711L16.049 23.7719L15.7003 23.8323C15.2842 23.9058 14.8623 23.9422 14.4398 23.9415C14.3783 23.9415 14.3156 23.9415 14.2481 23.9398H14.229H14.189C14.189 23.9398 14.1757 23.9398 14.1483 23.9417L14.0745 23.9463L14.0003 23.949L13.8519 23.9545C13.6559 23.9615 13.4617 23.9953 13.2747 24.0549C12.3264 24.3577 11.2305 24.5006 9.87552 24.5006Z" stroke="white" stroke-width="0.136505" stroke-miterlimit="10"/>
<path d="M9.87544 23.4285C9.07082 23.4285 8.28819 23.3762 7.62946 23.325L7.50102 23.3151L7.37285 23.2973C7.2567 23.2813 7.12607 23.2671 6.9997 23.2531C6.37512 23.1852 5.43185 23.0825 4.37411 22.5864L4.23055 22.5191L4.09642 22.4442C2.06462 21.3051 1.31846 19.6249 0.824387 18.5129C0.782351 18.4177 0.734624 18.3104 0.690389 18.2109C0.475815 17.7745 0.332508 17.3583 0.210541 16.9729L0.18907 16.9054L0.170315 16.839C-0.129882 15.7728 -0.209167 14.8762 -0.0799564 14.0181C0.0511939 13.1481 0.39291 12.3371 0.994727 11.4654L1.06638 11.3619L1.14385 11.2624C1.19261 11.2002 1.23957 11.1388 1.28574 11.0786L1.58775 10.5248C1.68682 10.3439 1.75369 10.147 1.78538 9.94316C1.97745 8.70059 2.57603 7.80285 2.8523 7.38883L2.85359 7.38663C2.8695 7.36296 2.88981 7.33295 2.90029 7.3164L2.95927 7.22224C2.98242 7.1718 3.01294 7.1048 3.03972 7.03444C3.06662 6.9505 3.09857 6.84677 3.13336 6.73941C3.1988 6.21016 3.32426 5.68995 3.50728 5.18902L3.5281 5.13056L3.551 5.07145C3.57027 5.02243 3.58449 4.97975 3.61243 4.89581C3.74461 4.49861 3.98971 3.76137 4.64171 2.95701L4.86728 2.68423L5.09505 2.47858C5.74317 1.88957 6.51533 1.45356 7.35461 1.20303C7.84171 1.05843 8.34393 0.970741 8.8512 0.941769L8.89402 0.938536L8.9592 0.93556C9.03965 0.931809 9.1201 0.929998 9.20055 0.929998C9.63681 0.929352 10.0713 0.984579 10.4933 1.09439C10.8588 1.18687 11.2453 1.146 11.5832 0.979278C12.1243 0.716719 12.8479 0.43812 13.6956 0.334001C13.7538 0.325724 13.803 0.319255 13.8429 0.31421C13.9483 0.301018 14.1162 0.281232 14.3201 0.260537C14.6748 0.226521 15.2204 0.186035 15.804 0.186035C16.8674 0.186035 17.7618 0.31654 18.5396 0.585307L18.5968 0.605224L18.6526 0.62605C20.4605 1.30948 21.2699 2.20451 21.8866 2.98947C22.0225 3.1624 22.0431 3.1893 22.1364 3.27221L22.2516 3.37465L22.2963 3.42043C22.5938 3.65092 23.2021 4.12533 23.7344 5.0029L23.8355 5.1691L23.9208 5.3432C24.7035 6.94028 24.4599 8.38268 24.343 9.07606L24.3365 9.11435C24.2528 9.62265 24.1112 10.1198 23.9144 10.5959L23.909 10.6396C23.8571 11.0951 23.7564 11.5436 23.6089 11.9777C23.3876 12.6573 23.0603 13.2978 22.6393 13.8755C22.2871 14.3803 21.8638 14.8314 21.3825 15.2152C21.2681 15.306 21.1743 15.4202 21.1076 15.5502C21.0408 15.6803 21.0028 15.8231 20.9958 15.9691C20.9827 16.2556 20.9498 16.541 20.8971 16.823C20.6541 18.1302 20.0834 19.0365 19.7922 19.4889L19.2134 20.3443C18.3408 21.509 17.3066 22.2629 16.0568 22.6461L15.7997 22.7266L15.5215 22.7749C15.166 22.8378 14.8054 22.869 14.4442 22.8682C14.3881 22.8682 14.3311 22.8682 14.2694 22.8666H14.2551H14.1934C14.183 22.8666 14.151 22.8666 14.0861 22.8706L14.0271 22.8744L13.9701 22.8766L13.6718 22.8876C13.4629 22.8947 13.2561 22.9321 13.0578 22.9983C12.1892 23.2909 11.1643 23.4285 9.87544 23.4285Z" stroke="white" stroke-width="0.127974" stroke-miterlimit="10"/>
<path d="M9.87516 22.3554C9.10623 22.3554 8.35024 22.3047 7.71247 22.2552L7.61611 22.2477L7.51988 22.2345C7.38821 22.2162 7.24956 22.201 7.11518 22.1865C6.5281 22.1223 5.7253 22.0352 4.82923 21.6149L4.72201 21.5642L4.6219 21.5082C2.90117 20.5427 2.26818 19.1183 1.80579 18.0774C1.7578 17.9701 1.70788 17.8572 1.6586 17.7491C1.462 17.3538 1.3368 16.9742 1.23268 16.6495L1.21665 16.5988L1.20268 16.5492C0.699547 14.7611 0.888641 13.5068 1.87718 12.0756L1.93086 11.9978L1.98906 11.9233C2.05477 11.8393 2.1162 11.7586 2.17674 11.6819C2.26792 11.5623 2.36027 11.4404 2.46076 11.3152C2.52323 11.2372 2.57355 11.1502 2.61015 11.0572L2.72358 10.7676C2.7717 10.6444 2.80183 10.515 2.81321 10.3832C2.91164 9.2361 3.46948 8.39992 3.74575 7.98552L3.7473 7.98332C3.76748 7.95279 3.798 7.90727 3.80822 7.89084L3.87289 7.78763L3.89268 7.76072C3.92709 7.69127 3.99434 7.5446 4.05358 7.39094C4.08553 7.28579 4.13597 7.12437 4.18525 6.97757C4.18525 6.97201 4.18525 6.9658 4.18745 6.95934C4.24035 6.47871 4.35106 6.00623 4.51739 5.55212L4.53317 5.50815L4.55037 5.46391C4.58038 5.38747 4.60159 5.32358 4.63082 5.23537C4.74878 4.88085 4.94615 4.28731 5.47515 3.63505L5.64433 3.43018L5.81415 3.27678C7.06331 2.14325 8.46122 2.04547 8.92839 2.01404L8.96059 2.01158L9.01 2.00925C9.07351 2.00628 9.13714 2.00499 9.19936 2.00499C9.75397 2.00693 10.3028 2.11906 10.8136 2.33506C10.9042 2.37269 11.0018 2.38977 11.0997 2.38511C11.1977 2.38046 11.2932 2.3542 11.3798 2.30828H11.3825C11.8574 2.03279 12.7275 1.53341 13.8368 1.3998C13.8904 1.39178 13.9398 1.38571 13.976 1.38105C14.0736 1.36876 14.2294 1.35053 14.4209 1.33203C14.7524 1.30034 15.2615 1.26257 15.8027 1.26257C16.7449 1.26257 17.5248 1.37406 18.1873 1.60312L18.2302 1.61787L18.272 1.63378C19.8214 2.21917 20.4895 2.95382 21.0409 3.656C21.1893 3.84368 21.2555 3.93085 21.4216 4.07726L21.5078 4.15422L21.577 4.22536L21.6307 4.26778C21.8933 4.47097 22.3816 4.84942 22.8151 5.56234L22.891 5.68702L22.955 5.81766C23.5853 7.10497 23.3882 8.27252 23.2822 8.90008L23.2762 8.93733C23.2014 9.39364 23.0715 9.83908 22.8893 10.2638L22.874 10.3003C22.8725 10.3082 22.8703 10.3197 22.8671 10.3365C22.8588 10.3797 22.854 10.4141 22.8483 10.4578L22.8418 10.5071C22.7989 10.8919 22.7143 11.2709 22.5895 11.6373C22.4018 12.2154 22.1237 12.7602 21.7659 13.2513C21.4119 13.7539 21.0149 14.1633 20.5695 14.4873C20.3739 14.6301 20.2142 14.8165 20.1029 15.0315C19.9917 15.2466 19.932 15.4848 19.9285 15.7269C19.9247 16.0289 19.8951 16.33 19.8401 16.627C19.6347 17.7344 19.1621 18.4843 18.868 18.9412L18.4474 19.5718C17.6943 20.6239 16.8058 21.2959 15.7364 21.6232L15.6799 21.6409C15.5891 21.6695 15.4965 21.6919 15.4029 21.7081L15.335 21.7198C15.0399 21.7721 14.7409 21.7981 14.4414 21.7973C14.3907 21.7973 14.3392 21.7973 14.2833 21.796H14.2743C14.2488 21.796 14.2206 21.796 14.1906 21.796C14.1696 21.796 14.1144 21.796 14.0145 21.8022L13.9703 21.8048L13.9271 21.8065C13.7837 21.8118 13.6053 21.818 13.4462 21.825C13.2283 21.834 13.0129 21.8762 12.8077 21.9502C12.038 22.2252 11.096 22.3554 9.87516 22.3554Z" stroke="white" stroke-width="0.119442" stroke-miterlimit="10"/>
<path d="M9.87523 21.2827C9.14278 21.2827 8.41305 21.2337 7.79571 21.1857L7.7313 21.1808L7.66715 21.1717C7.51944 21.1513 7.37212 21.1352 7.23024 21.12C6.69063 21.0613 6.0191 20.988 5.28471 20.6436L5.21293 20.6099L5.14632 20.5726C3.73678 19.7822 3.20997 18.5957 2.78626 17.6422C2.73413 17.5247 2.67891 17.4035 2.62523 17.2854C2.45929 16.9542 2.34689 16.6149 2.25467 16.3246L2.24394 16.2909L2.2345 16.258C1.81932 14.7829 1.95642 13.8466 2.7591 12.6844L2.79479 12.6327L2.83373 12.5832C2.9037 12.4935 2.96772 12.4099 3.0289 12.3291C3.23843 12.0544 3.43981 11.7901 3.74104 11.4685C3.80701 11.3979 3.84658 11.3066 3.85279 11.2102L3.87569 10.8631L3.86676 10.7494L3.87077 10.6314C3.9022 9.67963 4.38037 8.96347 4.6362 8.57882C4.66582 8.53432 4.6966 8.48854 4.71484 8.45931L4.75804 8.39063L4.79801 8.33695C4.84573 8.25896 4.97119 7.99291 5.06613 7.73759C5.09885 7.63024 5.16223 7.42563 5.21797 7.26331C5.2344 7.21157 5.23595 7.19902 5.2494 7.08792C5.29299 6.68632 5.38547 6.29145 5.52477 5.91222L5.53524 5.8826L5.54675 5.85286C5.58646 5.75145 5.61414 5.66867 5.64609 5.57258C5.7471 5.2685 5.89946 4.81012 6.30559 4.30945L6.41876 4.1726L6.53077 4.0712C7.40601 3.27654 8.35937 3.12612 9.00284 3.08292L9.02457 3.08098H9.05781C9.1045 3.07891 9.15093 3.07787 9.19646 3.07787C9.74602 3.07787 10.4033 3.34147 10.7485 3.50081C10.8311 3.53858 10.9203 3.55979 11.0111 3.56316C11.1019 3.56639 11.1924 3.55164 11.2774 3.51983C11.4922 3.44196 11.7015 3.34988 11.9039 3.24408C12.343 2.98928 13.0715 2.56854 13.9761 2.46312C14.026 2.45562 14.0708 2.44993 14.1077 2.44514C14.1987 2.43389 14.3422 2.41837 14.5199 2.39974C14.8284 2.37026 15.3008 2.33521 15.7999 2.33521C16.6206 2.33521 17.286 2.42742 17.8339 2.61678L17.8623 2.62674L17.8891 2.63722C19.1832 3.12612 19.6982 3.68797 20.1936 4.3185C20.3545 4.52182 20.4681 4.6672 20.7045 4.87854L20.7619 4.92976L20.8154 4.98343C20.8637 5.03116 20.9155 5.07501 20.9708 5.11459C21.1928 5.28648 21.5651 5.57452 21.8953 6.11813L21.9457 6.2013L21.9885 6.28847C22.4671 7.26498 22.3133 8.1758 22.2213 8.71993L22.2153 8.75692C22.1541 9.13265 22.047 9.49933 21.8963 9.8488V9.85152C21.8547 9.94193 21.8258 10.0376 21.8108 10.1361C21.7979 10.2047 21.7899 10.26 21.7821 10.3212L21.7756 10.3709C21.7412 10.6849 21.6726 10.9941 21.571 11.293C21.4179 11.7701 21.1888 12.2193 20.8928 12.6234C20.4556 13.2469 19.9503 13.6857 19.3415 13.9644C19.1935 14.0319 19.0671 14.1389 18.9763 14.2738C18.8854 14.4085 18.8336 14.5658 18.8264 14.7281C18.8236 14.7948 18.8224 14.8495 18.8244 14.88C18.8544 15.3491 18.8884 15.8807 18.7839 16.4283C18.6163 17.3341 18.2326 17.9429 17.9443 18.3899C17.9443 18.3899 16.6216 20.2309 15.418 20.5983L15.2884 20.6388L15.1492 20.6631C14.915 20.7048 14.6775 20.7254 14.4395 20.7246C14.3945 20.7246 14.3483 20.7246 14.2988 20.7233H14.2944C14.2626 20.7233 14.2279 20.7233 14.1887 20.7233C14.1415 20.7233 14.0645 20.7233 13.9449 20.7316L13.9157 20.7335H13.8868C13.4263 20.7501 12.991 20.7657 12.87 20.7893C12.8053 20.7993 12.7422 20.8178 12.6823 20.8445C12.0011 21.143 11.1077 21.2827 9.87523 21.2827Z" stroke="white" stroke-width="0.11091" stroke-miterlimit="10"/>
<path d="M9.87549 20.2102C9.17978 20.2102 8.47578 20.1628 7.87875 20.1163L7.8468 20.1139L7.81486 20.1093C7.6515 20.0868 7.49655 20.0699 7.34639 20.0536C6.83834 19.9982 6.31297 19.9412 5.74038 19.6727L5.70442 19.6555L5.67118 19.637C4.57154 19.0202 4.16309 18.0989 3.76692 17.2068C3.71066 17.0803 3.65245 16.9494 3.59231 16.8193C3.45818 16.5543 3.36325 16.27 3.27801 16.0007L3.27258 15.9842L3.2678 15.9672C2.93772 14.7931 3.02166 14.1936 3.64327 13.2943L3.66125 13.2675L3.68052 13.2426C3.75347 13.1496 3.81982 13.0627 3.88358 12.9787C4.18235 12.5868 4.44065 12.2481 5.01944 11.7139L5.02099 11.7122C5.06355 11.6717 5.09329 11.6197 5.10687 11.5626C5.12045 11.5055 5.11709 11.4457 5.09743 11.3904L4.99319 11.0929C4.97223 10.9992 4.95749 10.9041 4.94921 10.8084V10.8052L4.94274 10.7247L4.94481 10.6657C4.96602 10.0197 5.30593 9.51035 5.53059 9.17316C5.56577 9.11948 5.59927 9.07046 5.62527 9.02856L5.64674 8.99428L5.67092 8.96182C5.7903 8.80092 5.98419 8.35547 6.08611 8.07946C6.11288 7.99448 6.18156 7.7662 6.23873 7.60078C6.27934 7.47622 6.30572 7.34766 6.31723 7.21715C6.35099 6.89432 6.4251 6.5768 6.53776 6.27233L6.54306 6.25733L6.54901 6.24258C6.59855 6.11518 6.63347 6.01054 6.66723 5.90914C6.75712 5.63908 6.85878 5.33281 7.14164 4.98385L7.19855 4.91517L7.25404 4.86511C7.87578 4.30029 8.55727 4.18647 9.0829 4.15168H9.0939H9.1111C9.14059 4.15168 9.17008 4.14974 9.19931 4.14974C9.71085 4.14974 10.104 4.35953 10.3641 4.49844L10.4248 4.53064L10.4339 4.53543C10.5053 4.5741 10.568 4.60786 10.6262 4.63657C10.7879 4.71767 10.9736 4.73668 11.1483 4.69025C11.5045 4.59441 12.0603 4.38371 12.4341 4.17819L12.4419 4.17366C12.835 3.94564 13.4273 3.60237 14.1213 3.52619C14.165 3.51921 14.2069 3.51416 14.2464 3.50899C14.3268 3.4989 14.4608 3.48222 14.6247 3.46747C14.9102 3.4407 15.3459 3.40771 15.8027 3.40771C16.5022 3.40771 17.0528 3.48066 17.4862 3.63031L17.5005 3.63535L17.5149 3.64079C18.5531 4.03307 18.9319 4.44373 19.3536 4.98178C19.5254 5.20036 19.6876 5.40679 19.9953 5.68073L20.0239 5.7075L20.0508 5.73428C20.1339 5.81822 20.2236 5.89544 20.3189 5.96528C20.5035 6.1082 20.7563 6.30402 20.9836 6.67781L21.0088 6.71946L21.0303 6.76317C21.3566 7.42966 21.2479 8.07377 21.1687 8.54392L21.1624 8.58104C21.115 8.87762 21.0299 9.16695 20.9095 9.44218C20.8392 9.60063 20.7893 9.76734 20.761 9.93833C20.7422 10.0375 20.7312 10.1151 20.722 10.1869L20.7156 10.2379C20.6898 10.481 20.6372 10.7204 20.5587 10.9518C20.4397 11.3274 20.2598 11.6808 20.0261 11.9978C19.6318 12.5638 19.1947 12.9128 18.6139 13.0975C18.3357 13.1855 18.0963 13.3669 17.9362 13.6108L17.8902 13.6817L17.8392 13.7399C17.6916 13.9078 17.7333 14.5583 17.7587 14.9467C17.7855 15.3729 17.8142 15.8136 17.7346 16.2285C17.6037 16.9378 17.2998 17.4166 17.0278 17.8376C17.0278 17.8376 16.0178 19.2948 15.1065 19.5715L15.0402 19.5925L14.9704 19.6045C14.7969 19.6357 14.6208 19.651 14.4445 19.6502C14.4048 19.6502 14.3641 19.6502 14.3209 19.6502C14.2826 19.6502 14.2404 19.6502 14.1938 19.6502C14.1318 19.6502 14.0329 19.6502 13.8822 19.6607H13.8677H13.8532C13.2419 19.6829 12.8732 19.696 12.6694 19.7357C12.5321 19.76 12.3983 19.8 12.2702 19.8551C11.7244 20.0971 10.9622 20.2102 9.87549 20.2102Z" stroke="white" stroke-width="0.11091" stroke-miterlimit="10"/>
</g>
</g>
</g>
<defs>
<filter id="filter0_i_5480_9749" x="-2.354" y="-2.1908" width="29.0686" height="27.7211" filterUnits="userSpaceOnUse" color-interpolation-filters="sRGB">
<feFlood flood-opacity="0" result="BackgroundImageFix"/>
<feBlend mode="normal" in="SourceGraphic" in2="BackgroundImageFix" result="shape"/>
<feColorMatrix in="SourceAlpha" type="matrix" values="0 0 0 0 0 0 0 0 0 0 0 0 0 0 0 0 0 0 127 0" result="hardAlpha"/>
<feOffset dx="0.0341263" dy="0.0511894"/>
<feGaussianBlur stdDeviation="0.0426578"/>
<feComposite in2="hardAlpha" operator="arithmetic" k2="-1" k3="1"/>
<feColorMatrix type="matrix" values="0 0 0 0 0 0 0 0 0 0 0 0 0 0 0 0 0 0 0.12 0"/>
<feBlend mode="normal" in2="shape" result="effect1_innerShadow_5480_9749"/>
</filter>
<clipPath id="clip0_5480_9749">
<rect width="24" height="24" fill="white" transform="translate(-0.000488281)"/>
</clipPath>
</defs>
</svg>
