<svg width="20" height="22" viewBox="0 0 20 22" fill="none" xmlns="http://www.w3.org/2000/svg">
<path d="M10.0577 14.0509L12.9544 18.5973L15.6304 17.0466L11.826 11.0503L10.0577 14.0509Z" fill="#787F85"/>
<path d="M18.0672 15.222L18.0652 13.9794L13.9083 7.50488L12.3661 10.1218L16.379 16.6118L17.8299 15.771C17.9722 15.6554 18.0583 15.4858 18.0674 15.3028L18.0672 15.222Z" fill="#787F85"/>
<path d="M0.647766 16.3941L2.69669 17.5747L9.51507 6.63996L8.35789 6.60942C7.3719 6.59549 6.30978 6.85182 5.82231 7.64757L1.95038 13.6489L0.647766 15.6504V16.3941Z" fill="#787F85"/>
<path d="M13.4504 6.63965L10.4005 6.65072L3.50043 18.0371L5.91221 19.4257L6.56808 18.3134L13.4504 6.63965Z" fill="#787F85"/>
<path d="M19.3524 6.62416C19.3268 5.98633 18.9815 5.40244 18.4405 5.0625L10.8585 0.702226C10.3234 0.432793 9.6549 0.432447 9.11885 0.702053C9.05548 0.734018 1.74546 4.97352 1.74546 4.97352C1.64429 5.02206 1.54684 5.07984 1.45518 5.14546C0.972287 5.49154 0.67794 6.02937 0.647705 6.62022V15.6503L1.95032 13.6488L1.93894 6.68126C1.94045 6.65578 1.94365 6.63069 1.9482 6.60595C1.97765 6.44202 2.06918 6.29577 2.20699 6.19694C2.24138 6.17232 9.67627 1.86871 9.69988 1.85691C9.87463 1.76914 10.0967 1.7681 10.2717 1.85418L17.7557 6.159C17.9327 6.27177 18.0437 6.46295 18.0536 6.67196V15.3031C18.0445 15.4861 17.9722 15.6557 17.8299 15.7713L16.3789 16.6121L15.6303 17.046L12.9544 18.5967L10.2407 20.1693C10.0946 20.2221 9.92368 20.2191 9.77874 20.1602L6.56804 18.3136L5.91217 19.4259L8.79751 21.0872C8.89293 21.1415 8.97792 21.1896 9.04769 21.2287C9.1557 21.2893 9.22932 21.3298 9.25531 21.3424C9.46038 21.442 9.75547 21.5 10.0214 21.5C10.2651 21.5 10.5029 21.4552 10.7278 21.3671L18.6098 16.8024C19.0622 16.4519 19.3284 15.9233 19.3524 15.3506V6.62416Z" fill="#787F85"/>
</svg>
