<?xml version="1.0" encoding="utf-8"?>
<svg
    xmlns="http://www.w3.org/2000/svg"
    width="auto"
    height="100%"
    viewBox="0 0 24 24"
    fill="none"
  >
    <g clip-path="url(#clip0_5415_14716)">
      <path
        d="M23.9718 11.1857C23.5221 4.57385 17.7976 -0.421607 11.1857 0.0281354C7.89191 0.252168 4.99986 1.78574 2.9817 4.08539L2.97609 4.08132C2.96249 4.10014 2.94978 4.1187 2.93628 4.1375C0.9316 6.44838 -0.195883 9.52104 0.0281222 12.8143C0.0494681 13.1282 0.0864072 13.437 0.131043 13.7431C0.131057 13.7432 0.131057 13.7432 0.13107 13.7433C0.133081 13.7571 0.135132 13.7709 0.137076 13.7847C0.16725 13.9867 0.202286 14.1869 0.242261 14.3852C0.242287 14.3853 0.242301 14.3854 0.242327 14.3855C0.24306 14.3891 0.243752 14.3927 0.244458 14.3963C0.280851 14.5759 0.321279 14.7538 0.365515 14.9303L0.365595 14.9306C0.365635 14.9308 0.365675 14.931 0.365702 14.931C1.75156 20.4578 6.92977 24.3722 12.8143 23.9718C19.4262 23.5222 24.4216 17.7975 23.9718 11.1857ZM21.3598 11.3634C21.4152 12.1774 21.364 12.9744 21.219 13.7412C21.2172 13.7368 21.2158 13.7322 21.214 13.7278V13.7278C20.3441 11.6013 18.6232 10.0661 17.1098 9.218C17.4162 5.61479 16.1938 4.09679 14.8102 3.8498C14.7726 3.84256 14.7348 3.83638 14.6963 3.83162C13.5983 3.69078 12.5942 4.46692 12.4535 5.5649C12.3126 6.66293 13.0888 7.6671 14.1868 7.80798C14.2826 7.8201 14.3773 7.82346 14.4711 7.82198C14.4772 7.94362 14.481 8.0728 14.4821 8.20792C13.2029 7.89093 12.007 7.82888 10.9168 7.9269C10.5091 7.95408 10.1011 8.00544 9.69536 8.08128C9.83144 6.86458 10.2879 5.49859 11.1737 4.49894C12.0299 3.53261 13.303 2.97874 14.6917 3.12087C14.955 3.14781 15.2358 3.21245 15.4887 3.29738C15.5003 3.30128 15.5127 3.30458 15.5242 3.30858C15.5243 3.30835 15.5246 3.30805 15.5247 3.30782C18.7414 4.61819 21.1086 7.67094 21.3598 11.3634ZM12.9959 13.1962C12.995 13.1975 12.9942 13.1988 12.9933 13.2002C12.707 13.6131 12.3664 14.0203 11.9666 14.4142C11.3674 13.7766 10.886 13.0899 10.5208 12.3796C10.5021 12.3415 10.4821 12.3054 10.4638 12.2666C10.4631 12.2653 10.4625 12.2638 10.4618 12.2624C10.2472 11.8078 10.0648 11.309 9.9236 10.7658C10.7763 10.5651 11.6126 10.4914 12.4111 10.5302C12.4534 10.533 12.4948 10.5338 12.5374 10.5374C12.539 10.5374 12.5406 10.5376 12.5422 10.5377C13.0423 10.5791 13.5646 10.6703 14.1048 10.8193C13.8522 11.6577 13.4981 12.4185 13.0653 13.0904C13.0417 13.1257 13.0203 13.161 12.9959 13.1962ZM8.89552 3.14874C8.89328 3.15163 8.8908 3.15436 8.88856 3.15726C7.48263 4.97298 7.01326 7.22954 7.03497 8.96384C3.76157 10.5002 3.05818 12.3178 3.53603 13.6394C3.54855 13.6755 3.56214 13.7114 3.57723 13.7471C4.0043 14.7685 5.17853 15.25 6.19972 14.8228C7.22106 14.3958 7.70262 13.2215 7.27566 12.2002C7.23826 12.1112 7.19381 12.0274 7.14562 11.947C7.24907 11.8801 7.36017 11.8114 7.47814 11.7422C7.84322 13.0087 8.38328 14.0801 9.01344 14.9754C9.2404 15.3142 9.48832 15.6412 9.75624 15.9541C8.6344 16.4448 7.22289 16.7326 5.91401 16.4654C4.64899 16.207 3.53282 15.3814 2.96156 14.1077C2.85327 13.8662 2.76883 13.5907 2.71591 13.3293C2.68335 13.1008 2.65607 12.8706 2.64017 12.6366C2.34778 8.33816 5.01462 4.51138 8.89552 3.14874ZM12.6366 21.3598C10.0841 21.5334 7.698 20.6628 5.89466 19.1152C8.17008 19.4249 10.359 18.703 11.8501 17.817C14.8186 19.8854 16.745 19.586 17.6509 18.5111C17.676 18.4822 17.7002 18.4525 17.7236 18.4215C18.3946 17.541 18.2246 16.2834 17.344 15.6126C16.4634 14.9415 15.2058 15.1117 14.5348 15.9921C14.4764 16.069 14.4261 16.1493 14.3805 16.2313C14.2716 16.1755 14.1573 16.114 14.0391 16.047C14.9543 15.097 15.6064 14.0918 16.067 13.0979C16.2473 12.7313 16.4068 12.3522 16.5441 11.9629C17.5305 12.6891 18.4864 13.7681 18.9095 15.0359C19.3182 16.2606 19.1614 17.6401 18.344 18.7717C18.189 18.9862 17.9926 19.1971 17.7926 19.3737C17.7897 19.3762 17.7868 19.379 17.784 19.3816C16.3538 20.5056 14.5843 21.2274 12.6366 21.3598Z"
        fill="#ECEDEE"
      />
    </g>
    <defs>
      <clipPath id="clip0_5415_14716">
        <rect width="24" height="24" fill="white" />
      </clipPath>
    </defs>
  </svg>