<svg width="24" height="25" viewBox="0 0 24 25" fill="none" xmlns="http://www.w3.org/2000/svg">
<path d="M17.1406 16.0851V14.8219C17.9181 14.5552 18.4843 13.7271 18.4843 12.747C18.4843 11.7668 17.9181 10.9364 17.1406 10.672V9.40885C17.8728 9.15854 18.4188 8.40763 18.4793 7.5H17.5885V7.88598C17.5885 8.18307 17.4073 8.44506 17.1406 8.57606V8.39594C17.1406 8.1316 16.9091 7.91639 16.6248 7.91639H16.5795C16.2952 7.91639 16.0636 8.1316 16.0636 8.39594V8.57606C15.7969 8.44506 15.6157 8.1854 15.6157 7.88598V7.5H14.725C14.7854 8.40763 15.3314 9.15854 16.0636 9.40885V10.672C15.2886 10.9364 14.72 11.7645 14.72 12.747C14.72 13.7295 15.2861 14.5576 16.0636 14.8219V16.0851C15.3314 16.3354 14.7854 17.0863 14.725 17.9939H15.6157V17.608C15.6157 17.3109 15.7969 17.0489 16.0636 16.9179V17.098C16.0636 17.3624 16.2952 17.5776 16.5795 17.5776H16.6248C16.9091 17.5776 17.1406 17.3624 17.1406 17.098V16.9179C17.4073 17.0489 17.5885 17.3085 17.5885 17.608V17.9939H18.4793C18.4188 17.0863 17.8728 16.3354 17.1406 16.0851ZM15.6157 13.299V12.1926C15.6157 11.8955 15.7969 11.6335 16.0636 11.5025V11.6826C16.0636 11.9469 16.2952 12.1622 16.5795 12.1622H16.6248C16.9091 12.1622 17.1406 11.9469 17.1406 11.6826V11.5025C17.4073 11.6335 17.5885 11.8931 17.5885 12.1926V13.299C17.5885 13.5961 17.4073 13.8581 17.1406 13.9891V13.809C17.1406 13.5447 16.9091 13.3295 16.6248 13.3295H16.5795C16.2952 13.3295 16.0636 13.5447 16.0636 13.809V13.9891C15.7994 13.8581 15.6157 13.5985 15.6157 13.299Z" fill="#11181C"/>
<path d="M22.6058 13.4183V12.0733C23.3833 11.8066 23.9495 10.9785 23.9495 9.99834C23.9495 9.01818 23.3833 8.18774 22.6058 7.92341V7.5H21.5314V7.92341C20.7539 8.19008 20.1877 9.01818 20.1877 9.99834C20.1877 10.9785 20.7539 11.8089 21.5314 12.0733V13.4183C20.7539 13.685 20.1877 14.5131 20.1877 15.4933C20.1877 16.4734 20.7539 17.3039 21.5314 17.5682V17.9916H22.6058V17.5682C23.3833 17.3015 23.9495 16.4734 23.9495 15.4933C23.9495 14.5131 23.3833 13.685 22.6058 13.4183ZM21.081 10.5504V9.44393C21.081 9.14684 21.2622 8.88485 21.5289 8.75384V8.93397C21.5289 9.19831 21.7604 9.41352 22.0447 9.41352H22.0875C22.3718 9.41352 22.6033 9.19831 22.6033 8.93397V8.75384C22.8701 8.88485 23.0512 9.1445 23.0512 9.44393V10.5504C23.0512 10.8475 22.8701 11.1095 22.6033 11.2405V11.0604C22.6033 10.796 22.3718 10.5808 22.0875 10.5808H22.0422C21.7579 10.5808 21.5264 10.796 21.5264 11.0604V11.2405C21.2647 11.1095 21.081 10.8498 21.081 10.5504ZM23.0537 16.0477C23.0537 16.3448 22.8726 16.6068 22.6058 16.7378V16.4734C22.6058 16.2091 22.3744 15.9939 22.09 15.9939H22.0472C21.7629 15.9939 21.5314 16.2091 21.5314 16.4734V16.7378C21.2647 16.6068 21.0835 16.3471 21.0835 16.0477V14.9412C21.0835 14.6441 21.2647 14.3821 21.5314 14.2511V14.347C21.5314 14.6114 21.7629 14.8266 22.0472 14.8266H22.0926C22.3769 14.8266 22.6083 14.6114 22.6083 14.347V14.2511C22.8751 14.3821 23.0562 14.6418 23.0562 14.9412V16.0477H23.0537Z" fill="#11181C"/>
<path d="M10.9835 11.6757C10.9734 11.6219 10.9608 11.5704 10.9407 11.5213C10.9482 11.5096 12.619 9.34578 11.0716 8.00772C9.52656 6.66966 7.72237 8.41476 7.71231 8.42411C7.42546 8.3399 7.13609 8.28843 6.84924 8.26504C6.84924 8.26504 6.84924 8.26504 6.84672 8.26504C6.25791 8.17381 5.43258 8.26504 5.43258 8.26504C5.14825 8.28843 4.8614 8.3399 4.57706 8.42177C4.56699 8.41241 2.76284 6.66732 1.21787 8.00538C-0.327113 9.34344 1.34116 11.5096 1.34871 11.519C1.3311 11.5704 1.316 11.6219 1.30593 11.6734C1.13987 12.5997 0 12.8851 0 14.4992C0 16.1437 1.19018 17.4396 3.62089 17.4396H4.61732C4.62235 17.4443 5.00734 17.9543 5.80248 17.9847C5.80248 17.9847 5.98617 18.0034 6.40889 17.9894C7.25184 17.9894 7.66199 17.449 7.6645 17.4419H8.66093C11.0916 17.4419 12.2818 16.146 12.2818 14.5015C12.2893 12.8898 11.1495 12.602 10.9835 11.6757Z" fill="#11181C"/>
</svg>
