<svg width="25" height="25" viewBox="0 0 25 25" fill="none" xmlns="http://www.w3.org/2000/svg">
<g clip-path="url(#clip0_5423_19166)">
<g clip-path="url(#clip1_5423_19166)">
<path d="M17.6406 16.0851V14.8219C18.4181 14.5552 18.9843 13.7271 18.9843 12.747C18.9843 11.7668 18.4181 10.9364 17.6406 10.672V9.40885C18.3728 9.15854 18.9188 8.40763 18.9793 7.5H18.0885V7.88598C18.0885 8.18307 17.9073 8.44506 17.6406 8.57606V8.39594C17.6406 8.1316 17.4091 7.91639 17.1248 7.91639H17.0795C16.7952 7.91639 16.5636 8.1316 16.5636 8.39594V8.57606C16.2969 8.44506 16.1157 8.1854 16.1157 7.88598V7.5H15.225C15.2854 8.40763 15.8314 9.15854 16.5636 9.40885V10.672C15.7886 10.9364 15.22 11.7645 15.22 12.747C15.22 13.7295 15.7861 14.5576 16.5636 14.8219V16.0851C15.8314 16.3354 15.2854 17.0863 15.225 17.9939H16.1157V17.608C16.1157 17.3109 16.2969 17.0489 16.5636 16.9179V17.098C16.5636 17.3624 16.7952 17.5776 17.0795 17.5776H17.1248C17.4091 17.5776 17.6406 17.3624 17.6406 17.098V16.9179C17.9073 17.0489 18.0885 17.3085 18.0885 17.608V17.9939H18.9793C18.9188 17.0863 18.3728 16.3354 17.6406 16.0851ZM16.1157 13.299V12.1926C16.1157 11.8955 16.2969 11.6335 16.5636 11.5025V11.6826C16.5636 11.9469 16.7952 12.1622 17.0795 12.1622H17.1248C17.4091 12.1622 17.6406 11.9469 17.6406 11.6826V11.5025C17.9073 11.6335 18.0885 11.8931 18.0885 12.1926V13.299C18.0885 13.5961 17.9073 13.8581 17.6406 13.9891V13.809C17.6406 13.5447 17.4091 13.3295 17.1248 13.3295H17.0795C16.7952 13.3295 16.5636 13.5447 16.5636 13.809V13.9891C16.2994 13.8581 16.1157 13.5985 16.1157 13.299Z" fill="#ECEDEE"/>
<path d="M23.1058 13.4183V12.0733C23.8833 11.8066 24.4495 10.9785 24.4495 9.99834C24.4495 9.01818 23.8833 8.18774 23.1058 7.92341V7.5H22.0314V7.92341C21.2539 8.19008 20.6877 9.01818 20.6877 9.99834C20.6877 10.9785 21.2539 11.8089 22.0314 12.0733V13.4183C21.2539 13.685 20.6877 14.5131 20.6877 15.4933C20.6877 16.4734 21.2539 17.3039 22.0314 17.5682V17.9916H23.1058V17.5682C23.8833 17.3015 24.4495 16.4734 24.4495 15.4933C24.4495 14.5131 23.8833 13.685 23.1058 13.4183ZM21.581 10.5504V9.44393C21.581 9.14684 21.7622 8.88485 22.0289 8.75384V8.93397C22.0289 9.19831 22.2604 9.41352 22.5447 9.41352H22.5875C22.8718 9.41352 23.1033 9.19831 23.1033 8.93397V8.75384C23.3701 8.88485 23.5512 9.1445 23.5512 9.44393V10.5504C23.5512 10.8475 23.3701 11.1095 23.1033 11.2405V11.0604C23.1033 10.796 22.8718 10.5808 22.5875 10.5808H22.5422C22.2579 10.5808 22.0264 10.796 22.0264 11.0604V11.2405C21.7647 11.1095 21.581 10.8498 21.581 10.5504ZM23.5537 16.0477C23.5537 16.3448 23.3726 16.6068 23.1058 16.7378V16.4734C23.1058 16.2091 22.8744 15.9939 22.59 15.9939H22.5472C22.2629 15.9939 22.0314 16.2091 22.0314 16.4734V16.7378C21.7647 16.6068 21.5835 16.3471 21.5835 16.0477V14.9412C21.5835 14.6441 21.7647 14.3821 22.0314 14.2511V14.347C22.0314 14.6114 22.2629 14.8266 22.5472 14.8266H22.5926C22.8769 14.8266 23.1083 14.6114 23.1083 14.347V14.2511C23.3751 14.3821 23.5562 14.6418 23.5562 14.9412V16.0477H23.5537Z" fill="#ECEDEE"/>
<path d="M11.4835 11.6757C11.4734 11.6219 11.4608 11.5704 11.4407 11.5213C11.4482 11.5096 13.119 9.34578 11.5716 8.00772C10.0266 6.66966 8.22237 8.41476 8.21231 8.42411C7.92546 8.3399 7.63609 8.28843 7.34924 8.26504C7.34924 8.26504 7.34924 8.26504 7.34672 8.26504C6.75791 8.17381 5.93258 8.26504 5.93258 8.26504C5.64825 8.28843 5.3614 8.3399 5.07706 8.42177C5.06699 8.41241 3.26284 6.66732 1.71787 8.00538C0.172887 9.34344 1.84116 11.5096 1.84871 11.519C1.8311 11.5704 1.816 11.6219 1.80593 11.6734C1.63987 12.5997 0.5 12.8851 0.5 14.4992C0.5 16.1437 1.69018 17.4396 4.12089 17.4396H5.11732C5.12235 17.4443 5.50734 17.9543 6.30248 17.9847C6.30248 17.9847 6.48617 18.0034 6.90889 17.9894C7.75184 17.9894 8.16199 17.449 8.1645 17.4419H9.16093C11.5916 17.4419 12.7818 16.146 12.7818 14.5015C12.7893 12.8898 11.6495 12.602 11.4835 11.6757Z" fill="#ECEDEE"/>
</g>
</g>
<defs>
<clipPath id="clip0_5423_19166">
<rect width="24" height="24" fill="white" transform="translate(0.5 0.758423)"/>
</clipPath>
<clipPath id="clip1_5423_19166">
<rect width="24" height="10.5169" fill="white" transform="translate(0.5 7.5)"/>
</clipPath>
</defs>
</svg>
