<svg width="25" height="24" viewBox="0 0 25 24" fill="none" xmlns="http://www.w3.org/2000/svg">
<g clip-path="url(#clip0_5445_18750)">
<path d="M0.53152 14.6882C0.529215 13.2832 0.526911 11.8782 0.535398 10.4436C0.555681 10.4053 0.564504 10.3959 0.572662 10.3859C1.05204 10.1488 1.55224 9.97967 2.08723 9.92664C2.5385 9.88191 2.99003 9.83975 3.46194 9.79449C3.46194 8.42505 3.46194 7.03519 3.46194 5.64207C2.47416 5.71043 1.47186 5.70979 0.539522 6.20013C0.531748 6.09755 0.523769 6.04112 0.52374 5.9847C0.523029 4.67335 0.524562 3.36201 0.521 2.05068C0.520652 1.92256 0.54101 1.83585 0.674399 1.77786C1.58128 1.38363 2.53381 1.32438 3.53007 1.36315C3.53007 2.7659 3.53007 4.1556 3.53007 5.49385C4.47759 5.54169 5.39501 5.58802 6.3371 5.6356C6.3371 4.28877 6.3371 2.93161 6.3371 1.53531C7.33552 1.70364 8.25797 2.01904 9.19469 2.33345C9.19469 3.22814 9.19469 4.12113 9.19469 5.01412C9.19469 5.35658 9.19469 5.69903 9.19469 6.04148C9.19469 6.47081 9.19338 6.47449 9.58438 6.61359C10.3206 6.87552 11.0586 7.13275 11.8312 7.40436C11.8312 6.05836 11.8312 4.72108 11.8312 3.3443C12.474 3.52427 13.0733 3.69207 13.6987 3.86716C13.6987 3.19301 13.6987 2.5378 13.6987 1.84791C14.0629 1.93948 14.3977 2.02491 14.7332 2.10764C15.0104 2.176 15.2868 2.24884 15.5666 2.30467C15.716 2.33448 15.7669 2.40011 15.7644 2.55394C15.7556 3.09671 15.7557 3.63982 15.7671 4.1825C15.7687 4.25811 15.8413 4.38638 15.8996 4.39815C16.3966 4.49846 16.8979 4.57793 17.3982 4.66172C17.4283 4.66677 17.4611 4.65542 17.5096 4.64973C17.5096 4.01094 17.5096 3.37858 17.5096 2.69923C17.6478 2.72052 17.7624 2.74491 17.8782 2.75482C18.314 2.79208 18.7497 2.83416 19.1863 2.85471C19.389 2.86426 19.4826 2.91424 19.4753 3.14221C19.459 3.65119 19.4765 4.16117 19.4669 4.67049C19.4634 4.85412 19.5249 4.90032 19.7086 4.92057C20.738 5.03405 21.7565 5.20661 22.6391 5.80184C23.4049 6.31834 23.7633 7.06197 23.8372 7.97619C23.8964 8.7082 23.8109 9.41039 23.5905 10.1077C23.3576 10.8445 22.9701 11.4788 22.4179 12.0154C22.3584 12.0731 22.2932 12.125 22.2062 12.2009C22.3389 12.2544 22.4304 12.2988 22.5264 12.3287C23.5866 12.6594 24.1858 13.3893 24.3838 14.4676C24.6084 15.6912 24.4354 16.8687 23.8673 17.963C23.1173 19.4079 21.9274 20.304 20.3112 20.6028C20.0452 20.652 19.7773 20.6904 19.4797 20.7388C19.4797 21.3672 19.4797 22.022 19.4797 22.6767C18.8169 22.6767 18.1815 22.6767 17.5199 22.6767C17.5199 21.9904 17.5199 21.3351 17.5199 20.6828C16.9249 20.6191 16.3565 20.5583 15.767 20.4953C15.767 21.1565 15.767 21.7885 15.767 22.4905C15.0668 22.3787 14.3948 22.2714 13.7103 22.1621C13.7103 21.4724 13.7103 20.8061 13.7103 20.1382C13.0445 19.9907 12.3868 19.8722 11.7448 19.696C10.9509 19.4781 10.1717 19.207 9.38234 18.9715C9.2045 18.9184 9.13798 18.8451 9.13958 18.6511C9.1495 17.4484 9.14457 16.2456 9.14457 15.0429C9.14457 14.9517 9.14457 14.8605 9.14457 14.739C8.23702 14.5214 7.33587 14.3052 6.38944 14.0783C6.38944 15.5264 6.38944 16.9071 6.38944 18.2465C5.41107 18.2465 4.46451 18.2465 3.49192 18.2465C3.49192 16.8997 3.49192 15.5103 3.49192 14.0844C2.50955 14.1965 1.54267 14.2198 0.631146 14.6884C0.574915 14.689 0.553218 14.6886 0.53152 14.6882ZM16.3368 14.0367C16.1526 14.0168 15.9685 13.9969 15.7708 13.9755C15.7708 15.0483 15.7708 16.0814 15.7708 17.1514C16.1771 17.1998 16.581 17.2601 16.987 17.2936C17.703 17.3527 18.4198 17.4153 19.1374 17.437C19.5163 17.4486 19.8844 17.3217 20.1937 17.0918C20.6736 16.7352 20.9189 15.985 20.7593 15.4084C20.635 14.9595 20.3869 14.6372 19.9273 14.4548C19.4022 14.2464 18.8548 14.3175 18.3206 14.2427C17.6774 14.1526 17.0285 14.1036 16.3368 14.0367ZM18.2851 8.07187C17.4513 7.96203 16.6175 7.85219 15.761 7.73935C15.761 7.82867 15.761 7.91901 15.761 8.00935C15.761 8.81881 15.7665 9.62833 15.7574 10.4377C15.7549 10.6571 15.7654 10.8183 16.0527 10.7859C16.1545 10.7745 16.2627 10.8126 16.367 10.8331C17.1769 10.992 17.9921 11.1105 18.8195 11.0752C19.2297 11.0578 19.6227 10.9365 19.8489 10.5642C19.9926 10.3277 20.0933 10.054 20.1589 9.78386C20.2377 9.4598 20.0083 8.74079 19.6421 8.49801C19.2349 8.22804 18.7862 8.15614 18.2851 8.07187ZM3.53787 9.86871C3.53787 11.2349 3.53787 12.6012 3.53787 13.9864C4.47863 13.9864 5.39843 13.9864 6.32819 13.9864C6.32819 12.6577 6.32819 11.3077 6.32819 9.9395C5.41064 9.78087 4.49424 9.72105 3.53787 9.86871ZM7.20347 10.0313C7.84172 10.2023 8.47997 10.3733 9.14431 10.5513C9.14431 9.21014 9.14639 7.92517 9.13765 6.64026C9.13725 6.58134 9.05059 6.49482 8.98538 6.46962C8.75761 6.38163 8.5241 6.30567 8.28824 6.24193C7.66437 6.07334 7.03813 5.91354 6.38783 5.74371C6.38783 7.10778 6.3854 8.41806 6.39498 9.72826C6.39546 9.79402 6.48911 9.89755 6.55814 9.91705C6.75375 9.9723 6.95911 9.99304 7.20347 10.0313ZM9.19469 11.2562C9.19469 12.4064 9.19469 13.5567 9.19469 14.7125C10.0759 14.9979 10.947 15.28 11.8127 15.5603C11.8331 15.5181 11.8398 15.5106 11.8399 15.503C11.8439 14.236 11.8496 12.9689 11.8443 11.7019C11.8441 11.6434 11.757 11.5575 11.6917 11.5317C11.3357 11.3909 10.9752 11.2611 10.6136 11.1349C10.1539 10.9744 9.6917 10.821 9.19469 10.6525C9.19469 10.862 9.19469 11.0344 9.19469 11.2562Z" fill="#ECEDEE"/>
</g>
<defs>
<clipPath id="clip0_5445_18750">
<rect width="24" height="24" fill="white" transform="translate(0.5)"/>
</clipPath>
</defs>
</svg>
