<svg width="25" height="24" viewBox="0 0 25 24" fill="none" xmlns="http://www.w3.org/2000/svg">
<g clip-path="url(#clip0_5445_18746)">
<path d="M0.28152 14.6882C0.279215 13.2832 0.276911 11.8782 0.285398 10.4436C0.305681 10.4053 0.314504 10.3959 0.322662 10.3859C0.802041 10.1488 1.30224 9.97967 1.83723 9.92664C2.2885 9.88191 2.74003 9.83975 3.21194 9.79449C3.21194 8.42505 3.21194 7.03519 3.21194 5.64207C2.22416 5.71043 1.22186 5.70979 0.289522 6.20013C0.281748 6.09755 0.273769 6.04112 0.27374 5.9847C0.273029 4.67335 0.274562 3.36201 0.271 2.05068C0.270652 1.92256 0.29101 1.83585 0.424399 1.77786C1.33128 1.38363 2.28381 1.32438 3.28007 1.36315C3.28007 2.7659 3.28007 4.1556 3.28007 5.49385C4.22759 5.54169 5.14501 5.58802 6.0871 5.6356C6.0871 4.28877 6.0871 2.93161 6.0871 1.53531C7.08552 1.70364 8.00797 2.01904 8.94469 2.33345C8.94469 3.22814 8.94469 4.12113 8.94469 5.01412C8.94469 5.35658 8.94469 5.69903 8.94469 6.04148C8.94469 6.47081 8.94338 6.47449 9.33438 6.61359C10.0706 6.87552 10.8086 7.13275 11.5812 7.40436C11.5812 6.05836 11.5812 4.72108 11.5812 3.3443C12.224 3.52427 12.8233 3.69207 13.4487 3.86716C13.4487 3.19301 13.4487 2.5378 13.4487 1.84791C13.8129 1.93948 14.1477 2.02491 14.4832 2.10764C14.7604 2.176 15.0368 2.24884 15.3166 2.30467C15.466 2.33448 15.5169 2.40011 15.5144 2.55394C15.5056 3.09671 15.5057 3.63982 15.5171 4.1825C15.5187 4.25811 15.5913 4.38638 15.6496 4.39815C16.1466 4.49846 16.6479 4.57793 17.1482 4.66172C17.1783 4.66677 17.2111 4.65542 17.2596 4.64973C17.2596 4.01094 17.2596 3.37858 17.2596 2.69923C17.3978 2.72052 17.5124 2.74491 17.6282 2.75482C18.064 2.79208 18.4997 2.83416 18.9363 2.85471C19.139 2.86426 19.2326 2.91424 19.2253 3.14221C19.209 3.65119 19.2265 4.16117 19.2169 4.67049C19.2134 4.85412 19.2749 4.90032 19.4586 4.92057C20.488 5.03405 21.5065 5.20661 22.3891 5.80184C23.1549 6.31834 23.5133 7.06197 23.5872 7.97619C23.6464 8.7082 23.5609 9.41039 23.3405 10.1077C23.1076 10.8445 22.7201 11.4788 22.1679 12.0154C22.1084 12.0731 22.0432 12.125 21.9562 12.2009C22.0889 12.2544 22.1804 12.2988 22.2764 12.3287C23.3366 12.6594 23.9358 13.3893 24.1338 14.4676C24.3584 15.6912 24.1854 16.8687 23.6173 17.963C22.8673 19.4079 21.6774 20.304 20.0612 20.6028C19.7952 20.652 19.5273 20.6904 19.2297 20.7388C19.2297 21.3672 19.2297 22.022 19.2297 22.6767C18.5669 22.6767 17.9315 22.6767 17.2699 22.6767C17.2699 21.9904 17.2699 21.3351 17.2699 20.6828C16.6749 20.6191 16.1065 20.5583 15.517 20.4953C15.517 21.1565 15.517 21.7885 15.517 22.4905C14.8168 22.3787 14.1448 22.2714 13.4603 22.1621C13.4603 21.4724 13.4603 20.8061 13.4603 20.1382C12.7945 19.9907 12.1368 19.8722 11.4948 19.696C10.7009 19.4781 9.92169 19.207 9.13234 18.9715C8.9545 18.9184 8.88798 18.8451 8.88958 18.6511C8.8995 17.4484 8.89457 16.2456 8.89457 15.0429C8.89457 14.9517 8.89457 14.8605 8.89457 14.739C7.98702 14.5214 7.08587 14.3052 6.13944 14.0783C6.13944 15.5264 6.13944 16.9071 6.13944 18.2465C5.16107 18.2465 4.21451 18.2465 3.24192 18.2465C3.24192 16.8997 3.24192 15.5103 3.24192 14.0844C2.25955 14.1965 1.29267 14.2198 0.381146 14.6884C0.324915 14.689 0.303218 14.6886 0.28152 14.6882ZM16.0868 14.0367C15.9026 14.0168 15.7185 13.9969 15.5208 13.9755C15.5208 15.0483 15.5208 16.0814 15.5208 17.1514C15.9271 17.1998 16.331 17.2601 16.737 17.2936C17.453 17.3527 18.1698 17.4153 18.8874 17.437C19.2663 17.4486 19.6344 17.3217 19.9437 17.0918C20.4236 16.7352 20.6689 15.985 20.5093 15.4084C20.385 14.9595 20.1369 14.6372 19.6773 14.4548C19.1522 14.2464 18.6048 14.3175 18.0706 14.2427C17.4274 14.1526 16.7785 14.1036 16.0868 14.0367ZM18.0351 8.07187C17.2013 7.96203 16.3675 7.85219 15.511 7.73935C15.511 7.82867 15.511 7.91901 15.511 8.00935C15.511 8.81881 15.5165 9.62833 15.5074 10.4377C15.5049 10.6571 15.5154 10.8183 15.8027 10.7859C15.9045 10.7745 16.0127 10.8126 16.117 10.8331C16.9269 10.992 17.7421 11.1105 18.5695 11.0752C18.9797 11.0578 19.3727 10.9365 19.5989 10.5642C19.7426 10.3277 19.8433 10.054 19.9089 9.78386C19.9877 9.4598 19.7583 8.74079 19.3921 8.49801C18.9849 8.22804 18.5362 8.15614 18.0351 8.07187ZM3.28787 9.86871C3.28787 11.2349 3.28787 12.6012 3.28787 13.9864C4.22863 13.9864 5.14843 13.9864 6.07819 13.9864C6.07819 12.6577 6.07819 11.3077 6.07819 9.9395C5.16064 9.78087 4.24424 9.72105 3.28787 9.86871ZM6.95347 10.0313C7.59172 10.2023 8.22997 10.3733 8.89431 10.5513C8.89431 9.21014 8.89639 7.92517 8.88765 6.64026C8.88725 6.58134 8.80059 6.49482 8.73538 6.46962C8.50761 6.38163 8.2741 6.30567 8.03824 6.24193C7.41437 6.07334 6.78813 5.91354 6.13783 5.74371C6.13783 7.10778 6.1354 8.41806 6.14498 9.72826C6.14546 9.79402 6.23911 9.89755 6.30814 9.91705C6.50375 9.9723 6.70911 9.99304 6.95347 10.0313ZM8.94469 11.2562C8.94469 12.4064 8.94469 13.5567 8.94469 14.7125C9.82594 14.9979 10.697 15.28 11.5627 15.5603C11.5831 15.5181 11.5898 15.5106 11.5899 15.503C11.5939 14.236 11.5996 12.9689 11.5943 11.7019C11.5941 11.6434 11.507 11.5575 11.4417 11.5317C11.0857 11.3909 10.7252 11.2611 10.3636 11.1349C9.90389 10.9744 9.4417 10.821 8.94469 10.6525C8.94469 10.862 8.94469 11.0344 8.94469 11.2562Z" fill="#11181C"/>
</g>
<defs>
<clipPath id="clip0_5445_18746">
<rect width="24" height="24" fill="white" transform="translate(0.25)"/>
</clipPath>
</defs>
</svg>
