<svg width="14" height="12" viewBox="0 0 14 12" fill="none" xmlns="http://www.w3.org/2000/svg">
<path d="M13.2 6.24008V9.34312C13.1989 9.53665 13.1497 9.72655 13.0572 9.89428C12.9646 10.062 12.8319 10.2018 12.672 10.3001L10.0939 11.8484C9.93421 11.9476 9.75178 12 9.56588 12C9.37998 12 9.19755 11.9476 9.03789 11.8484L6.45975 10.3001C6.29984 10.2018 6.16713 10.062 6.07459 9.89428C5.98205 9.72655 5.93283 9.53665 5.93176 9.34312V8.47221L7.25175 7.67334V9.18722L9.56175 10.585L11.8718 9.18722V6.39812L9.56175 5.00034L4.14976 8.26899C3.98859 8.36367 3.80673 8.41343 3.62174 8.41343C3.43676 8.41343 3.25492 8.36367 3.09375 8.26899L0.515617 6.71425C0.358182 6.61451 0.228022 6.47416 0.137709 6.30673C0.0473961 6.13931 -2.47403e-05 5.95046 9.68322e-09 5.75838V2.65531C0.00106426 2.46181 0.050292 2.27191 0.142832 2.10417C0.235397 1.93644 0.368107 1.7966 0.527992 1.69838L3.10613 0.150068C3.26614 0.051814 3.44844 0 3.63412 0C3.81982 0 4.00213 0.051814 4.16214 0.150068L6.74025 1.69838C6.90016 1.7966 7.03287 1.93644 7.12541 2.10417C7.21797 2.27191 7.26717 2.46181 7.26826 2.65531V3.52622L5.94 4.31974V2.81445L3.63001 1.41668L1.31999 2.81445V5.60031L3.63001 6.99809L9.042 3.72944C9.20317 3.63476 9.38503 3.58503 9.57001 3.58503C9.755 3.58503 9.93683 3.63476 10.098 3.72944L12.6761 5.2842C12.8351 5.3829 12.9669 5.52278 13.0587 5.69026C13.1505 5.85776 13.1992 6.04717 13.2 6.24008Z" fill="#787F85"/>
</svg>
