<svg width="20" height="21" viewBox="0 0 20 21" fill="none" xmlns="http://www.w3.org/2000/svg">
<path fill-rule="evenodd" clip-rule="evenodd" d="M7.16907 3.66563C7.85588 2.87578 8.86943 2.375 10 2.375C11.1305 2.375 12.144 2.87573 12.8308 3.66551C13.8751 3.59255 14.946 3.95513 15.7455 4.75464C16.545 5.55415 16.9076 6.62507 16.8347 7.66933C17.6243 8.35613 18.125 9.36957 18.125 10.5C18.125 11.6306 17.6242 12.6443 16.8342 13.3311C16.907 14.3751 16.5444 15.4458 15.7451 16.2452C14.9457 17.0446 13.875 17.4072 12.8309 17.3344C12.1441 18.1242 11.1306 18.625 10 18.625C8.8695 18.625 7.856 18.1243 7.1692 17.3345C6.12493 17.4075 5.054 17.0449 4.25448 16.2454C3.45496 15.4459 3.09238 14.3749 3.16534 13.3307C2.37565 12.6439 1.875 11.6304 1.875 10.5C1.875 9.36951 2.37571 8.35602 3.16546 7.66921C3.09258 6.62504 3.45517 5.55423 4.25462 4.75478C5.05406 3.95533 6.12489 3.59274 7.16907 3.66563ZM13.0086 8.98827C13.2092 8.70739 13.1442 8.31705 12.8633 8.11642C12.5824 7.91579 12.192 7.98084 11.9914 8.26173L9.29525 12.0364L7.94194 10.6831C7.69786 10.439 7.30214 10.439 7.05806 10.6831C6.81398 10.9271 6.81398 11.3229 7.05806 11.5669L8.93306 13.4419C9.06297 13.5719 9.24346 13.638 9.42655 13.6229C9.60964 13.6077 9.7768 13.5128 9.88358 13.3633L13.0086 8.98827Z" fill="#1868B7"/>
</svg>
