<svg width="24" height="24" viewBox="0 0 24 24" fill="none" xmlns="http://www.w3.org/2000/svg">
<path fill-rule="evenodd" clip-rule="evenodd" d="M12 24C18.6274 24 24 18.6274 24 12C24 5.37259 18.6274 0 12 0C5.37259 0 0 5.37259 0 12C0 18.6274 5.37259 24 12 24ZM7.48368 15.2962C7.812 15.3995 8.16768 15.4512 8.55072 15.4512C9.43234 15.4512 10.1346 15.2475 10.6574 14.8402C11.1803 14.4267 11.5451 13.8035 11.7518 12.9706C11.8127 12.7091 11.8704 12.4477 11.9251 12.1862C11.9859 11.9248 12.0376 11.6603 12.0802 11.3928C12.1531 10.9794 12.141 10.6176 12.0437 10.3075C11.9525 9.99744 11.7913 9.73598 11.5603 9.5232C11.3353 9.31042 11.0587 9.1523 10.7304 9.04896C10.4082 8.93952 10.0555 8.8848 9.67248 8.8848C8.78482 8.8848 8.0795 9.09758 7.55664 9.5232C7.03378 9.94882 6.672 10.572 6.47136 11.3928C6.41054 11.6603 6.34978 11.9248 6.28896 12.1862C6.23424 12.4477 6.18254 12.7091 6.13392 12.9706C6.06706 13.384 6.0792 13.7458 6.1704 14.0558C6.2677 14.3659 6.42878 14.6243 6.65376 14.831C6.87874 15.0378 7.15536 15.1928 7.48368 15.2962ZM9.53568 13.8461C9.28642 14.0406 8.9976 14.1379 8.66928 14.1379C8.33486 14.1379 8.09472 14.0406 7.9488 13.8461C7.80288 13.6515 7.7664 13.3415 7.83936 12.9158C7.88798 12.6483 7.93666 12.396 7.98528 12.1589C8.04 11.9218 8.10082 11.6755 8.16768 11.4202C8.27102 10.9945 8.4443 10.6845 8.68752 10.4899C8.93678 10.2954 9.2256 10.1981 9.55392 10.1981C9.88224 10.1981 10.1224 10.2954 10.2744 10.4899C10.4264 10.6845 10.4629 10.9945 10.3838 11.4202C10.3413 11.6755 10.2926 11.9218 10.2379 12.1589C10.1893 12.396 10.1315 12.6483 10.0646 12.9158C9.9613 13.3415 9.78494 13.6515 9.53568 13.8461ZM12.3074 15.2962C12.3439 15.3387 12.3925 15.36 12.4533 15.36H13.6936C13.7605 15.36 13.8182 15.3387 13.8669 15.2962C13.9216 15.2536 13.955 15.1989 13.9672 15.132L14.3868 13.1347H15.618C16.4023 13.1347 17.0255 12.9675 17.4876 12.6331C17.9557 12.2987 18.2658 11.7819 18.4178 11.0827C18.4908 10.7301 18.4877 10.4231 18.4087 10.1616C18.3296 9.8941 18.1898 9.67214 17.9892 9.49584C17.7885 9.31954 17.5362 9.18878 17.2322 9.10368C16.9343 9.01858 16.5998 8.976 16.229 8.976H13.8031C13.7423 8.976 13.6845 8.99726 13.6298 9.03984C13.5751 9.08242 13.5416 9.13714 13.5295 9.204L12.2709 15.132C12.2587 15.1989 12.2709 15.2536 12.3074 15.2962ZM15.6727 11.8762H14.6239L14.9796 10.2437H16.074C16.2928 10.2437 16.4539 10.2802 16.5573 10.3531C16.6668 10.4261 16.7306 10.5234 16.7488 10.645C16.7671 10.7665 16.761 10.9064 16.7306 11.0645C16.6698 11.3381 16.5391 11.5417 16.3384 11.6755C16.1438 11.8093 15.9219 11.8762 15.6727 11.8762Z" fill="#151718"/>
</svg>
