<svg width="24" height="24" viewBox="0 0 24 24" fill="none" xmlns="http://www.w3.org/2000/svg">
<path fill-rule="evenodd" clip-rule="evenodd" d="M24 12C24 18.6274 18.6274 24 12 24C5.37258 24 0 18.6274 0 12C0 5.37258 5.37258 0 12 0C18.6274 0 24 5.37258 24 12ZM18.8656 12.6291L15.4706 14.5895V14.59C15.2908 14.6934 15.0678 14.6934 14.888 14.59L13.6111 13.8526V12.0083L15.1791 12.9138L17.5599 11.5394V8.79018L15.1791 7.4158L12.8414 8.76568L12.7983 8.79018V15.7963C12.7983 16.0036 12.687 16.1971 12.5072 16.301L9.11218 18.2609C8.93235 18.3643 8.70893 18.3643 8.52959 18.2609L5.13455 16.3005C4.95522 16.1967 4.84351 16.0031 4.84351 15.7959V11.8756C4.84351 11.6678 4.95473 11.4748 5.13455 11.3709L8.52959 9.41049C8.6173 9.35953 8.71824 9.33258 8.82064 9.33258C8.92305 9.33258 9.02398 9.35953 9.11218 9.41049L10.3915 10.1489V11.9932L8.82113 11.0867L6.44034 12.4611V15.2103L8.82113 16.5847L11.2019 15.2103V8.20417C11.2019 7.99691 11.3131 7.80337 11.493 7.69949L14.888 5.7391C15.0678 5.63571 15.2908 5.63522 15.4706 5.7391L18.8656 7.69949C19.045 7.80337 19.1567 7.99691 19.1567 8.20417V12.1245C19.1567 12.3322 19.0455 12.5253 18.8656 12.6291Z" fill="#ECEDEE"/>
</svg>
