<svg width="22" height="20" viewBox="0 0 22 20" fill="none" xmlns="http://www.w3.org/2000/svg">
<path d="M22 10.4001V15.5719C21.9982 15.8944 21.9162 16.2109 21.7619 16.4905C21.6077 16.77 21.3865 17.003 21.12 17.1668L16.8231 19.7473C16.557 19.9127 16.253 20 15.9431 20C15.6333 20 15.3293 19.9127 15.0631 19.7473L10.7663 17.1668C10.4997 17.003 10.2786 16.77 10.1243 16.4905C9.97009 16.2109 9.88804 15.8944 9.88627 15.5719V14.1203L12.0863 12.7889V15.312L15.9362 17.6417L19.7863 15.312V10.6635L15.9362 8.33391L6.91627 13.7816C6.64765 13.9394 6.34454 14.0224 6.03624 14.0224C5.72794 14.0224 5.42487 13.9394 5.15625 13.7816L0.859362 11.1904C0.59697 11.0242 0.380036 10.7903 0.229515 10.5112C0.0789936 10.2322 -4.12339e-05 9.91743 1.61387e-08 9.59729V4.42551C0.00177377 4.10301 0.08382 3.78651 0.238054 3.50695C0.392329 3.2274 0.613512 2.99434 0.879987 2.83063L5.17688 0.250114C5.44356 0.0863567 5.74741 0 6.05687 0C6.36636 0 6.67021 0.0863567 6.93689 0.250114L11.2337 2.83063C11.5003 2.99434 11.7214 3.2274 11.8757 3.50695C12.03 3.78651 12.112 4.10301 12.1138 4.42551V5.87704L9.90001 7.19956V4.69075L6.05002 2.36113L2.19999 4.69075V9.33385L6.05002 11.6635L15.07 6.21574C15.3386 6.05794 15.6417 5.97505 15.95 5.97505C16.2583 5.97505 16.5614 6.05794 16.83 6.21574L21.1269 8.80701C21.3919 8.97149 21.6115 9.20464 21.7645 9.48376C21.9175 9.76294 21.9986 10.0786 22 10.4001Z" fill="#ECEDEE"/>
</svg>
