<svg width="24" height="24" viewBox="0 0 24 24" fill="none" xmlns="http://www.w3.org/2000/svg">
<mask id="mask0_5422_19124" style="mask-type:luminance" maskUnits="userSpaceOnUse" x="2" y="2" width="20" height="20">
<path d="M21.8573 2.14288H2.14307V21.8571H21.8573V2.14288Z" fill="white"/>
</mask>
<g mask="url(#mask0_5422_19124)">
<path opacity="0.75" d="M9.53581 9.53575H7.07153V7.07147H9.53581V9.53575Z" fill="white"/>
<path d="M9.53581 12H7.07153V9.53577H9.53581V12Z" fill="white"/>
<path d="M9.53581 14.4643H7.07153V12H9.53581V14.4643Z" fill="white"/>
<path opacity="0.75" d="M9.53581 16.9285H7.07153V14.4642H9.53581V16.9285Z" fill="white"/>
<path opacity="0.75" d="M16.9286 9.53575H14.4644V7.07147H16.9286V9.53575Z" fill="white"/>
<path d="M16.9286 12H14.4644V9.53577H16.9286V12Z" fill="white"/>
<path d="M16.9286 14.4643H14.4644V12H16.9286V14.4643Z" fill="white"/>
<path opacity="0.75" d="M16.9286 16.9285H14.4644V14.4642H16.9286V16.9285Z" fill="white"/>
<path d="M12.0002 16.9285H9.53589V14.4642H12.0002V16.9285Z" fill="white"/>
<path d="M14.4643 16.9285H12V14.4642H14.4643V16.9285Z" fill="white"/>
<path d="M12.0002 9.53575H9.53589V7.07147H12.0002V9.53575Z" fill="white"/>
<path d="M14.4643 9.53575H12V7.07147H14.4643V9.53575Z" fill="white"/>
<path d="M12.0002 2.14288H9.53589V4.60716H12.0002V2.14288Z" fill="white" fill-opacity="0.25"/>
<path d="M14.4643 19.3929H12V16.9286H14.4643V19.3929Z" fill="white" fill-opacity="0.75"/>
<path d="M19.393 12H16.9287V14.4643H19.393V12Z" fill="white" fill-opacity="0.75"/>
<path d="M7.07146 14.4643H4.60718V12H7.07146V14.4643Z" fill="white" fill-opacity="0.75"/>
<path d="M14.4643 4.60718H12V7.07146H14.4643V4.60718Z" fill="white" fill-opacity="0.75"/>
<path d="M14.4643 2.14288H12V4.60716H14.4643V2.14288Z" fill="white" fill-opacity="0.25"/>
<path d="M12.0002 21.8571H9.53589V19.3928H12.0002V21.8571Z" fill="white" fill-opacity="0.25"/>
<path d="M14.4643 21.8571H12V19.3928H14.4643V21.8571Z" fill="white" fill-opacity="0.25"/>
<path d="M21.8571 9.53577H19.3928V12H21.8571V9.53577Z" fill="white" fill-opacity="0.25"/>
<path d="M21.8571 12H19.3928V14.4643H21.8571V12Z" fill="white" fill-opacity="0.25"/>
<path d="M4.60734 14.4643H2.14307V12H4.60734V14.4643Z" fill="white" fill-opacity="0.25"/>
<path d="M4.60734 12H2.14307V9.53577H4.60734V12Z" fill="white" fill-opacity="0.25"/>
<path d="M12.0002 4.60718H9.53589V7.07146H12.0002V4.60718Z" fill="white" fill-opacity="0.75"/>
<path d="M12.0002 19.3929H9.53589V16.9286H12.0002V19.3929Z" fill="white" fill-opacity="0.75"/>
<path d="M19.393 9.53577H16.9287V12H19.393V9.53577Z" fill="white" fill-opacity="0.75"/>
<path d="M7.07146 12H4.60718V9.53577H7.07146V12Z" fill="white" fill-opacity="0.75"/>
</g>
</svg>
