<svg id="Layer_1" data-name="Layer 1" xmlns="http://www.w3.org/2000/svg" viewBox="10 35 270 230"><defs><style>.cls-1{fill:#ffffff;}</style></defs><path class="cls-1" d="M62.1,84.94H60.93l-.68,0-3.82-.34-.21-.16c-7.87-6.28-10.53-15.28-7.1-24.07C52.66,51.25,60.23,46.79,71,47.44l.25.05a40.8,40.8,0,0,1,6.67,2.9h0l.21.12c.37.21.73.42,1.08.65s.66.43,1,.65l.1.07c.34.24.67.5,1,.76s.67.56,1,.84.64.62.92.91.61.68.86,1l.15.2c.22.27.43.55.64.85l.15.23c.24.36.41.62.57.89l.23.42-.7.66.82-.45c.1.18.2.36.29.55s.27.57.39.86l.67,1.59-15.31,0-1.52-.07h-.22c-3.26-.17-6.32-.32-8.92,1.83-2,1.66-2.71,3-2.28,4.52a3.93,3.93,0,0,0,.21.55c.15.25.21.35.28.45a5.2,5.2,0,0,0,.36.38L60,69a2.83,2.83,0,0,0,.28.2L60,70.1l.42-.84a2.31,2.31,0,0,0,.36.17l-.14.93.37-.86c.15,0,.29.09.44.12l.29,0,.48.06.78,0h.22c3.47-.07,6.95-.06,10.32,0l5,0-.21,1.51-.86.06.83.12-.17,1-1,.12.91.19-.21.86-1,0,.9.24-.12.42-.15.46-1,0,.89.29-.3.8-1-.11.86.34-.16.39-.18.39-1-.14.84.41-.38.7-.95-.23.81.47-.19.31-.25.37-.92-.32.77.53-.2.28a4,4,0,0,1-.26.32l-.89-.37.72.58-.51.57-.88-.43.68.64-.24.25-.32.28-.81-.53.63.69-.29.25-.33.25-.8-.56.57.74-.63.43-.76-.62.5.78-.27.17-.43.23-.7-.68.45.82-.28.14-.57.26-.57-.77.39.85-.25.11c-.34.14-.69.26-1.05.39s-1,.3-1.5.42l-.67.14-.84.16-.93.11-.56.07-.56,0-.92,0Zm-.55-1.87h.27L63.73,83l.46-.06.9-.1.73-.15.63-.12c.44-.11.89-.23,1.34-.38s.63-.22.94-.35l.3-.13.58-.26.49-.26a3.9,3.9,0,0,0,.35-.19l3-2.48,1.8-2.88,1.22-4H73.56c-3.35,0-6.82,0-10.26,0h-.61l-.19-.94,0,.93-.37,0-.56-.08-.43-.06c-.22,0-.41-.11-.61-.17l-.32-.1a5.05,5.05,0,0,1-.53-.24l-.3-.14a5.85,5.85,0,0,1-.48-.34l-.25-.18a4.32,4.32,0,0,1-.42-.44,1.31,1.31,0,0,1-.2-.23,3.72,3.72,0,0,1-.33-.51l-.14-.23A5.48,5.48,0,0,1,57.2,68c-1-3.3,1.93-5.69,2.88-6.47,3.16-2.62,6.9-2.43,10.2-2.26l0,.93,0-.93h.22c.48,0,1,.05,1.45.06l12.44,0-.14-.25-.32-.59c-.14-.23-.29-.46-.44-.69l-.2-.31-.57-.76L83.3,56l-.72.58c-.22-.27-.45-.53-.68-.78s-.6-.61-.86-.86-.61-.55-.9-.79-.57-.45-.85-.65l-.16-.12c-.26-.18-.58-.4-.9-.6l-.8-.49h0l-.25-.16a38.44,38.44,0,0,0-6.39-2.79c-9.83-.57-16.7,3.49-19.91,11.71-3.08,7.92-.72,16,6.32,21.77Z"/><path class="cls-1" d="M72.36,61.1l.28.23.26.21.27.23.26.23.24.22.29.26h0a13.44,13.44,0,0,1,2.21,2.7h0c.12.19.23.39.34.6v0c.1.2.2.41.28.62a.08.08,0,0,1,0,0c.09.2.16.41.24.62a.14.14,0,0,0,0,.07c.07.2.12.41.18.62l0,.11.12.6,0,.17.06.57a1.94,1.94,0,0,1,0,.24c0,.17,0,.35,0,.52v.26H70.7c-2.47,0-5,0-7.43,0-2.68,0-4.24-.81-4.77-2.64-.64-2.2,1.09-3.94,2.44-5.06.23-.19.46-.35.69-.51l.18-.12a7.58,7.58,0,0,1,.67-.38l.05,0a7.71,7.71,0,0,1,.73-.32l.2-.07q.33-.12.66-.21l.09,0,.76-.16.21,0a6.57,6.57,0,0,1,.66-.09l.12,0,.77,0h1l1.19,0H69l1.23.06c.54,0,1.08.06,1.62.07l.24.19Z"/><path class="cls-1" d="M63.09,71.21c-3,0-4.85-1.11-5.49-3.31-.88-3,1.85-5.3,2.75-6a8,8,0,0,1,.77-.57l.2-.13a7.94,7.94,0,0,1,.75-.42c.31-.16.59-.27.86-.38l.23-.08.72-.23c.37-.1.65-.15.92-.21l.23,0,.71-.1,1-.07h.23c.26,0,.53,0,.79,0l1.25,0,1.31.06,1.6.07h.3L73.69,61l-.42.87.6-.71.34.3-.47.83.63-.69.23.21A14.37,14.37,0,0,1,77,64.71c.13.22.25.44.37.67s.23.47.32.69.2.5.28.73.16.53.22.76a5.79,5.79,0,0,1,.16.79l0,.18c0,.2,0,.42.07.63l0,.26c0,.19,0,.38,0,.57v1.2l-7.76,0c-2.47,0-4.95,0-7.42,0Zm3.64-10.64,0,.93-.73,0c-.32,0-.52.06-.72.1l-.21,0-.68.15a6.83,6.83,0,0,0-.67.21,7.17,7.17,0,0,0-.83.34,7.07,7.07,0,0,0-.63.36l-.16.11a6.49,6.49,0,0,0-.62.45c-1.85,1.53-2.51,2.79-2.14,4.08.28.94,1,2.08,3.87,2,2.47,0,5,0,7.44,0l6.54,0,.27-.09-.93.08a4.43,4.43,0,0,0-.06-.51c0-.33-.09-.51-.13-.69s-.12-.47-.18-.65-.16-.45-.23-.63-.19-.42-.28-.6-.21-.39-.32-.56a11.85,11.85,0,0,0-2.06-2.51l-1.81-1.55-1.33-.06L69,61.5c-.85,0-1.55,0-2,0Z"/><path class="cls-1" d="M74.88,88.88a56,56,0,0,1-11.3-1,13.86,13.86,0,0,1-6.92-3.08l-2.07-1.91,2.81.3.11.7.08-.08.06-.59,2.56.2.73,0,.56,0,.19.93,0-.93H62c.32,0,.64,0,1,0l.55,0q.48,0,.93-.09l.55-.07q.49-.08,1-.18l.47-.1c.48-.11,1-.24,1.44-.4.33-.11.66-.22,1-.35,4.66-1.89,7.31-5.71,8.12-11.67l0-.17v-.14c0-.2,0-.4,0-.59l.91-.33L77,69.4c0-.22,0-.36-.05-.5l-1.27-3.52-2.37-2.79-1.39-1.17-2-1.64,16.56-.05.28.4.29.45.17.29c.09.13.17.26.24.38s.16.32.23.49l.15.32a2.64,2.64,0,0,1,.18.38c.07.17.13.34.19.51l.11.3c0,.13.09.26.13.39a4.84,4.84,0,0,1,.14.51l.18.69c0,.18.06.34.09.51L89,66c0,.19,0,.38.07.57l-.89.43.93-.12,0,.28c0,.26,0,.51,0,.76l-.92.26.93-.07v.19c0,.37,0,.73,0,1.09,0,4.25,0,8.56,0,12.74v6.58l-1,0c-2.61-.07-5.27,0-7.85.06l-.1-.93.06-.93c2.29-.06,4.65-.12,7-.08V82.17c0-4.17,0-8.48,0-12.71l0-1,.91-.33-.93,0c0-.31,0-.54,0-.78l0-.4c0-.32-.05-.49-.07-.65l-.08-.46c-.06-.33-.08-.47-.11-.61l-.13-.47c-.07-.31-.11-.45-.15-.58l-.17-.47a5.76,5.76,0,0,0-.2-.56,2.39,2.39,0,0,0-.13-.28l-.09-.2c-.14-.29-.19-.41-.26-.53a2.61,2.61,0,0,0-.17-.28l-.11-.18-.06-.09L75,61.63l2,2.42,1.12,2.13.15.4.12.39.12.41.1.41c0,.15,0,.3.08.45l.07.42c0,.17,0,.35,0,.52v.15H79l-.16,2.28h-.12c-1,6.23-4,10.27-9.14,12.34-.35.14-.72.28-1.09.4-.54.18-1.07.32-1.61.45l-.38.08c-.5.1-.86.17-1.22.22l-.61.08c-.33,0-.66.08-1,.1l-.6,0-1,0h-.88a19.9,19.9,0,0,0,2.77.74c5.4,1.11,11,1,16.43.83h0l0,1.87C78.59,88.83,76.74,88.88,74.88,88.88Z"/><path class="cls-1" d="M118.08,248.87h-8.57a14.7,14.7,0,0,1-3.71-.63l-.34-.09c-11.13-2.69-18-12-17.89-24.2.27-32.84.23-66.24.19-98.54,0-12.41,0-24.71,0-37V82.75c0-4.3,0-8.74,0-13.1a15.75,15.75,0,0,0-1.59-7.53,7.79,7.79,0,0,0-.63-1l-.1-.19c-.16-.41-.33-.81-.51-1.19l-.2-.38c-.15-.29-.27-.52-.39-.73L84,58.19c-.17-.28-.28-.46-.39-.62l-.37-.51q-.17-.24-.33-.45l-.36-.43c-.13-.16-.26-.31-.4-.46l-.33-.34-.48-.49L81,54.6l-.54-.47-.41-.34-.49-.38-.43-.31-.51-.34-4.09-2.21-2.76-1.11-4.24-1.55,4.86-.29c1.84-.1,3.72-.11,5.57-.11l30.75,0h4.48c30.05,0,61.12.06,91.68-.13h0a22.78,22.78,0,0,1,16.33,6.93,23.76,23.76,0,0,1,7,16.73c-.28,33.13-.21,66.82-.15,99.4v.41q0,18.5.06,37v.91l-2.54,0c-1.4,0-2.68.05-4,.05l-101.77,0-.55,0a11.9,11.9,0,0,1-1.2-.07c-6.3-.88-11.94,1.23-15.5,5.81l-.22.3a14.72,14.72,0,0,0-1.06,1.65,16.3,16.3,0,0,0-.9,1.77,16.74,16.74,0,0,0,4.89,20.09l.58.54-.17.21.19-.19.37.36a10.64,10.64,0,0,0,6.58,2.89c.69.07,1.37.13,2.06.17l.95,0c.37,0,.75.05,1.13.06,1.45,0,2.82.05,4.16.06h.37l2.76,0,2.08,0L125,244.17a4.91,4.91,0,0,1-.63.57c-.31.23-.53.37-.75.51s-.58.31-.81.41L122,246l-.73.34-.28.13-.59-.74.42.83-.28.15-.67-.68.49.8-.24.14-.72-.61.57.73-.83-.53.62.69-.8-.51.64.67-.18.17-.81-.47.68.64-.33.51-.25.53ZM87,60.12c.25.37.48.73.68,1.1a17.49,17.49,0,0,1,1.81,8.4c.06,4.38.06,8.83,0,13.13V88.4q0,18.45,0,36.89c0,32.42.09,65.82-.19,98.67-.09,11.33,6.22,19.9,16.48,22.38l.35.09a13.07,13.07,0,0,0,3.25.57h8l0-.07h0l.2-.27.25-.31a2.72,2.72,0,0,1,.24-.24l.77-.65.27-.18,1.16-.62.52-.24c-1.3,0-2.63,0-4-.06-.48,0-.87,0-1.26-.06l-1,0c-.71,0-1.43-.11-2.14-.18a12.42,12.42,0,0,1-7.69-3.42l-.89-.84a18.53,18.53,0,0,1-5.37-22.23,21.77,21.77,0,0,1,2.17-3.79l.25-.33c4-5.12,10.25-7.49,17.23-6.52a8.06,8.06,0,0,0,1,.06l.55,0,101.73,0c1.25,0,2.53,0,3.76,0l.86,0q0-18-.05-36.09v-.41c-.07-32.58-.13-66.28.14-99.41a21.88,21.88,0,0,0-6.45-15.41A20.89,20.89,0,0,0,205,49.24c-30.68.19-61.76.16-91.81.13h-4.49l-32.33,0,1.14.58.57.32.51.29.56.35.5.31.54.38.48.34.54.41.45.37.52.45.43.4c.16.15.33.32.49.49l.41.42L84,55l-.58.75.71-.6.27.32.38.51-.59.78.75-.55.24.33c.13.19.25.39.37.59l.36.57.39.75-.7.66.82-.44.14.27C86.7,59.31,86.88,59.71,87,60.12Z"/><path class="cls-1" d="M125.47,244.05h-.35c-1.16,0-2.33,0-3.49,0-1.38,0-2.76,0-4.13-.06l-1.13-.05c-1.1,0-2.19-.12-3.27-.23q-.52-.06-1-.15l-.23,0-.75-.16-.23-.06,0-1-.24.9-.48-.14-.24-.08-.65-.23-.34-.14-.52-.24-.32-.16-.48-.27-.33-.21c-.15-.09-.29-.19-.44-.3l-.87-.71-1.71-1.58,2.33,0H108a18.62,18.62,0,0,0,7.17-.94,13.4,13.4,0,0,0,1.77-.9,10.57,10.57,0,0,0,5-7.93h0a14.92,14.92,0,0,0,.16-1.93c.44-2.14-.58-3.59-1.65-5.12l-.57-.82c-.12-.17-.22-.33-.32-.49l-.11-.19c-.13-.22-.22-.38-.3-.54l-.8-1.91h1.38l11-.18.28.46c.09.15.17.3.25.45l.22.4c.12.22.24.44.35.66s.16.36.24.54l.19.44c.09.21.18.41.25.62s.15.42.21.63l.14.45c.06.18.12.37.17.56s.13.54.18.81l.09.4.09.45c.07.42.11.85.15,1.28l0,.39a20,20,0,0,1-5.18,14.53c-.1.12-.21.22-.31.33l-.34.36q-.3.35-.63.66c-.45.44-.91.86-1.4,1.27Zm-15.68-3.12.17.08.44.16,1,.29.74.16.13,1,.15-.91c.3,0,.6.09.91.12,1,.12,2.09.18,3.15.23l1,0c1.47.05,2.83.06,4.17.06l3.19,0c.35-.31.7-.63,1-.95s.38-.39.56-.59L127,240a18.23,18.23,0,0,0,4.73-13.17l0-.35c0-.38-.08-.77-.14-1.15,0-.11,0-.22-.07-.33l-.09-.45c0-.24-.1-.47-.16-.71s-.09-.3-.14-.45l-.16-.49c0-.17-.1-.35-.16-.52s-.14-.34-.22-.52l-.21-.48c-.06-.15-.11-.29-.18-.44l-.31-.56-.18-.34-8.44.14.15.25-.65.7.77-.52.43.61c1.2,1.71,2.56,3.64,2,6.41a14.33,14.33,0,0,1-.16,2,12.49,12.49,0,0,1-5.83,9.25,13.07,13.07,0,0,1-2,1A16.49,16.49,0,0,1,109.79,240.93Zm10.82-20.77-.28.3.49-.3Z"/><path class="cls-1" d="M122.63,227.18h-3l-8.83,0h-.27c-1.42,0-2.77,0-3.25-1.67a3.91,3.91,0,0,1,1.16-4c.22-.23.44-.44.66-.64a1.92,1.92,0,0,1,.22-.18c.16-.14.32-.26.48-.38l.24-.17c.18-.12.37-.23.56-.34l.15-.09a6.51,6.51,0,0,1,.71-.33l.27-.1.49-.17.31-.08.49-.11.3-.06q.36-.06.75-.09l.32,0,.51,0h.36l.59,0,.29,0,.91.09h.1l1,.14h0l1.07.2c.05.14.11.26.17.39s.09.2.13.3.17.3.26.45a2.15,2.15,0,0,0,.14.26c.1.17.21.33.32.49l.12.2.46.66q.22.3.42.6l.09.13c.11.16.21.32.31.48l.08.12.28.49.06.11c.09.18.17.35.25.53l0,.1a5.44,5.44,0,0,1,.19.57l0,.12a4.82,4.82,0,0,1,.1.57,1.09,1.09,0,0,1,0,.18,4.87,4.87,0,0,1,0,.54c0,.11,0,.23,0,.34S122.64,227.07,122.63,227.18Z"/><path class="cls-1" d="M123.41,228.12l-3.77,0-8.84,0h-.26c-1.46,0-3.47,0-4.14-2.35a4.81,4.81,0,0,1,1.37-4.84c.24-.25.48-.48.72-.7l.24-.2c.18-.15.35-.28.54-.42l.27-.19c.19-.13.4-.25.61-.37l.18-.1a6.28,6.28,0,0,1,.79-.37l.21-.09.63-.21.35-.1.54-.12.33-.06c.27,0,.54-.08.82-.1h.22l.68,0h.38l.63,0,.31,0,1,.09,1.1.16,1.15.22.5.1.39,1c.12.25.18.37.25.49L122,222c.2.31.32.47.42.64s.3.5.4.68.25.51.34.72.2.55.26.77a7.23,7.23,0,0,1,.16.83v.19a5.3,5.3,0,0,1,0,.68c0,.11,0,.23,0,.34a3.62,3.62,0,0,1-.06.44Zm-11.94-8.74.35.86c-.21.09-.42.18-.62.29s-.47.27-.63.38l-.18.13-.47.36-.2.17a8,8,0,0,0-.59.58,3,3,0,0,0-.94,3c.25.88.7,1,2.36,1h.26l8.83,0h2.13a1.48,1.48,0,0,0,0-.21,2.83,2.83,0,0,0-.09-.6,3.9,3.9,0,0,0-.18-.57,4.2,4.2,0,0,0-.24-.54c-.13-.25-.22-.4-.31-.54l-1.9-2.86-.33-.6-.11-.24.05,0-.64-.12-1-.15c-.4,0-.68-.07-1-.09l-.26,0-.57,0h-.32l-.48,0-.37-.91.08.92c-.23,0-.46.05-.68.09h0l-.25.05-.45.1-.28.08-.43.14Zm7.69.21v.07l.21-.16Z"/><path class="cls-1" d="M105.82,240.55l-.52-.47h0l-.62-.58a18.06,18.06,0,0,1-5.32-21.78c.19-.44.4-.88.63-1.3l.14-.25c.24-.44.4-.71.57-1l.21-.32c.25-.37.41-.61.58-.84l.34-.44c.18-.22.36-.44.54-.64l.36-.41c.2-.21.4-.41.61-.61l.37-.35c.22-.2.46-.4.69-.59l.35-.29.92-.65.18-.12c.38-.25.78-.48,1.18-.7l.21-.11c.33-.17.67-.33,1-.48l.29-.12c.4-.17.7-.28,1-.39l.35-.11c.4-.13.68-.21,1-.29l.5-.12c.29-.07.59-.13.88-.18l.52-.09.93-.11.48,0c.36,0,.71,0,1.07-.05h.4c.36,0,.73,0,1.1,0h.44c.5,0,1,.09,1.55.16a9.24,9.24,0,0,0,1,.07l1,0,.24.76-.82.56.89-.29-.79.53.88-.34.28.37.89.59.73.34c.46.21.91.45,1.34.7l.27.17-.27.93.49-.79c.26.16.51.32.75.49l.28.22-.44.84.64-.69c.22.17.45.35.66.54l.26.24.22.22c.2.18.39.37.57.56l.23.28-.55.79.71-.61c.18.22.37.44.54.67a2.73,2.73,0,0,1,.21.3l.16.23c.15.22.31.45.46.69s.15.27.22.4l.09.17c.18.32.3.53.41.75s.21.46.31.69l-.63.45v0l.71-.3.67,1.65-12.08.2-.1,0c-4.23-.87-7.62-.85-10.41,2.12a3.38,3.38,0,0,0-1,3.46c.33,1.17,1.09,1.29,2.76,1.3h.26l8.59,0h4.15l-.28,3.31-1,0,.92.16-.17.76c-.07.31-.11.44-.14.57l-.12.36-1-.06.88.28-.1.32c0,.13-.1.26-.16.39l-.35.8-.95-.18.84.4-.32.6-.93-.27.8.47-.16.27c-.06.1-.14.2-.21.3l-.89-.35.77.53-.43.55-.85-.44.72.6-.21.24c-.08.1-.17.18-.25.27l-.82-.49.67.64c-.08.08-.15.16-.24.24l-.31.28-.66.54-.76-.6.56.74-.25.19a3.32,3.32,0,0,1-.37.23l-.69-.66.51.78-.24.15c-.15.09-.31.17-.47.25l-.37.2c-.27.14-.57.27-.87.39a19.75,19.75,0,0,1-7.72,1.06h-2.21Zm.37-29.73.52.78c-.28.19-.56.38-.82.59l-.18.14c-.34.28-.55.45-.75.63l-.26.25c-.25.24-.43.42-.6.61l-.33.35-.48.58-.3.39c-.16.21-.3.42-.45.64l-.27.4c-.15.24-.29.49-.43.75l-.2.36c-.2.37-.39.77-.57,1.17a16.26,16.26,0,0,0,4.83,19.63l.63.58H108a18.34,18.34,0,0,0,7-.91c.26-.11.52-.22.76-.35l.59.75-.32-.89.46-.24,3-2.72,1.49-3,.55-2.76H119.4l-8.6,0h-.26c-1.51,0-3.79,0-4.54-2.65a5.22,5.22,0,0,1,1.46-5.25c3.57-3.79,8.08-3.5,12-2.68l9.12-.15-.24-.44-.34-.62c-.13-.21-.27-.4-.41-.6l-.32-.48c-.15-.19-.31-.38-.47-.56l-.34-.42-.48-.47-.43-.41c-.18-.16-.37-.31-.57-.46l-.42-.33c-.21-.16-.43-.29-.65-.43l-.44-.28c-.38-.22-.78-.43-1.19-.62l-1.67-.88-.27-.21-.16-.14-.26-.27-.13-.18a3.13,3.13,0,0,1-.22-.32l-.11-.22-.08-.17c-.31,0-.63,0-.93-.07-.49-.07-1-.12-1.43-.15h-.23l-1.18,0h-.36l-1,0-.32,0-1,.11-.46.08-.79.17-.45.1-.78.23-.41.14c-.27.09-.53.19-.79.3l-.35.14c-.31.14-.61.28-.9.44l-.64-.73.44.82c-.36.19-.71.4-1,.62Z"/><path class="cls-1" d="M233.05,248.87H117.38l.8-1.4a3.51,3.51,0,0,1,.26-.4,2,2,0,0,1,.22-.29c0-.07.12-.14.19-.22l.24-.24,1-.75.68.68-.46-.81,2.15-1a6,6,0,0,0,1.91-1.23,3.47,3.47,0,0,0,.25-.29l.15-.16c.47-.39.92-.8,1.35-1.21,6-5.9,7.74-14.07,4.41-20.85a13.07,13.07,0,0,0-.78-1.42,14.11,14.11,0,0,0-5.29-6.9,13.91,13.91,0,0,0-2-1.12l-1.58-.83a2.68,2.68,0,0,1-.23-.17l-.5-.53a2,2,0,0,1-.18-.26l-.13-.24a2.08,2.08,0,0,1-.12-.3l-.07-.25-.23-1.11,1.11-.15,102.45,0c1.27,0,2.56,0,3.81,0l2,0c8.68.37,15.29,4.11,18.66,10.53a19.29,19.29,0,0,1,2.05,8.88v1.22a20.67,20.67,0,0,1-10.3,18.26h0a34.28,34.28,0,0,1-6,2.63ZM121.34,247h111.4a30.8,30.8,0,0,0,5.57-2.44h0a18.79,18.79,0,0,0,9.36-16.62v-1.22a17.39,17.39,0,0,0-1.83-8c-3.05-5.8-9.1-9.19-17-9.53l-1.8,0c-1.39,0-2.69.06-4,.06l-100.36,0,.62.29a16,16,0,0,1,2.23,1.26,15.79,15.79,0,0,1,5.92,7.63,12.51,12.51,0,0,1,.79,1.42c3.68,7.52,1.82,16.53-4.76,23-.47.46-.93.88-1.41,1.28-.1.13-.21.25-.31.37a7.79,7.79,0,0,1-2.49,1.64l-1.59.72-.6-.74.43.83Zm-.38,0h.22l-.61-.63Z"/><path class="cls-1" d="M113.51,142.82c-2.13,0-3.43-.26-4.33-.87a3.94,3.94,0,0,1-1.49-3.53,3.6,3.6,0,0,1,1.43-3.25,3,3,0,0,1,.4-.23,9.2,9.2,0,0,1,4.07-.63c33.79.08,64.88.07,95.12,0,2.16,0,3.46.27,4.34.87a3.78,3.78,0,0,1,1.44,3.38A3.85,3.85,0,0,1,213,142h0c-.9.61-2.17.83-4.31.85-11.73-.08-23.58-.07-35-.06H160.79l-21.32,0c-8.54,0-17.22,0-25.79.07Zm.15-6.65a8.26,8.26,0,0,0-3.31.43l-.18.11c-.29.19-.62.57-.62,1.71,0,1.35.34,1.76.67,2a6.66,6.66,0,0,0,3.45.55c8.57-.07,17.24-.08,25.8-.07l21.32,0h12.89c11.46,0,23.32,0,35.06.06a6.77,6.77,0,0,0,3.25-.53c.31-.21.64-.61.64-1.88s-.32-1.63-.63-1.84a6.37,6.37,0,0,0-3.29-.54C178.47,136.25,147.38,136.25,113.66,136.17Z"/><path class="cls-1" d="M113.33,179.72c-2.08,0-3.35-.26-4.22-.86a3.78,3.78,0,0,1-1.42-3.37c0-3.16,1.57-4.33,5.63-4.33h.06c31.77.09,63.89.09,95.46,0,4.11,0,5.57,1.14,5.65,4.35a3.66,3.66,0,0,1-1.39,3.34c-.93.64-2.27.86-4.52.87-11.64-.08-23.41-.07-34.78-.05H139.69c-8.66,0-17.46,0-26.15.06Zm0-7.63V173c-3.73,0-3.74.94-3.76,2.49,0,1.22.29,1.6.6,1.82a6.65,6.65,0,0,0,3.37.53c8.7-.06,17.5-.06,26.16-.07H173.8c11.38,0,23.14,0,34.8.06,1.78,0,2.88-.16,3.43-.54.29-.2.62-.58.59-1.77,0-1.63-.05-2.53-3.71-2.53-31.64.09-63.76.09-95.54,0Z"/><path class="cls-1" d="M113.29,161.24a7.38,7.38,0,0,1-4.18-.86,3.64,3.64,0,0,1-1.42-3.34c0-3.14,1.57-4.3,5.62-4.3h.06c31.59.09,63.71.09,95.46,0,4.13,0,5.59,1.13,5.66,4.31a3.62,3.62,0,0,1-1.41,3.33c-.91.62-2.26.89-4.49.86-12-.08-24.29-.06-35.13-.05H148c-11.27,0-22.92,0-34.46.05Zm0-7.57v.93c-3.72,0-3.73.93-3.75,2.47,0,1.19.31,1.57.6,1.77a6.35,6.35,0,0,0,3.38.54c11.54-.08,23.2-.07,34.47-.06q12.72,0,25.45,0c10.84,0,23.13,0,35.15.06a7.12,7.12,0,0,0,3.42-.54c.29-.2.62-.58.59-1.75,0-1.61-.05-2.49-3.72-2.49-31.82.09-63.94.09-95.54,0Z"/><path class="cls-1" d="M113.33,198.14c-2,0-3.36-.26-4.23-.86a3.66,3.66,0,0,1-1.41-3.34c0-3.14,1.57-4.3,5.62-4.3,32,.08,64,.08,95.52,0,4.13,0,5.59,1.13,5.66,4.31a3.64,3.64,0,0,1-1.4,3.33h0a6.87,6.87,0,0,1-3.75.86h-.75c-11.42-.07-23-.06-34.27,0h-26c-11.38,0-23.15,0-34.79,0Zm0-6.64c-3.76,0-3.78.93-3.8,2.47,0,1.2.31,1.58.6,1.78a6.76,6.76,0,0,0,3.38.53c11.66-.09,23.43-.07,34.81-.06h26c11.24,0,22.86,0,34.29.06h.69a5.41,5.41,0,0,0,2.73-.53c.29-.2.62-.57.59-1.75,0-1.6-.05-2.49-3.73-2.49C177.3,191.59,145.24,191.59,113.36,191.5Z"/><path class="cls-1" d="M113.35,124.39a7.58,7.58,0,0,1-4.25-.86,3.67,3.67,0,0,1-1.41-3.34c0-3.14,1.57-4.3,5.62-4.3,32,.08,64,.08,95.52,0,4.13,0,5.59,1.13,5.66,4.32a3.64,3.64,0,0,1-1.4,3.33h0a6.79,6.79,0,0,1-3.75.85h-.75c-11.65-.09-23.42-.07-34.8-.06q-12.72,0-25.44,0c-11.38,0-23.15,0-34.79.06Zm0-6.64c-3.76,0-3.78.93-3.8,2.47,0,1.2.31,1.58.6,1.78a7.13,7.13,0,0,0,3.38.53c11.66-.09,23.43-.07,34.81-.06q12.72,0,25.44,0c11.38,0,23.15,0,34.82.06h.69A5.41,5.41,0,0,0,212,122h0c.29-.2.62-.57.59-1.75,0-1.61-.05-2.49-3.73-2.49C177.3,117.84,145.24,117.84,113.36,117.75Z"/><path class="cls-1" d="M208.86,106h-.27c-11.65-.08-23.42-.07-34.8,0q-12.72,0-25.44,0c-11.38,0-23.14,0-34.79,0-2.2,0-3.56-.25-4.46-.86a3.66,3.66,0,0,1-1.41-3.34c0-3.14,1.57-4.3,5.62-4.3,32,.08,64,.09,95.52,0,4.13,0,5.59,1.13,5.66,4.31a3.64,3.64,0,0,1-1.4,3.33h0a7,7,0,0,1-3.75.86ZM186.64,104c7.28,0,14.65,0,22,.07h.69a5.41,5.41,0,0,0,2.73-.53h0c.29-.2.62-.57.59-1.75,0-1.61-.05-2.49-3.73-2.49-31.59.09-63.65.09-95.53,0-3.76,0-3.78.93-3.8,2.47,0,1.2.31,1.58.59,1.77a6.65,6.65,0,0,0,3.39.54c11.66-.09,23.43-.07,34.81-.06q12.72,0,25.44,0Z"/><path class="cls-1" d="M208.87,87.55h-.28c-11.42-.08-23-.06-34.27,0h-26.5c-11.23,0-22.85,0-34.26,0-2.2,0-3.56-.24-4.46-.86a3.65,3.65,0,0,1-1.41-3.34c0-3.14,1.57-4.3,5.62-4.3,32,.09,64,.08,95.52,0,4.13,0,5.59,1.13,5.66,4.31a3.64,3.64,0,0,1-1.4,3.33,6.87,6.87,0,0,1-3.75.86Zm-22.65-1.93c7.44,0,14.95,0,22.39.07h.69a5.38,5.38,0,0,0,2.73-.53h0c.29-.2.62-.57.59-1.75,0-1.6-.05-2.49-3.73-2.49-31.59.09-63.65.09-95.53,0-3.76,0-3.78.93-3.8,2.47,0,1.2.31,1.58.59,1.78a6.79,6.79,0,0,0,3.39.53c11.43-.08,23-.07,34.28-.06h.53q12.72,0,25.44,0h12.43Z"/></svg>