<svg width="46" height="36" viewBox="0 0 46 36" fill="none" xmlns="http://www.w3.org/2000/svg">
<path d="M0.5 5.5C0.5 2.76562 2.6875 0.5 5.5 0.5H40.5C43.2344 0.5 45.5 2.76562 45.5 5.5V30.5C45.5 33.3125 43.2344 35.5 40.5 35.5H5.5C2.6875 35.5 0.5 33.3125 0.5 30.5V5.5ZM13 18C13 16.6719 11.8281 15.5 10.5 15.5C9.09375 15.5 8 16.6719 8 18C8 19.4062 9.09375 20.5 10.5 20.5C11.8281 20.5 13 19.4062 13 18ZM13 10.5C13 9.17188 11.8281 8 10.5 8C9.09375 8 8 9.17188 8 10.5C8 11.9062 9.09375 13 10.5 13C11.8281 13 13 11.9062 13 10.5ZM13 25.5C13 24.1719 11.8281 23 10.5 23C9.09375 23 8 24.1719 8 25.5C8 26.9062 9.09375 28 10.5 28C11.8281 28 13 26.9062 13 25.5ZM18 8.625C16.9062 8.625 16.125 9.48438 16.125 10.5C16.125 11.5938 16.9062 12.375 18 12.375H35.5C36.5156 12.375 37.375 11.5938 37.375 10.5C37.375 9.48438 36.5156 8.625 35.5 8.625H18ZM18 16.125C16.9062 16.125 16.125 16.9844 16.125 18C16.125 19.0938 16.9062 19.875 18 19.875H35.5C36.5156 19.875 37.375 19.0938 37.375 18C37.375 16.9844 36.5156 16.125 35.5 16.125H18ZM18 23.625C16.9062 23.625 16.125 24.4844 16.125 25.5C16.125 26.5938 16.9062 27.375 18 27.375H35.5C36.5156 27.375 37.375 26.5938 37.375 25.5C37.375 24.4844 36.5156 23.625 35.5 23.625H18Z" fill="#697177"/>
</svg>
