<svg xmlns="http://www.w3.org/2000/svg" xmlns:xlink="http://www.w3.org/1999/xlink" width="1200" zoomAndPan="magnify" viewBox="0 0 900 412.499988" height="550" preserveAspectRatio="xMidYMid meet" version="1.0"><defs><g/></defs><g fill="#ffffff" fill-opacity="1"><g transform="translate(0.544808, 303.756788)"><g><path d="M 108.261719 -161.945312 C 110.351562 -166.71875 113.628906 -168.804688 118.402344 -168.804688 C 123.175781 -168.804688 126.457031 -166.71875 128.246094 -161.945312 L 189.382812 0 L 228.453125 0 L 160.453125 -178.945312 C 153.296875 -197.734375 139.578125 -204.894531 118.699219 -204.894531 C 97.527344 -204.894531 83.804688 -197.734375 76.351562 -178.945312 L 5.667969 0 L 44.4375 0 Z M 108.261719 -161.945312 "/></g></g></g><g fill="#ffffff" fill-opacity="1"><g transform="translate(234.367322, 303.756788)"><g><path d="M 22.964844 -201.3125 L 22.964844 -64.121094 C 22.964844 -21.773438 45.035156 0 87.980469 0 L 130.332031 0 C 173.28125 0 195.648438 -21.773438 195.648438 -64.121094 L 195.648438 -201.3125 L 161.050781 -201.3125 L 161.050781 -66.804688 C 161.050781 -46.824219 150.613281 -35.191406 127.945312 -35.191406 L 92.15625 -35.191406 C 68.894531 -35.191406 58.753906 -46.824219 58.753906 -66.804688 L 58.753906 -201.3125 Z M 22.964844 -201.3125 "/></g></g></g><g fill="#ffffff" fill-opacity="1"><g transform="translate(452.681154, 303.756788)"><g><path d="M 23.859375 -201.3125 L 23.859375 -166.121094 L 134.210938 -166.121094 C 153.59375 -166.121094 162.246094 -153.894531 162.246094 -139.578125 C 162.246094 -125.261719 154.191406 -111.542969 134.210938 -111.542969 L 55.773438 -111.542969 C 33.703125 -111.542969 24.15625 -102.296875 24.15625 -79.632812 L 24.15625 0 L 59.351562 0 L 59.351562 -72.769531 C 59.351562 -76.351562 61.140625 -77.839844 64.421875 -77.839844 L 116.910156 -77.839844 L 162.839844 0 L 201.910156 0 L 155.085938 -80.527344 C 185.804688 -89.175781 197.734375 -116.015625 197.734375 -141.070312 C 197.734375 -173.28125 178.347656 -201.3125 133.015625 -201.3125 Z M 23.859375 -201.3125 "/></g></g></g><g fill="#ffffff" fill-opacity="1"><g transform="translate(665.626633, 303.756788)"><g><path d="M 108.261719 -161.945312 C 110.351562 -166.71875 113.628906 -168.804688 118.402344 -168.804688 C 123.175781 -168.804688 126.457031 -166.71875 128.246094 -161.945312 L 189.382812 0 L 228.453125 0 L 160.453125 -178.945312 C 153.296875 -197.734375 139.578125 -204.894531 118.699219 -204.894531 C 97.527344 -204.894531 83.804688 -197.734375 76.351562 -178.945312 L 5.667969 0 L 44.4375 0 Z M 108.261719 -161.945312 "/></g></g></g></svg>