<svg width="336" height="336" viewBox="0 0 336 336" fill="none" xmlns="http://www.w3.org/2000/svg">
<circle cx="168" cy="168" r="168" fill="#171717"/>
<path fill-rule="evenodd" clip-rule="evenodd" d="M167.939 86C167.928 86 167.916 86 167.905 86H108.32H107L92.004 86C87.0334 86 83.004 90.0294 83.004 95L83.004 109.558C83.0013 109.705 83 109.852 83 110V170.939V196.944V246.905C83 248.079 83.9498 249.029 85.1235 249.029H133.277C134.451 249.029 135.401 248.079 135.401 246.905V172.927C135.401 154.985 149.997 140.388 167.939 140.388C185.881 140.388 200.478 154.985 200.478 172.927V246.905C200.478 248.079 201.428 249.029 202.602 249.029H250.755C251.929 249.029 252.879 248.079 252.879 246.905V203.294C252.881 203.178 252.882 203.061 252.882 202.944V131.224C252.883 131.188 252.883 131.151 252.883 131.115V95C252.883 90.0294 248.853 86 243.883 86H234.882H221.562H167.974C167.963 86 167.951 86 167.939 86Z" fill="white"/>
</svg>
