<svg width="38" height="40" viewBox="0 0 38 40" fill="none" xmlns="http://www.w3.org/2000/svg">
<path d="M37.5 10V26.25C37.5 33.9062 31.3281 40 23.75 40H20.7812C16.5625 40 12.6562 38.4375 9.6875 35.4688L0.859375 26.6406C0.234375 26.0156 0 25.2344 0 24.375C0 22.7344 1.32812 21.25 3.125 21.25C3.90625 21.25 4.6875 21.5625 5.3125 22.1875L10 26.875V5C10 3.67188 11.0938 2.5 12.5 2.5C13.8281 2.5 15 3.67188 15 5V18.75C15 19.4531 15.5469 20 16.25 20C16.875 20 17.5 19.4531 17.5 18.75V2.5C17.5 1.17188 18.5938 0 20 0C21.3281 0 22.5 1.17188 22.5 2.5V18.75C22.5 19.4531 23.0469 20 23.6719 20C24.375 20 25 19.4531 25 18.75V5C25 3.67188 26.0938 2.5 27.5 2.5C28.8281 2.5 30 3.67188 30 5V18.75C30 19.4531 30.5469 20 31.25 20C31.875 20 32.5 19.4531 32.5 18.75V10C32.5 8.67188 33.5938 7.5 35 7.5C36.3281 7.5 37.5 8.67188 37.5 10Z" fill="#697177"/>
</svg>
