<svg width="1067" height="1423" viewBox="0 0 1067 1423" fill="none" xmlns="http://www.w3.org/2000/svg">
<path d="M939.42 247.538L937.238 246.346L541.391 29.9893C536.346 27.3369 530.321 27.3369 525.276 29.9893L129.429 246.346L129.369 246.378L129.31 246.41C98.6537 262.974 73.0503 287.519 55.2142 317.448C37.3791 347.384 27.9768 381.581 28 416.424L28 416.433V416.443V1377.72C28.0222 1382.09 29.7663 1386.27 32.85 1389.36C35.9489 1392.46 40.132 1394.2 44.4839 1394.22C44.495 1394.22 44.5061 1394.22 44.5172 1394.22H1022.16C1022.17 1394.22 1022.18 1394.22 1022.19 1394.22C1026.54 1394.2 1030.72 1392.46 1033.82 1389.37C1036.9 1386.28 1038.65 1382.09 1038.67 1377.72C1038.67 1377.71 1038.67 1377.7 1038.67 1377.69L1038.67 416.443V416.433V416.424C1038.69 381.58 1029.29 347.383 1011.46 317.448L939.42 247.538ZM939.42 247.538C969.165 264.079 994.023 288.191 1011.46 317.446L939.42 247.538Z" fill="white" stroke="black" stroke-width="56"/>
<path d="M939.42 247.538L937.238 246.346L541.391 29.9893C536.346 27.3369 530.321 27.3369 525.276 29.9893L129.429 246.346L129.369 246.378L129.31 246.41C98.6537 262.974 73.0503 287.519 55.2142 317.448C37.3791 347.384 27.9768 381.581 28 416.424L28 416.433V416.443V1377.72C28.0222 1382.09 29.7663 1386.27 32.85 1389.36C35.9489 1392.46 40.132 1394.2 44.4839 1394.22C44.495 1394.22 44.5061 1394.22 44.5172 1394.22H1022.16C1022.17 1394.22 1022.18 1394.22 1022.19 1394.22C1026.54 1394.2 1030.72 1392.46 1033.82 1389.37C1036.9 1386.28 1038.65 1382.09 1038.67 1377.72C1038.67 1377.71 1038.67 1377.7 1038.67 1377.69L1038.67 416.443V416.433V416.424C1038.69 381.58 1029.29 347.383 1011.46 317.448L939.42 247.538ZM939.42 247.538C969.165 264.079 994.023 288.191 1011.46 317.446L939.42 247.538Z" fill="url(#paint0_linear_1_10)" stroke="black" stroke-width="56"/>
<defs>
<linearGradient id="paint0_linear_1_10" x1="533.336" y1="0" x2="533.336" y2="1422.22" gradientUnits="userSpaceOnUse">
<stop/>
<stop offset="1" stop-color="#090909" stop-opacity="0"/>
</linearGradient>
</defs>
</svg>
