<svg width="471" height="268" viewBox="0 0 471 268" fill="none" xmlns="http://www.w3.org/2000/svg">
<path d="M26.469 24.3199C32.0327 26.5581 62.1381 37.9225 67.7595 39.9338C74.0692 42.1141 79.6285 43.5514 86.0537 45.4425C91.9593 47.2223 94.4858 52.9624 94.7123 60.5401C95.1696 75.1217 92.4166 87.7498 86.5687 98.9451C82.2083 107.213 77.3373 115.191 72.6927 123.801C62.369 142.801 55.26 183.618 86.9728 186.946C98.269 188.152 113.81 179.368 113.695 166.914C113.579 153.654 100.733 145.159 94.0818 134.996C89.8945 128.624 88.7489 120.357 91.0401 113.068C93.3891 105.548 99.7565 99.0608 107.558 97.9707C115.355 96.8805 123.903 102.278 125.049 110.083C125.448 113.011 124.933 115.996 124.476 118.924C122.296 133.563 123.503 148.488 126.887 162.838C130.155 176.672 136.407 186.888 143.804 198.658C147.246 204.055 136.696 208.358 118.859 212.318C105.613 215.246 50.9041 231.665 26.1848 240.907C25.0392 241.307 24.0046 240.159 24.5197 239.069C42.8138 203.245 56.117 77.876 24.3465 26.4424C23.0855 24.3199 25.6076 24.1464 26.469 24.3199Z" fill="#040305"/>
<path d="M230.657 88.6896C238.197 105.705 242.535 123.753 239.445 145.868C235.263 175.784 220.899 204.174 187.826 203.17C151.482 202.065 132.75 174.142 135.492 140.323C137.571 114.631 153.137 94.4245 180.024 91.2926C193.074 89.7753 207.434 93.1348 215.986 103.129C220.791 108.744 223.402 116.028 224.157 123.384C226.346 144.773 212.376 170.572 189.424 172.988C181.445 173.829 171.845 171.369 166.179 165.362C160.123 158.941 159.141 148.462 160.158 140.07C160.74 135.273 161.948 130.441 164.607 126.409C167.267 122.378 171.57 119.232 176.379 118.858C181.188 118.484 186.316 121.368 187.719 125.995C188.976 130.138 187.191 134.61 184.775 138.196C182.36 141.783 179.269 144.951 177.436 148.871C175.602 152.791 175.322 157.913 178.293 161.054C180.704 163.608 184.611 164.165 188.075 163.608C198.709 161.891 206.182 151.056 206.862 140.288C207.581 128.928 201.555 117.216 191.534 111.854C181.512 106.493 167.982 108.237 160.14 116.473C145.754 131.58 147.379 159.955 163.164 173.251C174.247 182.586 189.047 183.387 202.164 178.493C215.427 173.545 224.911 160.921 229.259 147.808C233.74 134.301 234.18 117.205 226.381 104.731C205.552 71.3848 156.624 82.6158 140.945 104.099C138.343 107.707 132.646 106.048 130.528 102.092C122.065 86.3935 106.333 52.8209 129.445 58.779C221.504 77.016 213.59 50.361 230.657 88.6896Z" fill="#040305"/>
<path d="M228.432 199.976C261.406 165.362 254.164 94.452 228.992 68.8486C228.073 67.932 228.761 66.3791 230.08 66.3791C236.158 66.4948 247.068 66.2767 247.526 66.2767C265.878 66.1032 282.338 64.5547 300.459 63.2332C310.378 62.5435 319.841 63.6915 328.215 69.3737C337.447 75.5721 341.35 85.962 339.742 99.7426C338.823 107.547 335.213 113.403 329.823 116.905C324.832 120.064 319.614 122.761 314.108 125.057C305.965 128.559 298.74 133.151 293.807 141.534C288.932 149.859 288.474 162.314 293.177 170.35C296.161 175.4 300.117 178.559 305.507 178.386C308.66 178.328 311.129 175.805 311.644 172.188C312.732 164.841 309.637 159.154 305.05 154.278C304.535 153.704 303.904 153.245 303.327 152.729C300.232 150.033 300.059 148.48 303.212 146.072C307.972 142.455 312.79 138.837 317.776 135.509C320.986 133.386 324.543 131.891 327.927 130.054C329.592 129.137 331.021 129.595 332.345 131.26C343.641 145.552 347.886 164.094 345.537 183.556C343.872 197.333 337.509 208.986 325.409 209.387C318.873 209.618 310.325 204.563 304.766 199.855C294.846 191.477 288.537 181.025 281.769 170.408C276.148 161.566 271.277 152.84 267.836 142.913C266.344 138.553 265.425 133.845 266.459 129.364C269.727 114.898 293.07 117.884 304.309 116.678C313.886 115.646 330.116 113.292 326.275 99.8583C323.695 90.7321 310.676 90.959 303.221 91.5908C290.89 92.681 278.044 97.4466 268.524 105.541C259.293 113.403 257.454 123.967 259.119 135.505C261.93 154.963 271.677 170.692 283.146 186.538C285.153 189.292 287.333 191.877 289.109 194.863C289.913 196.3 299.349 206.957 285.841 204.795C272.538 203.357 259.119 202.556 245.696 202.383H229.525C228.206 202.499 227.518 200.892 228.437 199.971L228.432 199.976Z" fill="#040305"/>
<path d="M364.475 218.059C355.644 216.105 353.521 198.253 352.375 189.301C350.826 177.073 355.417 165.535 363.672 156.636C369.004 150.896 375.714 146.704 382.423 142.744C386.153 140.506 399.798 135.05 397.622 129.141C395.788 124.202 387.871 126.729 381.624 132.069C375.776 137.062 363.734 153.022 355.244 142.744C351.057 137.693 352.318 127.762 352.606 121.732C353.006 113.523 354.041 105.313 353.237 97.1659C351.976 84.48 347.904 71.3935 337.238 63.5265C335.116 61.978 335.862 58.5919 338.499 58.0712C343.375 57.0968 349.107 56.0066 350.426 55.7752C391.197 47.6235 430.996 31.5513 444.361 24.2049C445.68 23.4574 447.172 24.8946 446.484 26.2695C437.883 43.374 427.79 64.2696 429.451 81.3207C430.081 88.0931 428.189 90.1043 424.575 88.8985C416.889 86.3711 409.607 84.4221 401.579 83.2163C391.601 81.7256 383.4 86.9495 381.908 97.1659C381.162 102.274 380.358 109.567 383.569 114.043C387.698 119.841 395.154 115.423 400.717 115.539C407.027 115.712 411.498 121.452 411.614 127.477C411.672 131.726 409.895 135.802 407.2 139.131C400.26 147.799 387.072 150.037 381.508 159.679C376.349 168.579 385.238 177.705 393.551 180.228C403.413 183.213 415.401 181.318 423.714 175.235C425.952 173.629 429.393 174.203 429.393 178.506C429.451 195.842 443.957 231.719 446.941 242.109C447.283 243.315 446.08 244.347 444.934 243.889C436.16 239.929 403.128 226.669 364.475 218.059Z" fill="#040305"/>
</svg>
