<svg  width="826" height="164" viewBox="0 0 826 164" fill="#000000" xmlns="http://www.w3.org/2000/svg">
	<path d="M72.8168 56.5297H29.7697V27.7292H72.7501V1.65967H0V128.221H29.7697V81.7201H72.8168V56.5297Z"></path>
	<path d="M172.768 62.4318C168.716 53.8005 162.666 47.0193 154.626 42.0847C146.579 37.1536 137.807 34.688 128.289 34.688C119.482 34.688 111.35 36.6858 103.894 40.6778C96.4371 44.6699 90.4789 50.308 86.019 57.5886C81.5522 64.8693 79.3223 73.2648 79.3223 82.7754C79.3223 92.1734 81.5522 100.478 86.019 107.702C90.4789 114.923 96.4652 120.501 103.985 124.433C111.498 128.366 119.601 130.335 128.289 130.335C139.565 130.335 149.132 127.518 157.004 121.88C164.868 116.245 170.566 108.905 174.09 99.8621H146.965C145.552 101.86 143.997 103.534 142.295 104.881C140.592 106.235 138.623 107.234 136.393 107.878C134.163 108.525 131.518 108.845 128.465 108.845C124.125 108.845 120.333 107.85 117.104 105.852C113.875 103.854 111.35 100.893 109.535 96.9568C108.725 95.2072 108.105 93.2928 107.655 91.2308H175.849C177.847 80.6616 176.82 71.063 172.768 62.4318H172.768ZM116.753 59.3472C119.981 57.2334 123.829 56.1782 128.289 56.1782C132.756 56.1782 136.569 57.1771 139.741 59.1714C142.914 61.1691 145.256 63.7508 146.79 66.9233C147.703 68.8281 148.383 70.8859 148.834 73.089H107.859C108.251 71.4664 108.748 69.937 109.359 68.5096C111.055 64.5175 113.524 61.4611 116.753 59.3472V59.3472Z"></path>
	<path d="M183.949 128.221V1.39746H212.305V128.221H183.949V128.221Z"></path>
	<path d="M220.74 128.221V1.39746H249.096V128.221H220.74V128.221Z"></path>
	<path d="M306.842 130.335C298.034 130.335 289.783 128.397 282.094 124.521C274.399 120.649 268.201 115.099 263.509 107.878C258.81 100.653 256.461 92.2895 256.461 82.7754C256.461 73.2648 258.81 64.8411 263.509 57.5007C268.201 50.1602 274.399 44.5256 282.094 40.5899C289.783 36.6576 298.034 34.688 306.842 34.688C315.529 34.688 323.781 36.6576 331.589 40.5899C339.397 44.5256 345.622 50.1602 350.258 57.5007C354.894 64.8411 357.215 73.2648 357.215 82.7754C357.215 92.2895 354.894 100.653 350.258 107.878C345.622 115.099 339.397 120.649 331.589 124.521C323.781 128.397 315.529 130.335 306.842 130.335ZM306.842 104.969C311.069 104.969 314.91 104.002 318.378 102.064C321.839 100.126 324.512 97.4563 326.39 94.0481C328.269 90.6434 329.211 86.887 329.211 82.7754C329.211 78.5477 328.269 74.7034 326.39 71.2389C324.512 67.7745 321.839 65.0732 318.378 63.1353C314.91 61.1973 311.069 60.23 306.842 60.23C302.614 60.23 298.794 61.1973 295.39 63.1353C291.985 65.0732 289.312 67.7745 287.377 71.2389C285.436 74.7034 284.472 78.5477 284.472 82.7754C284.472 86.887 285.436 90.6434 287.377 94.0481C289.312 97.4563 291.985 100.126 295.39 102.064C298.794 104.002 302.614 104.969 306.842 104.969Z"></path>
	<path d="M477.9 36.9775L458.769 92.0573L438.619 36.9775H419.422L399.54 91.4333L380.67 36.9775H352.131L387.535 128.221H409.201L428.942 75.3745L448.833 128.221H470.499L505.904 36.9775H477.9Z"></path>
	<path d="M545.002 130.335C536.899 130.335 529.737 129.013 523.512 126.371C517.286 123.73 512.447 120.03 508.979 115.275C505.518 110.519 503.548 105.089 503.084 98.9828H530.033C530.385 101.92 531.883 104.325 534.521 106.204C537.166 108.082 540.655 109.021 545.002 109.021C548.878 109.021 551.875 108.437 553.985 107.259C556.103 106.088 557.158 104.15 557.158 101.448C557.158 99.8058 556.454 98.3954 555.04 97.2206C553.633 96.0459 551.812 95.1068 549.582 94.3998C547.352 93.6964 544.179 92.9331 540.071 92.1101C533.142 90.5872 527.36 88.9411 522.724 87.179C518.081 85.4168 514.058 82.5433 510.653 78.5477C507.248 74.5592 505.546 69.0372 505.546 61.9922C505.546 56.8254 507.192 52.158 510.477 47.9866C513.762 43.8187 518.257 40.5617 523.955 38.2122C529.646 35.8627 536.195 34.688 543.595 34.688C550.405 34.688 556.658 35.9823 562.356 38.564C568.047 41.1491 572.683 44.7578 576.27 49.397C579.851 54.0362 581.82 59.2909 582.172 65.1612H555.575C555.336 62.46 554.105 60.2582 551.875 58.5559C549.638 56.8535 546.704 56.0023 543.068 56.0023C539.776 56.0023 537.222 56.5299 535.4 57.5886C533.578 58.6438 532.671 60.1703 532.671 62.168C532.671 63.9302 533.402 65.3687 534.873 66.4837C536.343 67.5986 538.277 68.5377 540.69 69.301C543.096 70.0677 546.177 70.7993 549.933 71.5027C556.982 73.1488 562.764 74.823 567.287 76.5218C571.803 78.2277 575.771 81.0449 579.175 84.9772C582.58 88.913 584.282 94.1677 584.282 100.741C584.282 106.851 582.636 112.165 579.351 116.685C576.066 121.205 571.48 124.609 565.613 126.899C559.739 129.189 552.867 130.335 545.002 130.335V130.335Z"></path>
	<path d="M677.354 53.4488C674.237 47.6348 669.925 43.0554 664.403 39.707C658.888 36.3621 652.607 34.6879 645.558 34.6879C641.45 34.6879 637.658 35.2472 634.197 36.3621C630.729 37.4806 627.444 39.0634 624.335 41.1174C622.833 42.1094 621.394 43.2471 620.016 44.5243V1.39746H591.66V128.221H620.016V79.4305C620.016 75.6706 620.719 72.3574 622.133 69.4767C623.54 66.5997 625.566 64.3099 628.211 62.6076C630.849 60.9053 633.874 60.0541 637.279 60.0541C640.683 60.0541 643.652 60.8771 646.177 62.5197C648.702 64.1658 650.609 66.4238 651.903 69.3009C653.19 72.178 653.838 75.5545 653.838 79.4305V128.221H682.025V73.2648C682.025 65.8646 680.463 59.2592 677.354 53.4488V53.4488Z"></path>
	<path d="M819.294 57.5886C815.066 50.308 809.459 44.6699 802.474 40.6778C795.482 36.6858 788.293 34.688 780.893 34.688C773.38 34.688 767.035 35.9823 761.872 38.564C758.115 40.4422 754.833 42.9471 752.009 46.0633V36.9777H725.588V163.45H753.944V121.05C756.654 123.613 759.645 125.631 762.927 127.075C767.858 129.248 773.851 130.335 780.893 130.335C788.293 130.335 795.482 128.397 802.474 124.521C809.459 120.649 815.066 115.042 819.294 107.702C823.521 100.362 825.639 92.0539 825.639 82.7754C825.639 73.2648 823.521 64.8693 819.294 57.5886V57.5886ZM794.898 94.1361C792.964 97.4844 790.255 100.158 786.794 102.152C783.334 104.15 779.422 105.145 775.082 105.145C770.735 105.145 766.859 104.15 763.454 102.152C760.05 100.158 757.376 97.4844 755.442 94.1361C753.5 90.7911 752.537 87.0031 752.537 82.7754C752.537 78.4316 753.5 74.5275 755.442 71.063C757.376 67.5986 760.05 64.8974 763.454 62.9594C766.859 61.0214 770.735 60.0542 775.082 60.0542C779.422 60.0542 783.334 61.0214 786.794 62.9594C790.255 64.8974 792.964 67.5986 794.898 71.063C796.833 74.5275 797.803 78.4316 797.803 82.7754C797.803 87.0031 796.833 90.7911 794.898 94.1361Z"></path>
	<path d="M718.112 36.9775H689.756V128.221H718.112V36.9775Z"></path>
	<path d="M703.934 28.8207C711.892 28.8207 718.344 22.369 718.344 14.4104C718.344 6.45174 711.892 0 703.934 0C695.975 0 689.523 6.45174 689.523 14.4104C689.523 22.369 695.975 28.8207 703.934 28.8207Z"></path>
</svg>