<svg width="43" height="43" viewBox="0 0 43 43" fill="none" xmlns="http://www.w3.org/2000/svg">
<path d="M41.0625 36.6875L31.6875 27.3125C33.7969 24.1875 34.8906 20.2812 34.3438 16.0625C33.3281 8.875 27.4688 3.09375 20.3594 2.15625C9.73438 0.828125 0.75 9.8125 2.07812 20.4375C3.01562 27.5469 8.79688 33.4062 15.9844 34.4219C20.2031 34.9688 24.1094 33.875 27.3125 31.7656L36.6094 41.1406C37.8594 42.3125 39.8125 42.3125 41.0625 41.1406C42.2344 39.8906 42.2344 37.9375 41.0625 36.6875ZM8.17188 18.25C8.17188 12.7812 12.625 8.25 18.1719 8.25C23.6406 8.25 28.1719 12.7812 28.1719 18.25C28.1719 23.7969 23.6406 28.25 18.1719 28.25C12.625 28.25 8.17188 23.7969 8.17188 18.25Z" fill="#697177"/>
</svg>
