<svg width="114" height="44" viewBox="0 0 114 44" fill="none" xmlns="http://www.w3.org/2000/svg">
<path d="M31.1703 31.0083L15.5938 21.9999V4L31.1703 13.0083V31.0083Z" fill="#80D8FF"/>
<path d="M0 31.0083L15.5933 21.9999V4L0 13.0083V31.0083Z" fill="#7ACFFF"/>
<path d="M15.5933 31.0084L31.1698 22L15.5933 13.0084L0 22L15.5933 31.0084Z" fill="url(#paint0_linear_4965_82411)"/>
<path opacity="0.3" d="M15.5933 40L0 31.0084V13.0084L15.5933 22V40Z" fill="#E4F0FE"/>
<path d="M0 31.0081L15.5933 39.9997V31.0081L0 21.9998V31.0081Z" fill="url(#paint1_linear_4965_82411)"/>
<path opacity="0.3" d="M15.5938 40L31.1703 31.0084V13.0084L15.5938 22V40Z" fill="#D0E6FF"/>
<path d="M31.1703 31.0081L15.5938 39.9997V31.0081L31.1703 21.9998V31.0081Z" fill="url(#paint2_linear_4965_82411)"/>
<path opacity="0.3" d="M15.5933 21.9999L31.1698 13.0083L15.5933 4L0 13.0083L15.5933 21.9999Z" fill="white"/>
<path d="M37.0004 12.5188C37.7591 12.4646 38.5179 12.4646 39.2948 12.5188L39.4574 14.0544H39.5658C39.8548 12.844 41.0291 12.3381 42.6732 12.3381C42.7454 12.9524 42.7454 13.9641 42.6732 14.5783C40.6317 14.5783 40.0716 14.9939 39.5838 16.2946V21.9132C38.9515 22.0036 37.6146 22.0036 37.0004 21.9132V12.5188V12.5188Z" fill="#11181C"/>
<path d="M52.2123 18.0109C51.0019 18.1013 48.2197 18.1193 46.666 18.029V18.4806C46.666 19.7634 47.4067 19.9982 48.9604 19.9982C50.0263 19.9982 50.7851 19.9079 51.7968 19.7092C51.8691 20.3234 51.8691 21.1906 51.7968 21.8048C50.5322 22.0216 49.5205 22.13 48.3281 22.13C45.7265 22.13 44.0825 21.3532 44.0825 19.0588V15.4455C44.0825 13.0427 45.8169 12.3381 48.2197 12.3381C50.6044 12.3381 52.2123 13.3498 52.2123 15.9333V18.0109ZM49.683 15.8249C49.683 14.5964 48.9785 14.4519 48.1836 14.4519C47.3886 14.4519 46.666 14.5964 46.666 15.8249V16.5295L48.0571 16.4392H49.683V15.8249V15.8249Z" fill="#11181C"/>
<path d="M60.8116 19.7092C60.8116 21.4616 59.4385 22.13 57.1983 22.13C56.2408 22.13 55.1388 22.0578 54.109 21.8771C54.0187 21.2267 54.0187 20.486 54.109 19.8537C55.0846 20.0163 56.0602 20.0705 56.8189 20.0705C57.5416 20.0705 58.2281 20.0163 58.2281 19.402V19.0588C58.2281 18.5348 57.8668 18.4445 57.2525 18.2819L55.6266 17.8122C54.5968 17.5231 54.0367 16.8728 54.0367 15.6804V14.6867C54.0367 13.0066 55.482 12.3381 57.7764 12.3381C58.6798 12.3381 59.6192 12.4104 60.667 12.6272C60.7574 13.2776 60.7574 14.0002 60.667 14.6325C59.565 14.4338 58.8604 14.3796 58.0655 14.3796C57.2887 14.3796 56.6202 14.4338 56.6202 15.0481V15.3913C56.6202 15.843 57.0357 16.0056 57.5958 16.1682L59.1133 16.5837C60.2335 16.8908 60.8116 17.4509 60.8116 18.8239V19.7092V19.7092Z" fill="#11181C"/>
<path d="M70.8565 18.0109C69.646 18.1013 66.8639 18.1193 65.3102 18.029V18.4806C65.3102 19.7634 66.0509 19.9982 67.6046 19.9982C68.6705 19.9982 69.4293 19.9079 70.441 19.7092C70.5132 20.3234 70.5132 21.1906 70.441 21.8048C69.1763 22.0216 68.1646 22.13 66.9722 22.13C64.3707 22.13 62.7267 21.3532 62.7267 19.0588V15.4455C62.7267 13.0427 64.461 12.3381 66.8639 12.3381C69.2486 12.3381 70.8565 13.3498 70.8565 15.9333V18.0109ZM68.3272 15.8249C68.3272 14.5964 67.6226 14.4519 66.8277 14.4519C66.0328 14.4519 65.3102 14.5964 65.3102 15.8249V16.5295L66.7013 16.4392H68.3272V15.8249Z" fill="#11181C"/>
<path d="M73.1143 12.5188C73.873 12.4646 74.6318 12.4646 75.4087 12.5188L75.5713 14.0544H75.6797C75.9687 12.844 77.143 12.3381 78.7871 12.3381C78.8593 12.9524 78.8593 13.9641 78.7871 14.5783C76.7456 14.5783 76.1855 14.9939 75.6977 16.2946V21.9132C75.0654 22.0036 73.7285 22.0036 73.1143 21.9132V12.5188V12.5188Z" fill="#11181C"/>
<path d="M80.5222 12.5906C81.1545 12.5002 82.4914 12.5002 83.1057 12.5906L85.0749 19.5461L87.0261 12.5906C87.6403 12.5002 88.923 12.5002 89.5373 12.5906L86.6647 21.9127C85.8698 22.0031 84.2077 22.0031 83.4128 21.9127L80.5222 12.5906Z" fill="#11181C"/>
<path d="M99.5275 19.1125C99.5275 21.3527 97.8293 22.1295 95.3 22.1295C92.7707 22.1295 91.0725 21.3527 91.0725 19.1125V15.3908C91.0725 13.0603 92.7707 12.3376 95.3 12.3376C97.8293 12.3376 99.5275 13.0603 99.5275 15.3908V19.1125ZM96.944 15.9148C96.944 14.6682 96.1852 14.5237 95.3 14.5237C94.3967 14.5237 93.656 14.6682 93.656 15.9148V18.5524C93.656 19.7809 94.3967 19.9255 95.3 19.9255C96.1852 19.9255 96.944 19.7809 96.944 18.5524V15.9148Z" fill="#11181C"/>
<path d="M104.568 11.1273C103.936 11.2176 102.508 11.2176 101.858 11.1273L101.822 9.06775C102.472 8.97742 103.972 8.97742 104.622 9.06775L104.568 11.1273ZM101.93 12.5907C102.544 12.5003 103.881 12.5003 104.514 12.5907V21.9128C103.881 22.0032 102.544 22.0032 101.93 21.9128V12.5907Z" fill="#11181C"/>
<path d="M107.151 12.5183C107.91 12.4641 108.669 12.4641 109.446 12.5183L109.608 14.0539H109.717C110.006 12.8435 111.18 12.3376 112.824 12.3376C112.896 12.9519 112.896 13.9636 112.824 14.5779C110.783 14.5779 110.222 14.9934 109.735 16.2941V21.9127C109.102 22.0031 107.765 22.0031 107.151 21.9127V12.5183V12.5183Z" fill="#11181C"/>
<path d="M41.8 27.5574V28.7258C41.2159 28.7832 39.7506 28.7928 38.9749 28.7354V28.7641C38.9749 29.3195 39.2431 29.4536 40.0954 29.4536C40.6221 29.4536 41.0339 29.3961 41.5702 29.3004C41.6181 29.7217 41.6181 30.2485 41.5702 30.6698C40.8519 30.7943 40.2965 30.8518 39.607 30.8518C38.1226 30.8518 37.1649 30.4304 37.1649 29.1184V27.3467C37.1649 25.9773 38.1513 25.5942 39.5208 25.5942C40.6508 25.5942 41.8 26.0252 41.8 27.5574ZM40.0379 27.7585V27.5574C40.0379 27.0499 39.7698 26.9924 39.5016 26.9924C39.2335 26.9924 38.9749 27.0499 38.9749 27.5478V27.8064L39.4537 27.7585H40.0379Z" fill="#687076"/>
<path d="M45.6624 30.7369L44.8388 29.2908L44.0248 30.7369C43.4119 30.7848 42.8469 30.7848 42.234 30.7369L43.7184 28.1991L42.3297 25.7378C42.9235 25.69 43.5364 25.69 44.1302 25.7378L44.8867 27.1265L45.6337 25.7378C46.2562 25.69 46.7542 25.69 47.3767 25.7378L45.988 28.1703L47.4724 30.7369C46.8787 30.7848 46.2562 30.7848 45.6624 30.7369Z" fill="#687076"/>
<path d="M48.0714 32.7384V25.69C48.4928 25.6421 49.2876 25.6421 49.709 25.69L49.8048 26.4178H49.8718C50.0538 25.7953 50.6092 25.5942 51.3658 25.5942C52.2851 25.5942 52.9747 25.9773 52.9747 27.069V29.377C52.9747 30.4592 52.2851 30.8518 51.3658 30.8518C50.6092 30.8518 50.0538 30.6507 49.8718 30.0282H49.8048L49.8814 30.8518V32.7384C49.46 32.7863 48.4928 32.7863 48.0714 32.7384ZM51.1647 28.5247V27.9213C51.1647 27.2222 50.9348 27.1169 50.5805 27.1169C50.1687 27.1169 50.0059 27.2127 49.8814 27.6915V28.7545C50.0059 29.2333 50.1687 29.3291 50.5805 29.3291C50.9348 29.3291 51.1647 29.2238 51.1647 28.5247Z" fill="#687076"/>
<path d="M53.982 30.7369V23.8896C54.4034 23.8417 55.3706 23.8417 55.792 23.8896V30.7369C55.3706 30.7848 54.4034 30.7848 53.982 30.7369Z" fill="#687076"/>
<path d="M61.6125 27.318V29.1567C61.6125 30.4304 60.6453 30.8518 59.1992 30.8518C57.7531 30.8518 56.7859 30.4304 56.7859 29.1567V27.318C56.7859 25.9773 57.7531 25.5942 59.1992 25.5942C60.6453 25.5942 61.6125 25.9773 61.6125 27.318ZM59.8025 28.7737V27.6723C59.8025 27.1456 59.5248 27.0786 59.1992 27.0786C58.8736 27.0786 58.5959 27.1456 58.5959 27.6723V28.7737C58.5959 29.2908 58.8736 29.3578 59.1992 29.3578C59.5248 29.3578 59.8025 29.2908 59.8025 28.7737Z" fill="#687076"/>
<path d="M62.6048 30.7369V25.69C63.1506 25.6612 63.6965 25.6612 64.2424 25.69L64.3382 26.5423H64.4052C64.5584 25.8719 65.1809 25.5942 66.0811 25.5942C66.129 26.0156 66.129 26.7147 66.0811 27.136C64.9702 27.136 64.6733 27.3563 64.4148 28.0458V30.7369C63.9934 30.7848 63.0261 30.7848 62.6048 30.7369Z" fill="#687076"/>
<path d="M71.3157 27.5574V28.7258C70.7315 28.7832 69.2663 28.7928 68.4905 28.7354V28.7641C68.4905 29.3195 68.7587 29.4536 69.611 29.4536C70.1377 29.4536 70.5495 29.3961 71.0858 29.3004C71.1337 29.7217 71.1337 30.2485 71.0858 30.6698C70.3676 30.7943 69.8121 30.8518 69.1226 30.8518C67.6382 30.8518 66.6805 30.4304 66.6805 29.1184V27.3467C66.6805 25.9773 67.6669 25.5942 69.0364 25.5942C70.1665 25.5942 71.3157 26.0252 71.3157 27.5574ZM69.5536 27.7585V27.5574C69.5536 27.0499 69.2854 26.9924 69.0173 26.9924C68.7491 26.9924 68.4905 27.0499 68.4905 27.5478V27.8064L68.9694 27.7585H69.5536Z" fill="#687076"/>
<path d="M72.2656 30.7369V25.69C72.8115 25.6612 73.3574 25.6612 73.9032 25.69L73.999 26.5423H74.066C74.2193 25.8719 74.8418 25.5942 75.742 25.5942C75.7898 26.0156 75.7898 26.7147 75.742 27.136C74.6311 27.136 74.3342 27.3563 74.0756 28.0458V30.7369C73.6542 30.7848 72.687 30.7848 72.2656 30.7369Z" fill="#687076"/>
<defs>
<linearGradient id="paint0_linear_4965_82411" x1="0.583201" y1="25.3607" x2="31.0076" y2="18.5601" gradientUnits="userSpaceOnUse">
<stop stop-color="#C132CE"/>
<stop offset="1" stop-color="#425AFA"/>
</linearGradient>
<linearGradient id="paint1_linear_4965_82411" x1="5.99349" y1="25.0164" x2="10.4809" y2="39.9445" gradientUnits="userSpaceOnUse">
<stop stop-color="#425AFA"/>
<stop offset="0.16" stop-color="#5A52F2"/>
<stop offset="0.55" stop-color="#9241DE"/>
<stop offset="0.84" stop-color="#B436D3"/>
<stop offset="1" stop-color="#C132CE"/>
</linearGradient>
<linearGradient id="paint2_linear_4965_82411" x1="18.3486" y1="37.1823" x2="28.2895" y2="24.9851" gradientUnits="userSpaceOnUse">
<stop stop-color="#C132CE"/>
<stop offset="0.1" stop-color="#AB39D6"/>
<stop offset="0.28" stop-color="#8545E3"/>
<stop offset="0.47" stop-color="#684EED"/>
<stop offset="0.65" stop-color="#5355F4"/>
<stop offset="0.83" stop-color="#4659F9"/>
<stop offset="1" stop-color="#425AFA"/>
</linearGradient>
</defs>
</svg>
