<svg width="781" height="185" viewBox="0 0 781 185" fill="none" xmlns="http://www.w3.org/2000/svg">
<path d="M148.459 128.636L74.2705 85.7306V0L148.459 42.9051V128.636Z" fill="#80D8FF"/>
<path d="M0 128.636L74.268 85.7306V0L0 42.9051V128.636Z" fill="#7ACFFF"/>
<path d="M74.2681 128.636L148.457 85.7313L74.2681 42.9058L0 85.7313L74.2681 128.636Z" fill="url(#paint0_linear_1202_89)"/>
<path opacity="0.3" d="M74.268 171.462L0 128.636V42.9058L74.268 85.7313V171.462Z" fill="#E4F0FE"/>
<path d="M0 128.635L74.268 171.46V128.635L0 85.7297V128.635Z" fill="url(#paint1_linear_1202_89)"/>
<path opacity="0.3" d="M74.2705 171.462L148.459 128.636V42.9058L74.2705 85.7313V171.462Z" fill="#D0E6FF"/>
<path d="M148.459 128.635L74.2705 171.46V128.635L148.459 85.7297V128.635Z" fill="url(#paint2_linear_1202_89)"/>
<path opacity="0.3" d="M74.2681 85.7306L148.457 42.9051L74.2681 0L0 42.9051L74.2681 85.7306Z" fill="white"/>
<path d="M196.459 27.1035C202.304 26.686 208.148 26.686 214.132 27.1035L215.384 38.9317H216.219C218.446 29.6083 227.491 25.7119 240.154 25.7119C240.71 30.4432 240.71 38.2359 240.154 42.9672C224.429 42.9672 220.115 46.1677 216.358 56.1869V99.4642C211.488 100.16 201.19 100.16 196.459 99.4642V27.1035V27.1035Z" fill="white"/>
<path d="M313.629 69.4067C304.306 70.1025 282.876 70.2416 270.908 69.5458V73.0247C270.908 82.9047 276.614 84.7138 288.581 84.7138C296.791 84.7138 302.636 84.018 310.429 82.4873C310.985 87.2186 310.985 93.898 310.429 98.6293C300.688 100.299 292.895 101.134 283.711 101.134C263.672 101.134 251.009 95.1504 251.009 77.4777V49.6466C251.009 31.139 264.368 25.7119 282.876 25.7119C301.244 25.7119 313.629 33.5046 313.629 53.4038V69.4067ZM294.147 52.5689C294.147 43.1063 288.72 41.9931 282.598 41.9931C276.475 41.9931 270.908 43.1063 270.908 52.5689V57.9959L281.623 57.3002H294.147V52.5689V52.5689Z" fill="white"/>
<path d="M379.866 82.4873C379.866 95.9853 369.29 101.134 352.035 101.134C344.66 101.134 336.171 100.577 328.239 99.1859C327.543 94.1763 327.543 88.471 328.239 83.6005C335.754 84.8529 343.268 85.2704 349.113 85.2704C354.679 85.2704 359.967 84.8529 359.967 80.1216V77.4777C359.967 73.4422 357.184 72.7464 352.452 71.494L339.928 67.876C331.996 65.6495 327.683 60.6399 327.683 51.4556V43.8021C327.683 30.8607 338.815 25.7119 356.488 25.7119C363.446 25.7119 370.682 26.2685 378.753 27.9384C379.448 32.948 379.448 38.5142 378.753 43.3846C370.264 41.8539 364.837 41.4365 358.714 41.4365C352.731 41.4365 347.582 41.8539 347.582 46.5852V49.2292C347.582 52.708 350.782 53.9604 355.096 55.2128L366.785 58.4134C375.413 60.7791 379.866 65.0929 379.866 75.6687V82.4873V82.4873Z" fill="white"/>
<path d="M457.236 69.4067C447.913 70.1025 426.483 70.2416 414.515 69.5458V73.0247C414.515 82.9047 420.221 84.7138 432.188 84.7138C440.398 84.7138 446.243 84.018 454.036 82.4873C454.592 87.2186 454.592 93.898 454.036 98.6293C444.295 100.299 436.502 101.134 427.318 101.134C407.279 101.134 394.616 95.1504 394.616 77.4777V49.6466C394.616 31.139 407.975 25.7119 426.483 25.7119C444.851 25.7119 457.236 33.5046 457.236 53.4038V69.4067ZM437.754 52.5689C437.754 43.1063 432.327 41.9931 426.204 41.9931C420.082 41.9931 414.515 43.1063 414.515 52.5689V57.9959L425.23 57.3002H437.754V52.5689Z" fill="white"/>
<path d="M474.627 27.1035C480.472 26.686 486.317 26.686 492.3 27.1035L493.553 38.9317H494.388C496.614 29.6083 505.659 25.7119 518.322 25.7119C518.879 30.4432 518.879 38.2359 518.322 42.9672C502.598 42.9672 498.284 46.1677 494.527 56.1869V99.4642C489.656 100.16 479.359 100.16 474.627 99.4642V27.1035V27.1035Z" fill="white"/>
<path d="M531.685 27.6561C536.555 26.9603 546.853 26.9603 551.584 27.6561L566.752 81.2309L581.78 27.6561C586.512 26.9603 596.392 26.9603 601.123 27.6561L578.997 99.4603C572.875 100.156 560.072 100.156 553.949 99.4603L531.685 27.6561Z" fill="white"/>
<path d="M678.074 77.8917C678.074 95.147 664.993 101.131 645.512 101.131C626.03 101.131 612.949 95.147 612.949 77.8917V49.2257C612.949 31.2747 626.03 25.7085 645.512 25.7085C664.993 25.7085 678.074 31.2747 678.074 49.2257V77.8917ZM658.175 53.2612C658.175 43.6595 652.33 42.5463 645.512 42.5463C638.554 42.5463 632.848 43.6595 632.848 53.2612V73.5779C632.848 83.0405 638.554 84.1537 645.512 84.1537C652.33 84.1537 658.175 83.0405 658.175 73.5779V53.2612Z" fill="white"/>
<path d="M716.897 16.3855C712.027 17.0813 701.033 17.0813 696.024 16.3855L695.746 0.521832C700.755 -0.173944 712.305 -0.173944 717.315 0.521832L716.897 16.3855ZM696.581 27.6571C701.312 26.9613 711.609 26.9613 716.48 27.6571V99.4613C711.609 100.157 701.312 100.157 696.581 99.4613V27.6571Z" fill="white"/>
<path d="M736.797 27.1C742.641 26.6826 748.486 26.6826 754.47 27.1L755.722 38.9283H756.557C758.783 29.6048 767.828 25.7085 780.492 25.7085C781.048 30.4398 781.048 38.2325 780.492 42.9638C764.767 42.9638 760.453 46.1643 756.696 56.1835V99.4608C751.826 100.157 741.528 100.157 736.797 99.4608V27.1V27.1Z" fill="white"/>
<path d="M225.088 171H196.032V127.288H225.088C225.408 130.104 225.408 134.2 225.088 137.016H208.256V144.248H224.448C224.768 147.064 224.768 151.096 224.448 153.912H208.256V161.208H225.088C225.408 164.024 225.408 168.184 225.088 171Z" fill="#9BA1A6"/>
<path d="M251.86 171L246.356 161.336L240.916 171C236.82 171.32 233.044 171.32 228.948 171L238.868 154.04L229.588 137.592C233.556 137.272 237.652 137.272 241.62 137.592L246.676 146.872L251.668 137.592C255.828 137.272 259.156 137.272 263.316 137.592L254.036 153.848L263.956 171C259.988 171.32 255.828 171.32 251.86 171Z" fill="#9BA1A6"/>
<path d="M267.959 184.376V137.272C270.775 136.952 276.087 136.952 278.903 137.272L279.543 142.136H279.991C281.207 137.976 284.919 136.632 289.975 136.632C296.119 136.632 300.727 139.192 300.727 146.488V161.912C300.727 169.144 296.119 171.768 289.975 171.768C284.919 171.768 281.207 170.424 279.991 166.264H279.543L280.055 171.768V184.376C277.239 184.696 270.775 184.696 267.959 184.376ZM288.631 156.216V152.184C288.631 147.512 287.095 146.808 284.727 146.808C281.975 146.808 280.887 147.448 280.055 150.648V157.752C280.887 160.952 281.975 161.592 284.727 161.592C287.095 161.592 288.631 160.888 288.631 156.216Z" fill="#9BA1A6"/>
<path d="M307.459 171V125.24C310.275 124.92 316.739 124.92 319.555 125.24V171C316.739 171.32 310.275 171.32 307.459 171Z" fill="#9BA1A6"/>
<path d="M358.453 148.152V160.44C358.453 168.952 351.989 171.768 342.325 171.768C332.661 171.768 326.197 168.952 326.197 160.44V148.152C326.197 139.192 332.661 136.632 342.325 136.632C351.989 136.632 358.453 139.192 358.453 148.152ZM346.357 157.88V150.52C346.357 147 344.501 146.552 342.325 146.552C340.149 146.552 338.293 147 338.293 150.52V157.88C338.293 161.336 340.149 161.784 342.325 161.784C344.501 161.784 346.357 161.336 346.357 157.88Z" fill="#9BA1A6"/>
<path d="M365.084 171V137.272C368.732 137.08 372.38 137.08 376.028 137.272L376.668 142.968H377.116C378.14 138.488 382.3 136.632 388.316 136.632C388.636 139.448 388.636 144.12 388.316 146.936C380.892 146.936 378.908 148.408 377.18 153.016V171C374.364 171.32 367.9 171.32 365.084 171Z" fill="#9BA1A6"/>
<path d="M423.298 149.752V157.56C419.394 157.944 409.602 158.008 404.418 157.624V157.816C404.418 161.528 406.21 162.424 411.906 162.424C415.426 162.424 418.178 162.04 421.762 161.4C422.082 164.216 422.082 167.736 421.762 170.552C416.962 171.384 413.25 171.768 408.642 171.768C398.722 171.768 392.322 168.952 392.322 160.184V148.344C392.322 139.192 398.914 136.632 408.066 136.632C415.618 136.632 423.298 139.512 423.298 149.752ZM411.522 151.096V149.752C411.522 146.36 409.73 145.976 407.938 145.976C406.146 145.976 404.418 146.36 404.418 149.688V151.416L407.618 151.096H411.522Z" fill="#9BA1A6"/>
<path d="M429.647 171V137.272C433.295 137.08 436.943 137.08 440.591 137.272L441.231 142.968H441.679C442.703 138.488 446.863 136.632 452.879 136.632C453.199 139.448 453.199 144.12 452.879 146.936C445.455 146.936 443.471 148.408 441.743 153.016V171C438.927 171.32 432.463 171.32 429.647 171Z" fill="#9BA1A6"/>
<defs>
<linearGradient id="paint0_linear_1202_89" x1="2.77769" y1="101.737" x2="147.684" y2="69.3476" gradientUnits="userSpaceOnUse">
<stop stop-color="#C132CE"/>
<stop offset="1" stop-color="#425AFA"/>
</linearGradient>
<linearGradient id="paint1_linear_1202_89" x1="28.546" y1="100.097" x2="49.919" y2="171.197" gradientUnits="userSpaceOnUse">
<stop stop-color="#425AFA"/>
<stop offset="0.16" stop-color="#5A52F2"/>
<stop offset="0.55" stop-color="#9241DE"/>
<stop offset="0.84" stop-color="#B436D3"/>
<stop offset="1" stop-color="#C132CE"/>
</linearGradient>
<linearGradient id="paint2_linear_1202_89" x1="87.3913" y1="158.042" x2="134.738" y2="99.9485" gradientUnits="userSpaceOnUse">
<stop stop-color="#C132CE"/>
<stop offset="0.1" stop-color="#AB39D6"/>
<stop offset="0.28" stop-color="#8545E3"/>
<stop offset="0.47" stop-color="#684EED"/>
<stop offset="0.65" stop-color="#5355F4"/>
<stop offset="0.83" stop-color="#4659F9"/>
<stop offset="1" stop-color="#425AFA"/>
</linearGradient>
</defs>
</svg>
