<svg width="265" height="305" viewBox="0 0 265 305" fill="none" xmlns="http://www.w3.org/2000/svg">
<path d="M264.426 228.15L132.426 152.147V0L264.426 76.1442V228.15Z" fill="#80D8FF"/>
<path d="M0.425995 228.15L132.426 152.147V1.52588e-05L0.425995 76.1443V228.15Z" fill="#7ACFFF"/>
<path d="M132.426 228.15L264.426 152.147L132.426 76.1441L0.425991 152.147L132.426 228.15Z" fill="url(#paint0_linear_2_696)"/>
<path opacity="0.3" d="M132.426 304.294L0.425991 228.15V76.1441L132.426 152.147V304.294Z" fill="#E4F0FE"/>
<path d="M0.425991 228.15L132.426 304.294V228.15L0.425991 152.147V228.15Z" fill="url(#paint1_linear_2_696)"/>
<path opacity="0.3" d="M132.426 304.294L264.426 228.15V76.1441L132.426 152.147V304.294Z" fill="#D0E6FF"/>
<path d="M264.426 228.15L132.426 304.294V228.15L264.426 152.147V228.15Z" fill="url(#paint2_linear_2_696)"/>
<path opacity="0.3" d="M132.426 152.147L264.426 76.1443L132.426 1.52588e-05L0.425995 76.1443L132.426 152.147Z" fill="white"/>
<defs>
<linearGradient id="paint0_linear_2_696" x1="5.4069" y1="180.504" x2="262.919" y2="122.859" gradientUnits="userSpaceOnUse">
<stop stop-color="#C132CE"/>
<stop offset="1" stop-color="#425AFA"/>
</linearGradient>
<linearGradient id="paint1_linear_2_696" x1="51.2069" y1="177.603" x2="89.0909" y2="303.801" gradientUnits="userSpaceOnUse">
<stop stop-color="#425AFA"/>
<stop offset="0.16" stop-color="#5A52F2"/>
<stop offset="0.55" stop-color="#9241DE"/>
<stop offset="0.84" stop-color="#B436D3"/>
<stop offset="1" stop-color="#C132CE"/>
</linearGradient>
<linearGradient id="paint2_linear_2_696" x1="155.784" y1="280.42" x2="239.8" y2="177.199" gradientUnits="userSpaceOnUse">
<stop stop-color="#C132CE"/>
<stop offset="0.1" stop-color="#AB39D6"/>
<stop offset="0.28" stop-color="#8545E3"/>
<stop offset="0.47" stop-color="#684EED"/>
<stop offset="0.65" stop-color="#5355F4"/>
<stop offset="0.83" stop-color="#4659F9"/>
<stop offset="1" stop-color="#425AFA"/>
</linearGradient>
</defs>
</svg>
