<?xml version="1.0" encoding="utf-8"?>
<!-- Generator: Adobe Illustrator 26.3.1, SVG Export Plug-In . SVG Version: 6.00 Build 0)  -->
<svg version="1.1" id="Layer_1" xmlns="http://www.w3.org/2000/svg" xmlns:xlink="http://www.w3.org/1999/xlink" x="0px" y="0px"
	 viewBox="0 0 113 36" style="enable-background:new 0 0 113 36;" xml:space="preserve">
<style type="text/css">
	.st0{fill:#80D8FF;}
	.st1{fill:#7ACFFF;}
	.st2{fill:url(#SVGID_1_);}
	.st3{opacity:0.3;fill:#E4F0FE;enable-background:new    ;}
	.st4{fill:url(#SVGID_00000069366009594144120120000005172455187701561989_);}
	.st5{opacity:0.3;fill:#D0E6FF;enable-background:new    ;}
	.st6{fill:url(#SVGID_00000033330668047477427580000001147174152306828211_);}
	.st7{opacity:0.3;fill:#FFFFFF;enable-background:new    ;}
	.st8{fill:#687076;}
</style>
<g>
	<path class="st0" d="M31.2,27l-15.6-9V0l15.6,9V27z"/>
	<path class="st1" d="M0,27l15.6-9V0L0,9V27z"/>
	
		<linearGradient id="SVGID_1_" gradientUnits="userSpaceOnUse" x1="0.5838" y1="16.6366" x2="31.0082" y2="23.4372" gradientTransform="matrix(1 0 0 -1 0 38)">
		<stop  offset="0" style="stop-color:#C132CE"/>
		<stop  offset="1" style="stop-color:#425AFA"/>
	</linearGradient>
	<path class="st2" d="M15.6,27l15.6-9L15.6,9L0,18L15.6,27z"/>
	<path class="st3" d="M15.6,36L0,27V9l15.6,9V36z"/>
	
		<linearGradient id="SVGID_00000051342142352281228420000014239414145845821097_" gradientUnits="userSpaceOnUse" x1="5.9954" y1="16.9842" x2="10.4828" y2="2.0561" gradientTransform="matrix(1 0 0 -1 0 38)">
		<stop  offset="0" style="stop-color:#425AFA"/>
		<stop  offset="0.16" style="stop-color:#5A52F2"/>
		<stop  offset="0.55" style="stop-color:#9241DE"/>
		<stop  offset="0.84" style="stop-color:#B436D3"/>
		<stop  offset="1" style="stop-color:#C132CE"/>
	</linearGradient>
	<path style="fill:url(#SVGID_00000051342142352281228420000014239414145845821097_);" d="M0,27l15.6,9v-9L0,18V27z"/>
	<path class="st5" d="M15.6,36l15.6-9V9l-15.6,9V36z"/>
	
		<linearGradient id="SVGID_00000134241509824311280220000000377286090988085946_" gradientUnits="userSpaceOnUse" x1="18.3494" y1="4.817" x2="28.2903" y2="17.0142" gradientTransform="matrix(1 0 0 -1 0 38)">
		<stop  offset="0" style="stop-color:#C132CE"/>
		<stop  offset="0.1" style="stop-color:#AB39D6"/>
		<stop  offset="0.28" style="stop-color:#8545E3"/>
		<stop  offset="0.47" style="stop-color:#684EED"/>
		<stop  offset="0.65" style="stop-color:#5355F4"/>
		<stop  offset="0.83" style="stop-color:#4659F9"/>
		<stop  offset="1" style="stop-color:#425AFA"/>
	</linearGradient>
	<path style="fill:url(#SVGID_00000134241509824311280220000000377286090988085946_);" d="M31.2,27l-15.6,9v-9l15.6-9V27z"/>
	<path class="st7" d="M15.6,18l15.6-9L15.6,0L0,9L15.6,18z"/>
</g>
<path d="M37,8.5c0.8-0.1,1.5-0.1,2.3,0l0.2,1.5h0.1c0.3-1.2,1.5-1.7,3.1-1.7c0.1,0.6,0.1,1.6,0,2.2c-2,0-2.6,0.4-3.1,1.7v5.6
	c-0.6,0.1-2,0.1-2.6,0V8.5L37,8.5z"/>
<path d="M52.2,14c-1.2,0.1-4,0.1-5.5,0v0.5c0,1.3,0.7,1.5,2.3,1.5c1.1,0,1.8-0.1,2.8-0.3c0.1,0.6,0.1,1.5,0,2.1
	c-1.3,0.2-2.3,0.3-3.5,0.3c-2.6,0-4.2-0.8-4.2-3.1v-3.6c0-2.4,1.7-3.1,4.1-3.1c2.4,0,4,1,4,3.6V14z M49.7,11.8
	c0-1.2-0.7-1.4-1.5-1.4c-0.8,0-1.5,0.1-1.5,1.4v0.7l1.4-0.1h1.6V11.8L49.7,11.8z"/>
<path d="M60.8,15.7c0,1.8-1.4,2.4-3.6,2.4c-1,0-2.1-0.1-3.1-0.3c-0.1-0.7-0.1-1.4,0-2c1,0.2,2,0.2,2.7,0.2c0.7,0,1.4-0.1,1.4-0.7
	v-0.3c0-0.5-0.4-0.6-1-0.8l-1.6-0.5c-1-0.3-1.6-0.9-1.6-2.1v-1c0-1.7,1.4-2.3,3.7-2.3c0.9,0,1.8,0.1,2.9,0.3c0.1,0.7,0.1,1.4,0,2
	c-1.1-0.2-1.8-0.3-2.6-0.3c-0.8,0-1.4,0.1-1.4,0.7v0.3c0,0.5,0.4,0.6,1,0.8l1.5,0.4c1.1,0.3,1.7,0.9,1.7,2.2V15.7L60.8,15.7z"/>
<path d="M70.9,14c-1.2,0.1-4,0.1-5.5,0v0.5c0,1.3,0.7,1.5,2.3,1.5c1.1,0,1.8-0.1,2.8-0.3c0.1,0.6,0.1,1.5,0,2.1
	c-1.3,0.2-2.3,0.3-3.5,0.3c-2.6,0-4.2-0.8-4.2-3.1v-3.6c0-2.4,1.7-3.1,4.1-3.1c2.4,0,4,1,4,3.6V14z M68.3,11.8
	c0-1.2-0.7-1.4-1.5-1.4s-1.5,0.1-1.5,1.4v0.7l1.4-0.1h1.6V11.8z"/>
<path d="M73.1,8.5c0.8-0.1,1.5-0.1,2.3,0l0.2,1.5h0.1c0.3-1.2,1.5-1.7,3.1-1.7c0.1,0.6,0.1,1.6,0,2.2c-2,0-2.6,0.4-3.1,1.7v5.6
	c-0.6,0.1-2,0.1-2.6,0V8.5L73.1,8.5z"/>
<path d="M80.5,8.6c0.6-0.1,2-0.1,2.6,0l2,7l2-7c0.6-0.1,1.9-0.1,2.5,0l-2.9,9.3c-0.8,0.1-2.5,0.1-3.3,0L80.5,8.6z"/>
<path d="M99.5,15.1c0,2.2-1.7,3-4.2,3c-2.5,0-4.2-0.8-4.2-3v-3.7c0-2.3,1.7-3.1,4.2-3.1c2.5,0,4.2,0.7,4.2,3.1V15.1z M96.9,11.9
	c0-1.2-0.8-1.4-1.6-1.4c-0.9,0-1.6,0.1-1.6,1.4v2.6c0,1.2,0.7,1.4,1.6,1.4c0.9,0,1.6-0.1,1.6-1.4V11.9z"/>
<path d="M104.6,7.1c-0.6,0.1-2.1,0.1-2.7,0l0-2.1c0.7-0.1,2.2-0.1,2.8,0L104.6,7.1z M101.9,8.6c0.6-0.1,2-0.1,2.6,0v9.3
	c-0.6,0.1-2,0.1-2.6,0V8.6z"/>
<path d="M107.2,8.5c0.8-0.1,1.5-0.1,2.3,0l0.2,1.5h0.1c0.3-1.2,1.5-1.7,3.1-1.7c0.1,0.6,0.1,1.6,0,2.2c-2,0-2.6,0.4-3.1,1.7v5.6
	c-0.6,0.1-2,0.1-2.6,0V8.5L107.2,8.5z"/>
<path class="st8" d="M42.9,26.9c0.4,0,1.2,0,1.6,0v-3.6c0-1-0.7-1.4-1.5-1.4c-0.7,0-1.3,0.2-1.4,0.8h-0.1c-0.2-0.6-0.8-0.8-1.4-0.8
	c-0.7,0-1.3,0.2-1.4,0.8h-0.1L38.4,22c-0.4,0-1.1,0-1.4,0v4.9c0.4,0,1.2,0,1.6,0v-3c0.1-0.5,0.3-0.6,0.7-0.6c0.4,0,0.6,0.1,0.6,0.8
	v2.8c0.4,0,1.2,0,1.6,0v-3c0.1-0.5,0.3-0.6,0.7-0.6c0.4,0,0.6,0.1,0.6,0.8V26.9z"/>
<path class="st8" d="M48.5,26.9c0.4,0,1.1,0,1.4,0v-3.4c0-1.2-0.8-1.6-2.3-1.6c-0.6,0-1.2,0-1.9,0.2c0,0.4,0,0.8,0,1.2
	c0.6-0.1,1-0.1,1.4-0.1c0.9,0,1.2,0.3,1.2,0.7v0.2C47.9,24,47.6,24,47.1,24c-1,0-1.7,0.3-1.7,1.6c0,1,0.7,1.4,1.5,1.4
	c0.7,0,1.3-0.2,1.4-0.8h0.1L48.5,26.9z M48.3,25.4c-0.2,0.3-0.4,0.4-0.8,0.4c-0.3,0-0.6,0-0.6-0.5c0-0.4,0.3-0.5,0.7-0.5
	c0.2,0,0.4,0,0.7,0.1V25.4z"/>
<path class="st8" d="M51,26.9c0.4,0,1.2,0,1.6,0v-2.7c0.3-0.7,0.5-0.9,1.6-0.9c0-0.4,0-1,0-1.4c-0.9,0-1.5,0.3-1.6,0.9h-0.1L52.4,22
	c-0.5,0-1,0-1.4,0V26.9z"/>
<path class="st8" d="M58,26.9c0.4,0,1.4,0,1.7,0l-1.6-2.7l1.5-2.2c-0.4,0-1.4,0-1.7,0L57,23.5l-0.4,0.1v-3.3c-0.4,0-1.2,0-1.6,0v6.6
	c0.4,0,1.2,0,1.6,0v-2l0.4-0.1L58,26.9z"/>
<path class="st8" d="M64.7,23.8c0-1.4-1-1.9-2.2-1.9c-1.3,0-2.2,0.4-2.2,1.7v1.8c0,1.2,0.9,1.6,2.3,1.6c0.6,0,1.2-0.1,1.9-0.2
	c0-0.4,0-0.9,0-1.2c-0.5,0.1-0.9,0.1-1.4,0.1c-0.8,0-1.1-0.1-1.1-0.7v-0.1c0.8,0,2.2,0,2.8,0V23.8z M63.1,24h-0.7l-0.5,0v-0.3
	c0-0.5,0.3-0.6,0.6-0.6c0.3,0,0.6,0.1,0.6,0.6V24z"/>
<path class="st8" d="M68.7,23.3c0-0.4,0-0.8,0-1.2h-1.1v-1.2c-0.4,0-1.2,0-1.6,0v1.2l-0.6,0c0,0.4,0,0.8,0,1.2H66v2.1
	c0,1.2,0.8,1.6,1.8,1.6c0.4,0,0.6,0,1-0.1c0-0.4,0-0.9,0-1.3c-0.2,0-0.4,0-0.5,0c-0.3,0-0.6,0-0.6-0.8v-1.6H68.7z"/>
</svg>
