<svg width="113" height="36" viewBox="0 0 113 36" fill="none" xmlns="http://www.w3.org/2000/svg">
<path d="M31.1703 27.0083L15.5938 17.9999V0L31.1703 9.00833V27.0083Z" fill="#80D8FF"/>
<path d="M0 27.0083L15.5933 17.9999V0L0 9.00833V27.0083Z" fill="#7ACFFF"/>
<path d="M15.5933 27.0084L31.1698 18.0001L15.5933 9.00848L0 18.0001L15.5933 27.0084Z" fill="url(#paint0_linear_1118_2669)"/>
<path opacity="0.3" d="M15.5933 36L0 27.0084V9.00848L15.5933 18.0001V36Z" fill="#E4F0FE"/>
<path d="M0 27.0081L15.5933 35.9997V27.0081L0 17.9998V27.0081Z" fill="url(#paint1_linear_1118_2669)"/>
<path opacity="0.3" d="M15.5938 36L31.1703 27.0084V9.00848L15.5938 18.0001V36Z" fill="#D0E6FF"/>
<path d="M31.1703 27.0081L15.5938 35.9997V27.0081L31.1703 17.9998V27.0081Z" fill="url(#paint2_linear_1118_2669)"/>
<path opacity="0.3" d="M15.5933 17.9999L31.1698 9.00833L15.5933 0L0 9.00833L15.5933 17.9999Z" fill="white"/>
<path d="M37.0003 8.5188C37.7591 8.4646 38.5179 8.4646 39.2947 8.5188L39.4573 10.0544H39.5657C39.8548 8.84399 41.0291 8.33813 42.6731 8.33813C42.7454 8.95239 42.7454 9.96409 42.6731 10.5783C40.6316 10.5783 40.0716 10.9939 39.5838 12.2946V17.9132C38.9515 18.0036 37.6146 18.0036 37.0003 17.9132V8.5188Z" fill="white"/>
<path d="M52.2122 14.0109C51.0018 14.1013 48.2196 14.1193 46.6659 14.029V14.4806C46.6659 15.7634 47.4066 15.9982 48.9603 15.9982C50.0262 15.9982 50.785 15.9079 51.7967 15.7092C51.8689 16.3234 51.8689 17.1906 51.7967 17.8048C50.532 18.0216 49.5203 18.13 48.328 18.13C45.7264 18.13 44.0824 17.3532 44.0824 15.0588V11.4455C44.0824 9.04272 45.8168 8.33813 48.2196 8.33813C50.6043 8.33813 52.2122 9.34984 52.2122 11.9333V14.0109ZM49.6829 11.8249C49.6829 10.5964 48.9783 10.4519 48.1834 10.4519C47.3885 10.4519 46.6659 10.5964 46.6659 11.8249V12.5295L48.057 12.4392H49.6829V11.8249Z" fill="white"/>
<path d="M60.8115 15.7092C60.8115 17.4616 59.4385 18.13 57.1983 18.13C56.2408 18.13 55.1387 18.0578 54.1089 17.8771C54.0186 17.2267 54.0186 16.486 54.1089 15.8537C55.0845 16.0163 56.0601 16.0705 56.8189 16.0705C57.5415 16.0705 58.228 16.0163 58.228 15.402V15.0588C58.228 14.5348 57.8667 14.4445 57.2525 14.2819L55.6265 13.8122C54.5967 13.5231 54.0367 12.8728 54.0367 11.6804V10.6867C54.0367 9.00658 55.482 8.33813 57.7764 8.33813C58.6797 8.33813 59.6191 8.4104 60.667 8.62719C60.7573 9.27758 60.7573 10.0002 60.667 10.6325C59.5649 10.4338 58.8604 10.3796 58.0654 10.3796C57.2886 10.3796 56.6202 10.4338 56.6202 11.0481V11.3913C56.6202 11.843 57.0357 12.0056 57.5957 12.1682L59.1133 12.5837C60.2334 12.8908 60.8115 13.4509 60.8115 14.8239V15.7092Z" fill="white"/>
<path d="M70.8565 14.0109C69.646 14.1013 66.8639 14.1193 65.3102 14.029V14.4806C65.3102 15.7634 66.0509 15.9982 67.6046 15.9982C68.6705 15.9982 69.4293 15.9079 70.441 15.7092C70.5132 16.3234 70.5132 17.1906 70.441 17.8048C69.1763 18.0216 68.1646 18.13 66.9722 18.13C64.3707 18.13 62.7267 17.3532 62.7267 15.0588V11.4455C62.7267 9.04272 64.461 8.33813 66.8639 8.33813C69.2486 8.33813 70.8565 9.34984 70.8565 11.9333V14.0109ZM68.3272 11.8249C68.3272 10.5964 67.6226 10.4519 66.8277 10.4519C66.0328 10.4519 65.3102 10.5964 65.3102 11.8249V12.5295L66.7013 12.4392H68.3272V11.8249Z" fill="white"/>
<path d="M73.1142 8.5188C73.873 8.4646 74.6318 8.4646 75.4086 8.5188L75.5712 10.0544H75.6796C75.9687 8.84399 77.143 8.33813 78.787 8.33813C78.8593 8.95239 78.8593 9.96409 78.787 10.5783C76.7455 10.5783 76.1855 10.9939 75.6977 12.2946V17.9132C75.0654 18.0036 73.7284 18.0036 73.1142 17.9132V8.5188Z" fill="white"/>
<path d="M80.5222 8.59051C81.1545 8.50018 82.4914 8.50018 83.1056 8.59051L85.0748 15.546L87.026 8.59051C87.6402 8.50018 88.923 8.50018 89.5372 8.59051L86.6647 17.9127C85.8698 18.003 84.2077 18.003 83.4128 17.9127L80.5222 8.59051Z" fill="white"/>
<path d="M99.5275 15.1125C99.5275 17.3528 97.8293 18.1296 95.3 18.1296C92.7707 18.1296 91.0725 17.3528 91.0725 15.1125V11.3909C91.0725 9.06036 92.7707 8.33771 95.3 8.33771C97.8293 8.33771 99.5275 9.06036 99.5275 11.3909V15.1125ZM96.944 11.9148C96.944 10.6682 96.1852 10.5237 95.3 10.5237C94.3967 10.5237 93.656 10.6682 93.656 11.9148V14.5525C93.656 15.781 94.3967 15.9255 95.3 15.9255C96.1852 15.9255 96.944 15.781 96.944 14.5525V11.9148Z" fill="white"/>
<path d="M104.568 7.1273C103.935 7.21763 102.508 7.21763 101.858 7.1273L101.822 5.06775C102.472 4.97742 103.972 4.97742 104.622 5.06775L104.568 7.1273ZM101.93 8.59066C102.544 8.50033 103.881 8.50033 104.514 8.59066V17.9128C103.881 18.0032 102.544 18.0032 101.93 17.9128V8.59066Z" fill="white"/>
<path d="M107.151 8.51837C107.91 8.46417 108.669 8.46417 109.446 8.51837L109.608 10.054H109.717C110.006 8.84356 111.18 8.33771 112.824 8.33771C112.896 8.95196 112.896 9.96367 112.824 10.5779C110.783 10.5779 110.222 10.9934 109.735 12.2942V17.9128C109.102 18.0031 107.765 18.0031 107.151 17.9128V8.51837Z" fill="white"/>
<path d="M42.9318 26.8886C43.3124 26.935 44.1571 26.935 44.5377 26.8886V23.3054C44.5377 22.275 43.8786 21.9223 43.006 21.9223C42.2912 21.9223 41.725 22.1265 41.5579 22.7206H41.4743C41.2701 22.1358 40.7132 21.9223 40.0355 21.9223C39.3207 21.9223 38.7545 22.1265 38.5967 22.7206H38.5317L38.4388 22.0151C38.0675 21.978 37.3713 21.978 37 22.0151V26.8886C37.3806 26.935 38.2253 26.935 38.6059 26.8886V23.8717C38.7266 23.389 38.9216 23.2776 39.3486 23.2776C39.7013 23.2776 39.9612 23.3797 39.9612 24.0852V26.8886C40.3326 26.935 41.1866 26.935 41.5672 26.8886V23.8717C41.6971 23.389 41.8921 23.2776 42.3098 23.2776C42.6811 23.2776 42.9318 23.3797 42.9318 24.0852V26.8886Z" fill="#9BA1A6"/>
<path d="M48.4897 26.935C48.8611 26.9815 49.5573 26.9815 49.9379 26.935V23.5561C49.9379 22.3122 49.1488 21.9223 47.6357 21.9223C47.0323 21.9223 46.4661 21.9594 45.7699 22.0894C45.7234 22.47 45.7234 22.9341 45.7699 23.3147C46.3268 23.2219 46.7817 23.1848 47.1344 23.1848C48.0534 23.1848 48.3319 23.4354 48.3319 23.8717V24.0852C47.9049 24.0295 47.5707 24.0017 47.0973 24.0017C46.0855 24.0017 45.3707 24.2801 45.3707 25.6076C45.3707 26.6101 46.0391 27 46.9116 27C47.6357 27 48.202 26.7772 48.3412 26.211H48.4062L48.4897 26.935ZM48.3319 25.4405C48.1741 25.7375 47.9142 25.8489 47.5429 25.8489C47.2273 25.8489 46.9766 25.8025 46.9766 25.3941C46.9766 24.9671 47.2273 24.9114 47.6636 24.9114C47.8307 24.9114 48.0906 24.9392 48.3319 24.9949V25.4405Z" fill="#9BA1A6"/>
<path d="M51.0059 26.8886C51.3865 26.935 52.2312 26.935 52.6118 26.8886V24.178C52.8625 23.5097 53.1502 23.2962 54.2178 23.2962C54.2549 22.9248 54.2549 22.3029 54.2178 21.9223C53.3452 21.9223 52.7511 22.1915 52.6026 22.832H52.5376L52.4447 22.0151C51.962 21.9873 51.4886 21.9873 51.0059 22.0151V26.8886Z" fill="#9BA1A6"/>
<path d="M58.05 26.8886C58.4213 26.935 59.4332 26.935 59.7952 26.8886L58.2357 24.1409L59.7395 21.978C59.3775 21.9316 58.3842 21.9316 58.0222 21.978L56.9546 23.5004L56.5462 23.5654V20.2421C56.1656 20.1957 55.3208 20.1957 54.9403 20.2421V26.8886C55.3208 26.935 56.1656 26.935 56.5462 26.8886V24.9299L56.8989 24.8742L58.05 26.8886Z" fill="#9BA1A6"/>
<path d="M64.6953 23.8067C64.6953 22.3771 63.6835 21.9223 62.5417 21.9223C61.2421 21.9223 60.3138 22.2936 60.3138 23.5839V25.357C60.3138 26.5916 61.2142 27 62.616 27C63.2658 27 63.7949 26.9443 64.4725 26.8236C64.5189 26.4523 64.5189 25.9696 64.4725 25.589C63.9527 25.6819 63.5535 25.7375 63.0337 25.7375C62.2168 25.7375 61.9197 25.6076 61.9197 25.0321V24.9299C62.6902 24.9764 64.1012 24.9764 64.6953 24.9207V23.8067ZM63.1358 24.0295H62.4674L61.9197 24.0759V23.7789C61.9197 23.2497 62.2168 23.1848 62.5231 23.1848C62.8387 23.1848 63.1358 23.2497 63.1358 23.7881V24.0295Z" fill="#9BA1A6"/>
<path d="M68.7084 23.259C68.7548 22.8877 68.7548 22.4143 68.7084 22.0337H67.5759V20.864C67.1953 20.8176 66.3506 20.8176 65.97 20.864V22.0615L65.3387 22.1079C65.2923 22.4793 65.2923 22.8877 65.3387 23.259H65.97V25.3848C65.97 26.6287 66.8054 27 67.743 27C68.0958 27 68.3928 26.9722 68.7084 26.9072C68.7548 26.5359 68.7548 25.9789 68.7084 25.6076C68.5506 25.6354 68.3557 25.654 68.1979 25.654C67.873 25.654 67.5759 25.6076 67.5759 24.8185V23.259H68.7084Z" fill="#9BA1A6"/>
<defs>
<linearGradient id="paint0_linear_1118_2669" x1="0.583201" y1="21.3607" x2="31.0076" y2="14.5602" gradientUnits="userSpaceOnUse">
<stop stop-color="#C132CE"/>
<stop offset="1" stop-color="#425AFA"/>
</linearGradient>
<linearGradient id="paint1_linear_1118_2669" x1="5.99349" y1="21.0164" x2="10.4809" y2="35.9445" gradientUnits="userSpaceOnUse">
<stop stop-color="#425AFA"/>
<stop offset="0.16" stop-color="#5A52F2"/>
<stop offset="0.55" stop-color="#9241DE"/>
<stop offset="0.84" stop-color="#B436D3"/>
<stop offset="1" stop-color="#C132CE"/>
</linearGradient>
<linearGradient id="paint2_linear_1118_2669" x1="18.3486" y1="33.1823" x2="28.2895" y2="20.9851" gradientUnits="userSpaceOnUse">
<stop stop-color="#C132CE"/>
<stop offset="0.1" stop-color="#AB39D6"/>
<stop offset="0.28" stop-color="#8545E3"/>
<stop offset="0.47" stop-color="#684EED"/>
<stop offset="0.65" stop-color="#5355F4"/>
<stop offset="0.83" stop-color="#4659F9"/>
<stop offset="1" stop-color="#425AFA"/>
</linearGradient>
</defs>
</svg>
