<?xml version="1.0" encoding="utf-8"?>
<svg version="1.1" id="Layer_1" x="0px" y="0px" viewBox="0 0 512 512" style="enable-background:new 0 0 512 512;" xmlns="http://www.w3.org/2000/svg">
  <g/>
  <g/>
  <g/>
  <g/>
  <g/>
  <g/>
  <g/>
  <g/>
  <g/>
  <g/>
  <g/>
  <g/>
  <g/>
  <g/>
  <g/>
  <path id="path0" d="M 36.846 122.936 C 36.846 123.406 37.106 123.789 37.411 123.789 C 37.729 123.789 37.983 123.406 37.983 122.936 C 37.983 122.467 37.729 122.084 37.411 122.084 C 37.106 122.084 36.846 122.467 36.846 122.936 M 192.683 319.989 C 158.035 354.508 129.429 383.041 129.113 383.389 C 127.65 385.051 57.41 454.959 35.684 476.39 C 2.413 509.212 2.239 509.391 2.224 510.886 L 2.213 512.16 L 128.757 512.16 L 255.293 512.16 L 255.649 509.565 C 255.997 507.036 256.191 257.218 255.844 257.218 C 255.753 257.218 227.325 285.463 192.683 319.989" stroke="none" fill="#2ccce4" fill-rule="evenodd" style=""/>
  <path id="path1" d="M 245.795 129.482 C 216.332 131.991 190.092 143.688 168.656 163.865 C 146.578 184.65 133.427 211.194 129.434 243.023 C 128.594 249.718 128.589 382.705 129.429 382.705 C 130.377 382.705 382.071 130.729 382.071 129.779 C 382.071 128.852 256.36 128.585 245.795 129.482 M 340.622 501.942 C 340.622 502.696 340.999 503.079 341.753 503.079 C 342.512 503.079 342.889 502.696 342.889 501.942 C 342.889 501.181 342.512 500.805 341.753 500.805 C 340.999 500.805 340.622 501.181 340.622 501.942 M -5.735 504.537 C -5.735 506.398 -3.839 506.234 -3.569 504.348 C -3.43 503.38 -3.666 503.079 -4.558 503.079 C -5.45 503.079 -5.735 503.44 -5.735 504.537 M -2.044 506.479 C -2.564 507.331 -1.841 508.188 -0.596 508.188 C 0.129 508.188 0.511 507.796 0.511 507.051 C 0.511 505.848 -1.391 505.423 -2.044 506.479 M -8.576 510.176 C -8.576 511.915 -8.402 512.16 -7.152 512.16 C -5.915 512.16 -5.735 511.915 -5.735 510.176 C -5.735 508.432 -5.915 508.188 -7.152 508.188 C -8.402 508.188 -8.576 508.432 -8.576 510.176 M 249.206 513.543 C 249.206 514.582 249.49 514.909 250.338 514.841 C 251.118 514.787 251.475 514.352 251.475 513.461 C 251.475 512.537 251.142 512.16 250.338 512.16 C 249.512 512.16 249.206 512.537 249.206 513.543 M 254.309 513.577 C 254.309 514.623 254.614 515 255.452 515 C 256.282 515 256.588 514.623 256.588 513.577 C 256.588 512.537 256.282 512.16 255.452 512.16 C 254.614 512.16 254.309 512.537 254.309 513.577" stroke="none" fill="#fbfbfb" fill-rule="evenodd" style=""/>
  <path id="path2" d="M 244.097 0.581 C 244.097 0.931 240.966 1.146 235.845 1.146 C 229.034 1.146 227.534 1.299 227.264 1.998 C 227.011 2.651 225.912 2.849 222.462 2.849 C 219.85 2.849 217.978 3.083 217.978 3.419 C 217.978 3.737 216.366 3.986 214.282 3.986 C 212.202 3.986 210.596 4.23 210.596 4.552 C 210.596 4.873 208.887 5.124 206.624 5.124 C 204.346 5.124 202.646 5.357 202.646 5.684 C 202.646 6.004 201.611 6.255 200.357 6.255 C 198.847 6.255 197.954 6.546 197.742 7.113 C 197.517 7.688 196.609 7.958 194.916 7.958 C 193.545 7.958 192.422 8.212 192.422 8.528 C 192.422 8.84 191.271 9.101 189.868 9.101 C 188.465 9.101 187.313 9.35 187.313 9.661 C 187.313 9.972 186.442 10.227 185.376 10.227 C 184.31 10.227 183.351 10.483 183.244 10.798 C 183.136 11.109 181.969 11.4 180.639 11.457 C 179.053 11.517 178.231 11.808 178.231 12.313 C 178.231 12.798 177.519 13.067 176.243 13.067 C 175.153 13.067 174.254 13.322 174.254 13.633 C 174.254 13.95 173.382 14.205 172.311 14.205 C 171.246 14.205 170.289 14.453 170.181 14.771 C 170.078 15.077 169.288 15.388 168.437 15.459 C 167.575 15.53 166.876 15.912 166.876 16.314 C 166.876 16.77 166.122 17.039 164.887 17.039 C 163.797 17.039 162.899 17.299 162.899 17.611 C 162.899 17.927 162.263 18.176 161.477 18.176 C 160.701 18.176 160.06 18.437 160.06 18.743 C 160.06 19.059 159.293 19.32 158.356 19.32 C 157.418 19.32 156.652 19.568 156.652 19.886 C 156.652 20.196 156.017 20.456 155.235 20.456 C 154.349 20.456 153.809 20.772 153.809 21.303 C 153.809 21.826 153.277 22.153 152.395 22.153 C 151.611 22.153 150.972 22.414 150.972 22.719 C 150.972 23.037 150.462 23.291 149.841 23.291 C 149.214 23.291 148.704 23.545 148.704 23.858 C 148.704 24.168 148.087 24.423 147.331 24.423 C 146.572 24.423 145.875 24.677 145.771 24.989 C 145.665 25.299 144.885 25.611 144.032 25.682 C 143.181 25.748 142.36 26.131 142.207 26.538 C 142.049 26.937 141.463 27.264 140.898 27.264 C 140.332 27.264 139.506 27.772 139.051 28.395 C 138.602 29.022 137.655 29.532 136.94 29.532 C 136.227 29.532 135.646 29.791 135.646 30.097 C 135.646 30.414 135.134 30.674 134.513 30.674 C 133.881 30.674 133.376 31.047 133.376 31.521 C 133.376 32.052 132.841 32.372 131.953 32.372 C 131.172 32.372 130.537 32.627 130.537 32.942 C 130.537 33.26 130.117 33.509 129.602 33.509 C 129.092 33.509 128.083 34.147 127.364 34.927 C 126.64 35.708 125.656 36.35 125.166 36.35 C 124.688 36.35 124.291 36.604 124.291 36.915 C 124.291 37.227 123.709 37.487 122.99 37.487 C 122.285 37.487 121.331 37.996 120.877 38.62 C 120.429 39.241 119.599 39.752 119.037 39.752 C 118.471 39.752 117.865 40.138 117.68 40.608 C 117.503 41.076 116.927 41.458 116.406 41.458 C 115.882 41.458 115.085 41.974 114.638 42.596 C 114.183 43.218 113.219 43.729 112.485 43.729 C 111.752 43.729 111.316 43.976 111.511 44.3 C 111.71 44.615 111.466 44.866 110.975 44.866 C 110.49 44.866 110.094 45.14 110.094 45.472 C 110.094 46.389 108.6 47.704 107.554 47.704 C 107.049 47.704 105.974 48.358 105.179 49.158 C 104.378 49.959 103.369 50.482 102.934 50.316 C 102.501 50.142 102.145 50.275 102.145 50.587 C 102.145 51.345 99.523 53.951 98.759 53.951 C 98.437 53.951 98.166 54.332 98.166 54.798 C 98.166 55.267 97.712 55.655 97.158 55.655 C 96.603 55.655 95.782 56.165 95.331 56.787 C 94.878 57.419 94.297 57.922 94.026 57.922 C 93.466 57.922 91.926 59.377 91.926 59.912 C 91.926 60.62 90.289 61.901 89.381 61.901 C 88.362 61.901 85.674 64.353 85.674 65.282 C 85.674 65.602 85.395 65.879 85.047 65.879 C 84.344 65.879 80.571 69.804 80.571 70.528 C 80.571 70.779 80.299 70.981 79.979 70.981 C 79.204 70.981 76.594 73.594 76.594 74.362 C 76.594 74.694 76.059 74.959 75.405 74.959 C 74.696 74.959 74.101 75.413 73.916 76.096 C 73.754 76.724 73.147 77.234 72.555 77.234 C 71.789 77.234 71.479 77.642 71.479 78.65 C 71.479 79.43 71.274 80.069 71.03 80.069 C 70.302 80.069 66.374 83.846 66.374 84.545 C 66.374 84.896 66.145 85.178 65.869 85.178 C 64.961 85.178 61.265 89.385 61.265 90.415 C 61.265 90.971 60.939 91.429 60.546 91.429 C 60.149 91.429 59.339 92.081 58.741 92.878 C 56.753 95.53 55.748 96.533 55.091 96.533 C 54.738 96.533 54.448 97.054 54.448 97.692 C 54.448 98.322 53.557 99.741 52.464 100.831 C 51.369 101.928 50.482 103.091 50.482 103.428 C 50.482 103.754 49.706 104.742 48.768 105.62 C 47.835 106.497 47.065 107.747 47.065 108.404 C 47.065 109.062 46.795 109.592 46.463 109.592 C 45.449 109.592 44.23 111.141 44.23 112.427 C 44.23 113.094 43.975 113.478 43.658 113.284 C 43.347 113.094 43.088 113.223 43.088 113.578 C 43.088 114.39 41.664 115.844 40.865 115.844 C 40.528 115.844 40.253 116.475 40.253 117.261 C 40.253 118.041 39.998 118.678 39.687 118.678 C 39.375 118.678 39.121 119.189 39.121 119.821 C 39.121 120.437 38.866 120.947 38.554 120.947 C 38.237 120.947 37.983 121.483 37.983 122.125 C 37.983 123.384 36.754 124.924 35.75 124.924 C 35.418 124.924 35.149 125.435 35.149 126.062 C 35.149 126.685 34.888 127.198 34.579 127.198 C 34.26 127.198 34.013 127.836 34.013 128.617 C 34.013 129.396 33.752 130.039 33.444 130.039 C 33.129 130.039 32.869 130.565 32.869 131.212 C 32.869 132.466 31.646 134.012 30.646 134.012 C 30.305 134.012 30.034 134.52 30.034 135.144 C 30.034 135.77 29.774 136.28 29.468 136.28 C 29.151 136.28 28.899 136.918 28.899 137.698 C 28.899 138.479 28.642 139.115 28.332 139.115 C 28.019 139.115 27.765 139.604 27.765 140.191 C 27.765 140.783 27.383 141.421 26.914 141.593 C 26.44 141.778 26.057 142.444 26.057 143.077 C 26.057 143.708 25.802 144.229 25.491 144.229 C 25.185 144.229 24.924 144.729 24.924 145.331 C 24.924 145.937 24.67 146.59 24.354 146.784 C 24.043 146.972 23.792 147.63 23.792 148.237 C 23.792 148.845 23.533 149.339 23.221 149.339 C 22.905 149.339 22.656 150.236 22.656 151.328 C 22.656 152.715 22.395 153.315 21.805 153.315 C 21.329 153.315 20.947 153.821 20.947 154.447 C 20.947 155.075 20.696 155.585 20.376 155.585 C 20.07 155.585 19.816 156.222 19.816 157.003 C 19.816 157.782 19.561 158.426 19.25 158.426 C 18.928 158.426 18.677 158.941 18.677 159.562 C 18.677 160.185 18.418 160.693 18.112 160.693 C 17.796 160.693 17.541 161.592 17.541 162.682 C 17.541 164.07 17.282 164.672 16.69 164.672 C 16.099 164.672 15.839 165.269 15.839 166.661 C 15.839 167.751 15.584 168.644 15.273 168.644 C 14.961 168.644 14.701 169.286 14.701 170.067 C 14.701 170.848 14.446 171.483 14.136 171.483 C 13.824 171.483 13.569 172.605 13.569 173.977 C 13.569 175.67 13.288 176.578 12.712 176.797 C 12.243 176.981 11.866 177.756 11.866 178.53 C 11.866 179.301 11.605 180.096 11.3 180.285 C 10.988 180.48 10.729 181.397 10.729 182.341 C 10.729 183.328 10.495 183.894 10.158 183.691 C 9.816 183.473 9.593 184.441 9.593 186.214 C 9.593 187.795 9.342 189.087 9.021 189.087 C 8.714 189.087 8.459 190.233 8.459 191.64 C 8.459 193.532 8.236 194.195 7.604 194.195 C 6.971 194.195 6.757 194.858 6.757 196.75 C 6.757 198.158 6.497 199.31 6.185 199.31 C 5.875 199.31 5.62 200.458 5.62 201.865 C 5.62 203.267 5.366 204.413 5.049 204.413 C 4.727 204.413 4.483 206.116 4.483 208.39 C 4.483 210.664 4.243 212.362 3.916 212.362 C 3.591 212.362 3.346 214.071 3.346 216.34 C 3.346 219.491 3.172 220.313 2.494 220.313 C 1.8 220.313 1.642 221.262 1.642 225.426 C 1.642 228.456 1.412 230.537 1.077 230.537 C 0.699 230.537 0.511 277.855 0.511 371.351 C 0.511 496.133 0.607 512.16 1.358 512.16 C 1.863 512.16 2.219 511.634 2.224 510.886 C 2.239 509.391 2.413 509.212 35.684 476.39 C 49.139 463.116 75.599 436.924 94.49 418.184 L 128.833 384.117 L 128.848 314.569 C 128.869 241.729 128.857 241.967 131.362 229.683 C 139.251 190.977 168.946 154.728 205.2 139.569 C 215.976 135.062 223.257 132.859 234.372 130.743 L 242.107 129.263 L 311.883 129.049 C 361.526 128.898 381.845 129.019 382.28 129.452 C 382.723 129.891 365.03 147.855 319.454 193.227 L 256.018 256.391 L 256.002 380.162 C 255.997 448.235 255.869 505.78 255.731 508.051 L 255.477 512.16 L 266.537 512.16 C 273.526 512.16 277.597 511.951 277.597 511.594 C 277.597 511.258 279.861 511.022 283.271 511.022 C 287.941 511.022 288.952 510.871 288.952 510.176 C 288.952 509.488 289.83 509.32 293.495 509.32 C 296.147 509.32 298.033 509.086 298.033 508.759 C 298.033 508.432 299.641 508.188 301.725 508.188 C 303.812 508.188 305.416 507.938 305.416 507.621 C 305.416 507.306 306.932 507.051 308.824 507.051 C 310.715 507.051 312.228 506.796 312.228 506.479 C 312.228 506.174 313.375 505.913 314.783 505.913 C 316.68 505.913 317.339 505.695 317.339 505.067 C 317.339 504.43 318.003 504.21 319.894 504.21 C 321.301 504.21 322.448 503.955 322.448 503.644 C 322.448 503.333 323.595 503.079 325.003 503.079 C 326.409 503.079 327.563 502.818 327.563 502.508 C 327.563 502.197 328.456 501.942 329.55 501.942 C 330.642 501.942 331.534 501.687 331.534 501.377 C 331.534 501.059 332.687 500.805 334.088 500.805 C 335.98 500.805 336.643 500.58 336.643 499.952 C 336.643 499.48 337.149 499.102 337.78 499.102 C 338.407 499.102 338.919 498.852 338.919 498.53 C 338.919 498.219 339.81 497.964 340.906 497.964 C 341.997 497.964 342.889 497.709 342.889 497.403 C 342.889 497.083 343.782 496.832 344.874 496.832 C 345.964 496.832 346.862 496.572 346.862 496.266 C 346.862 495.951 347.759 495.696 348.851 495.696 C 350.237 495.696 350.84 495.436 350.84 494.843 C 350.84 494.37 351.344 493.987 351.976 493.987 C 352.598 493.987 353.108 493.737 353.108 493.426 C 353.108 493.115 353.751 492.856 354.526 492.856 C 355.315 492.856 355.954 492.6 355.954 492.289 C 355.954 491.977 356.846 491.723 357.941 491.723 C 359.324 491.723 359.925 491.463 359.925 490.866 C 359.925 490.397 360.43 490.016 361.057 490.016 C 361.686 490.016 362.194 489.76 362.194 489.45 C 362.194 489.138 362.832 488.884 363.617 488.884 C 364.391 488.884 365.03 488.628 365.03 488.312 C 365.03 488.005 365.54 487.746 366.171 487.746 C 366.795 487.746 367.309 487.495 367.309 487.174 C 367.309 486.863 367.946 486.609 368.725 486.609 C 369.604 486.609 370.145 486.288 370.145 485.758 C 370.145 485.282 370.65 484.91 371.28 484.91 C 371.904 484.91 372.413 484.65 372.413 484.336 C 372.413 484.029 373.05 483.769 373.836 483.769 C 374.615 483.769 375.248 483.519 375.248 483.203 C 375.248 482.891 375.763 482.631 376.385 482.631 C 377.018 482.631 377.526 482.381 377.526 482.071 C 377.526 481.754 378.164 481.499 378.939 481.499 C 379.827 481.499 380.363 481.179 380.363 480.643 C 380.363 480.175 380.867 479.797 381.499 479.797 C 382.126 479.797 382.637 479.542 382.637 479.23 C 382.637 478.914 383.019 478.66 383.488 478.66 C 383.958 478.66 384.34 478.404 384.34 478.095 C 384.34 477.782 384.849 477.527 385.477 477.527 C 386.094 477.527 386.609 477.273 386.609 476.956 C 386.609 476.651 387.251 476.39 388.031 476.39 C 388.812 476.39 389.449 476.121 389.449 475.779 C 389.449 474.778 390.989 473.556 392.244 473.556 C 392.897 473.556 393.426 473.296 393.426 472.98 C 393.426 472.673 393.936 472.412 394.558 472.412 C 395.185 472.412 395.695 472.143 395.695 471.806 C 395.695 470.846 397.216 469.579 398.366 469.579 C 398.943 469.579 399.785 469.067 400.238 468.441 C 400.687 467.813 401.641 467.299 402.349 467.299 C 403.065 467.299 403.639 467.038 403.639 466.707 C 403.639 465.78 406.332 463.338 407.351 463.338 C 408.254 463.338 409.891 462.052 409.891 461.349 C 409.891 460.635 411.523 459.359 412.43 459.359 C 413.443 459.359 416.137 456.907 416.137 455.974 C 416.137 455.648 416.515 455.381 416.984 455.381 C 417.453 455.381 417.835 455.127 417.835 454.816 C 417.835 454.501 418.349 454.246 418.973 454.246 C 419.599 454.246 420.111 453.99 420.111 453.68 C 420.111 453.363 420.384 453.108 420.722 453.108 C 421.373 453.108 422.948 451.717 422.948 451.14 C 422.948 450.549 425.693 448.004 426.329 448.004 C 426.657 448.004 426.926 447.728 426.926 447.392 C 426.926 446.489 428.421 445.159 429.436 445.159 C 429.924 445.159 430.329 444.909 430.329 444.586 C 430.329 444.281 430.603 444.026 430.941 444.026 C 431.592 444.026 433.167 442.625 433.167 442.048 C 433.167 441.594 435.85 438.912 436.305 438.912 C 436.768 438.912 438.282 437.393 438.282 436.924 C 438.282 436.466 439.793 434.945 440.252 434.945 C 440.706 434.945 443.392 432.259 443.392 431.805 C 443.392 431.227 444.967 429.832 445.619 429.832 C 445.956 429.832 446.225 429.311 446.225 428.674 C 446.225 427.49 449.7 423.59 450.75 423.59 C 451.075 423.59 451.34 423.304 451.34 422.956 C 451.34 422.621 452.106 421.628 453.04 420.749 C 453.977 419.873 454.748 418.619 454.748 417.966 C 454.748 417.309 455.013 416.773 455.339 416.773 C 456.375 416.773 458.719 414.029 458.719 412.827 C 458.719 412.183 458.989 411.658 459.316 411.658 C 460.244 411.658 462.695 408.976 462.695 407.957 C 462.695 407.044 463.975 405.418 464.683 405.418 C 465.435 405.418 466.673 403.754 466.673 402.74 C 466.673 402.165 467.184 401.322 467.804 400.874 C 468.428 400.425 468.938 399.471 468.938 398.762 C 468.938 398.049 469.218 397.467 469.55 397.467 C 470.452 397.467 471.778 395.973 471.778 394.953 C 471.778 394.459 472.032 394.062 472.349 394.062 C 472.655 394.062 472.914 393.53 472.914 392.883 C 472.914 391.624 474.144 390.084 475.143 390.084 C 475.478 390.084 475.75 389.496 475.75 388.794 C 475.75 388.08 476.259 387.132 476.892 386.682 C 477.514 386.228 478.029 385.275 478.029 384.566 C 478.029 383.793 478.37 383.268 478.876 383.268 C 479.35 383.268 479.727 382.767 479.727 382.135 C 479.727 381.513 479.987 381.003 480.293 381.003 C 480.61 381.003 480.864 380.367 480.864 379.58 C 480.864 378.805 481.121 378.163 481.429 378.163 C 481.742 378.163 482.001 377.648 482.001 377.025 C 482.001 376.404 482.256 375.888 482.567 375.888 C 482.878 375.888 483.134 375.252 483.134 374.471 C 483.134 373.584 483.454 373.049 483.984 373.049 C 484.452 373.049 484.837 372.542 484.837 371.911 C 484.837 371.289 485.097 370.778 485.408 370.778 C 485.718 370.778 485.968 370.142 485.968 369.362 C 485.968 368.582 486.228 367.94 486.54 367.94 C 486.857 367.94 487.106 367.425 487.106 366.807 C 487.106 366.181 487.367 365.67 487.682 365.67 C 487.988 365.67 488.248 365.034 488.248 364.247 C 488.248 363.371 488.569 362.834 489.095 362.834 C 489.567 362.834 489.945 362.332 489.945 361.693 C 489.945 361.07 490.2 360.556 490.517 360.556 C 490.833 360.556 491.083 359.663 491.083 358.567 C 491.083 357.481 491.343 356.584 491.648 356.584 C 491.965 356.584 492.219 355.946 492.219 355.164 C 492.219 354.284 492.546 353.743 493.071 353.743 C 493.546 353.743 493.923 353.24 493.923 352.616 C 493.923 351.984 494.178 351.475 494.489 351.475 C 494.805 351.475 495.06 350.581 495.06 349.49 C 495.06 348.389 495.315 347.501 495.626 347.501 C 495.94 347.501 496.197 346.605 496.197 345.515 C 496.197 344.417 496.452 343.526 496.763 343.526 C 497.075 343.526 497.33 342.627 497.33 341.537 C 497.33 340.145 497.583 339.549 498.18 339.549 C 498.655 339.549 499.037 339.042 499.037 338.416 C 499.037 337.793 499.288 337.284 499.603 337.284 C 499.908 337.284 500.169 336.386 500.169 335.296 C 500.169 334.198 500.419 333.308 500.74 333.308 C 501.051 333.308 501.301 332.154 501.301 330.752 C 501.301 329.35 501.561 328.193 501.872 328.193 C 502.188 328.193 502.437 327.044 502.437 325.638 C 502.437 323.751 502.663 323.083 503.289 323.083 C 503.886 323.083 504.147 322.486 504.147 321.095 C 504.147 320.003 504.398 319.111 504.712 319.111 C 505.023 319.111 505.278 317.71 505.278 315.99 C 505.278 314.272 505.534 312.87 505.844 312.87 C 506.16 312.87 506.415 311.712 506.415 310.31 C 506.415 308.904 506.67 307.755 506.981 307.755 C 507.299 307.755 507.552 306.239 507.552 304.35 C 507.552 301.699 507.742 300.937 508.404 300.937 C 509.087 300.937 509.251 300.061 509.251 296.399 C 509.251 293.743 509.496 291.857 509.823 291.857 C 510.153 291.857 510.393 289.776 510.393 286.747 C 510.393 283.718 510.622 281.639 510.958 281.639 C 511.331 281.639 511.524 272.74 511.524 256.086 C 511.524 239.434 511.331 230.537 510.958 230.537 C 510.622 230.537 510.393 228.456 510.393 225.426 C 510.393 222.398 510.153 220.313 509.823 220.313 C 509.496 220.313 509.251 218.615 509.251 216.34 C 509.251 213.183 509.078 212.362 508.404 212.362 C 507.725 212.362 507.552 211.547 507.552 208.39 C 507.552 206.116 507.309 204.413 506.981 204.413 C 506.67 204.413 506.415 203.267 506.415 201.865 C 506.415 200.458 506.16 199.31 505.844 199.31 C 505.534 199.31 505.278 198.158 505.278 196.75 C 505.278 195.343 505.023 194.195 504.712 194.195 C 504.398 194.195 504.147 193.048 504.147 191.64 C 504.147 189.745 503.922 189.087 503.289 189.087 C 502.663 189.087 502.437 188.423 502.437 186.531 C 502.437 185.124 502.188 183.976 501.872 183.976 C 501.561 183.976 501.301 183.085 501.301 181.988 C 501.301 180.892 501.051 180.005 500.74 180.005 C 500.419 180.005 500.169 179.233 500.169 178.296 C 500.169 177.358 499.908 176.598 499.603 176.598 C 499.288 176.598 499.037 175.702 499.037 174.609 C 499.037 173.217 498.777 172.62 498.18 172.62 C 497.583 172.62 497.33 172.02 497.33 170.632 C 497.33 169.536 497.075 168.644 496.763 168.644 C 496.452 168.644 496.197 167.751 496.197 166.661 C 496.197 165.56 495.94 164.672 495.626 164.672 C 495.315 164.672 495.06 164.161 495.06 163.536 C 495.06 162.912 494.805 162.397 494.489 162.397 C 494.178 162.397 493.923 161.628 493.923 160.675 C 493.923 159.67 493.572 158.817 493.071 158.63 C 492.601 158.456 492.219 157.692 492.219 156.947 C 492.219 156.197 491.965 155.585 491.648 155.585 C 491.343 155.585 491.083 154.693 491.083 153.597 C 491.083 152.505 490.833 151.608 490.517 151.608 C 490.2 151.608 489.945 151.099 489.945 150.47 C 489.945 149.849 489.567 149.339 489.095 149.339 C 488.569 149.339 488.248 148.803 488.248 147.922 C 488.248 147.141 487.988 146.499 487.682 146.499 C 487.367 146.499 487.106 145.733 487.106 144.795 C 487.106 143.858 486.857 143.092 486.54 143.092 C 486.228 143.092 485.968 142.71 485.968 142.242 C 485.968 141.773 485.718 141.395 485.408 141.395 C 485.097 141.395 484.837 140.884 484.837 140.253 C 484.837 139.625 484.452 139.115 483.984 139.115 C 483.454 139.115 483.134 138.579 483.134 137.698 C 483.134 136.918 482.878 136.28 482.567 136.28 C 482.256 136.28 482.001 135.77 482.001 135.144 C 482.001 134.52 481.742 134.012 481.429 134.012 C 481.121 134.012 480.864 133.374 480.864 132.59 C 480.864 131.81 480.61 131.176 480.293 131.176 C 479.987 131.176 479.727 130.661 479.727 130.039 C 479.727 129.406 479.441 128.898 479.08 128.898 C 478.208 128.898 476.928 127.148 476.907 125.923 C 476.902 125.368 476.632 124.924 476.326 124.924 C 476.01 124.924 475.75 124.282 475.75 123.507 C 475.75 122.721 475.478 122.084 475.143 122.084 C 474.235 122.084 472.914 120.591 472.914 119.57 C 472.914 119.08 472.655 118.678 472.349 118.678 C 472.032 118.678 471.778 118.296 471.778 117.832 C 471.778 117.363 471.523 116.976 471.211 116.976 C 470.901 116.976 470.646 116.466 470.646 115.844 C 470.646 115.211 470.263 114.706 469.789 114.706 C 469.32 114.706 468.938 114.375 468.938 113.977 C 468.938 113.583 468.428 112.881 467.804 112.431 C 467.184 111.982 466.673 111.162 466.673 110.607 C 466.673 110.052 466.413 109.592 466.103 109.592 C 465.786 109.592 465.537 108.954 465.537 108.175 C 465.537 107.395 465.265 106.751 464.941 106.751 C 464.012 106.751 461.56 104.069 461.56 103.049 C 461.56 102.01 460.244 100.511 459.33 100.511 C 458.994 100.511 458.719 99.985 458.719 99.348 C 458.719 98.267 456.416 95.396 455.541 95.396 C 454.925 95.396 453.651 93.499 453.625 92.546 C 453.616 92.072 453.095 91.306 452.472 90.852 C 451.851 90.411 451.34 89.712 451.34 89.312 C 451.34 88.911 451.075 88.589 450.75 88.589 C 449.985 88.589 446.225 84.827 446.225 84.06 C 446.225 83.745 445.844 83.475 445.375 83.475 C 444.906 83.475 444.524 82.97 444.524 82.337 C 444.524 81.583 444.146 81.205 443.392 81.205 C 442.616 81.205 442.254 80.822 442.254 80.027 C 442.254 78.923 441.062 77.234 440.284 77.234 C 440.092 77.234 438.563 75.82 436.886 74.108 C 435.213 72.389 433.427 70.981 432.935 70.981 C 432.434 70.981 432.035 70.6 432.035 70.13 C 432.035 69.661 431.772 69.284 431.444 69.284 C 430.685 69.284 426.926 65.516 426.926 64.756 C 426.926 64.435 426.643 64.169 426.295 64.169 C 425.958 64.169 424.963 63.399 424.088 62.467 C 423.209 61.528 421.954 60.764 421.302 60.764 C 420.41 60.764 420.111 60.406 420.111 59.347 C 420.111 58.3 419.808 57.922 418.973 57.922 C 418.349 57.922 417.835 57.668 417.835 57.357 C 417.835 57.047 417.56 56.787 417.233 56.787 C 416.442 56.787 414.996 55.344 414.996 54.563 C 414.996 54.222 414.485 53.951 413.865 53.951 C 413.241 53.951 412.731 53.691 412.731 53.385 C 412.731 53.068 412.461 52.814 412.118 52.814 C 411.34 52.814 409.891 51.376 409.891 50.6 C 409.891 50.275 409.565 50.131 409.167 50.29 C 408.768 50.444 407.494 49.664 406.332 48.562 C 405.16 47.465 403.941 46.568 403.614 46.568 C 403.293 46.568 402.431 45.931 401.707 45.149 C 400.983 44.364 399.968 43.729 399.458 43.729 C 398.948 43.729 398.53 43.474 398.53 43.167 C 398.53 42.845 398.154 42.596 397.684 42.596 C 397.216 42.596 396.832 42.336 396.832 42.03 C 396.832 41.713 396.317 41.458 395.695 41.458 C 395.063 41.458 394.558 41.081 394.558 40.608 C 394.558 40.097 394.037 39.752 393.263 39.752 C 392.554 39.752 391.601 39.241 391.151 38.62 C 390.703 37.996 389.877 37.487 389.327 37.487 C 388.771 37.487 388.317 37.227 388.317 36.915 C 388.317 36.604 387.929 36.35 387.46 36.35 C 386.991 36.35 386.609 35.967 386.609 35.498 C 386.609 35.024 386.103 34.646 385.477 34.646 C 384.849 34.646 384.34 34.391 384.34 34.076 C 384.34 33.769 383.702 33.509 382.917 33.509 C 382.143 33.509 381.499 33.26 381.499 32.942 C 381.499 32.627 380.989 32.372 380.363 32.372 C 379.741 32.372 379.225 32.122 379.225 31.817 C 379.225 31.512 378.588 31.098 377.808 30.904 C 377.028 30.709 376.385 30.318 376.385 30.037 C 376.385 29.761 375.88 29.532 375.248 29.532 C 374.631 29.532 374.122 29.283 374.122 28.966 C 374.122 28.655 373.585 28.395 372.944 28.395 C 371.695 28.395 370.145 27.177 370.145 26.187 C 370.145 25.86 369.793 25.727 369.365 25.896 C 368.934 26.06 368.19 25.794 367.703 25.31 C 367.217 24.82 366.029 24.423 365.076 24.423 C 364.117 24.423 363.333 24.168 363.333 23.858 C 363.333 23.545 362.817 23.291 362.194 23.291 C 361.568 23.291 361.057 23.037 361.057 22.719 C 361.057 22.414 360.415 22.153 359.64 22.153 C 358.753 22.153 358.218 21.826 358.218 21.303 C 358.218 20.828 357.712 20.456 357.086 20.456 C 356.463 20.456 355.954 20.196 355.954 19.886 C 355.954 19.568 355.056 19.32 353.965 19.32 C 352.869 19.32 351.976 19.059 351.976 18.743 C 351.976 18.437 351.462 18.176 350.84 18.176 C 350.212 18.176 349.701 17.927 349.701 17.611 C 349.701 17.299 348.834 17.039 347.779 17.039 C 346.588 17.039 345.725 16.714 345.525 16.188 C 345.332 15.694 344.481 15.342 343.476 15.342 C 342.529 15.342 341.753 15.081 341.753 14.776 C 341.753 14.458 340.865 14.205 339.764 14.205 C 338.674 14.205 337.78 13.95 337.78 13.633 C 337.78 13.322 337.291 13.067 336.69 13.067 C 336.092 13.067 335.496 12.756 335.374 12.368 C 335.247 11.987 334.644 11.65 334.043 11.619 C 330.316 11.425 329.796 11.313 330.116 10.798 C 330.321 10.462 329.647 10.227 328.439 10.227 C 327.332 10.227 326.419 9.972 326.419 9.661 C 326.419 9.35 325.273 9.101 323.87 9.101 C 322.463 9.101 321.316 8.84 321.316 8.528 C 321.316 8.212 320.188 7.958 318.817 7.958 C 317.125 7.958 316.223 7.688 315.993 7.113 C 315.784 6.551 314.896 6.255 313.412 6.255 C 312.173 6.255 310.999 6.004 310.807 5.684 C 310.618 5.375 308.808 5.124 306.798 5.124 C 304.739 5.124 303.143 4.868 303.143 4.552 C 303.143 4.225 301.439 3.986 299.172 3.986 C 296.896 3.986 295.193 3.737 295.193 3.419 C 295.193 3.078 293.114 2.849 290.085 2.849 C 286.214 2.849 284.975 2.665 284.975 2.094 C 284.975 1.518 283.359 1.32 278.02 1.222 C 274.18 1.156 270.978 0.86 270.876 0.56 C 270.611 -0.2 244.097 -0.18 244.097 0.581" stroke="none" fill="#3874e6" fill-rule="evenodd" style=""/>
</svg>