<svg width="40" height="46" viewBox="0 0 40 46" fill="none" xmlns="http://www.w3.org/2000/svg">
<mask id="path-1-outside-1_35_1395" maskUnits="userSpaceOnUse" x="0" y="0.712967" width="40" height="45" fill="black">
<rect fill="white" y="0.712967" width="40" height="45"/>
<path d="M18.4691 2.08062C19.3201 1.59042 20.3685 1.59042 21.2194 2.08062L37.3134 11.352C38.1643 11.8422 38.6885 12.7482 38.6885 13.7286V32.2714C38.6885 33.2518 38.1643 34.1578 37.3134 34.648L21.2194 43.9194C20.3685 44.4096 19.3201 44.4096 18.4691 43.9194L2.37514 34.648C1.5242 34.1578 1 33.2518 1 32.2714V13.7286C1 12.7482 1.5242 11.8422 2.37513 11.352L18.4691 2.08062Z"/>
<path d="M21.2194 34.7884C20.3685 35.2786 19.3201 35.2786 18.4691 34.7884L10.3612 30.1176C9.51024 29.6274 8.98604 28.7215 8.98604 27.741L8.98605 18.3994C8.98605 17.419 9.51024 16.5131 10.3612 16.0229L18.4691 11.352C19.3201 10.8618 20.3685 10.8618 21.2194 11.352L29.3274 16.0229C30.1783 16.5131 30.7025 17.419 30.7025 18.3994L30.7025 27.7411C30.7025 28.7215 30.1783 29.6274 29.3273 30.1176L21.2194 34.7884Z"/>
</mask>
<path d="M18.4691 2.08062C19.3201 1.59042 20.3685 1.59042 21.2194 2.08062L37.3134 11.352C38.1643 11.8422 38.6885 12.7482 38.6885 13.7286V32.2714C38.6885 33.2518 38.1643 34.1578 37.3134 34.648L21.2194 43.9194C20.3685 44.4096 19.3201 44.4096 18.4691 43.9194L2.37514 34.648C1.5242 34.1578 1 33.2518 1 32.2714V13.7286C1 12.7482 1.5242 11.8422 2.37513 11.352L18.4691 2.08062Z" fill="url(#paint0_linear_35_1395)"/>
<path d="M21.2194 34.7884C20.3685 35.2786 19.3201 35.2786 18.4691 34.7884L10.3612 30.1176C9.51024 29.6274 8.98604 28.7215 8.98604 27.741L8.98605 18.3994C8.98605 17.419 9.51024 16.5131 10.3612 16.0229L18.4691 11.352C19.3201 10.8618 20.3685 10.8618 21.2194 11.352L29.3274 16.0229C30.1783 16.5131 30.7025 17.419 30.7025 18.3994L30.7025 27.7411C30.7025 28.7215 30.1783 29.6274 29.3273 30.1176L21.2194 34.7884Z" fill="url(#paint1_linear_35_1395)"/>
<path d="M2.37513 11.352L1.87596 10.4855H1.87596L2.37513 11.352ZM2.37514 34.648L1.87596 35.5145H1.87596L2.37514 34.648ZM21.2194 43.9194L21.7186 44.7859L21.2194 43.9194ZM18.4691 43.9194L18.9683 43.0529L18.4691 43.9194ZM37.3134 34.648L36.8142 33.7815L37.3134 34.648ZM37.3134 11.352L37.8126 10.4855L37.3134 11.352ZM21.2194 2.08062L20.7202 2.94712V2.94712L21.2194 2.08062ZM18.4691 2.08062L18.9683 2.94712L18.4691 2.08062ZM30.7025 27.7411H29.7025H30.7025ZM29.3273 30.1176L29.8265 30.9841L29.3273 30.1176ZM29.3274 16.0229L29.8265 15.1564L29.3274 16.0229ZM30.7025 18.3994H31.7025H30.7025ZM18.4691 11.352L18.9683 12.2185L18.4691 11.352ZM21.2194 11.352L20.7202 12.2185L21.2194 11.352ZM8.98605 18.3994H9.98604H8.98605ZM10.3612 16.0229L9.86201 15.1563L10.3612 16.0229ZM10.3612 30.1176L9.86201 30.9841H9.86201L10.3612 30.1176ZM8.98604 27.741H7.98604H8.98604ZM18.4691 34.7884L18.9683 33.9219L18.4691 34.7884ZM21.2194 34.7884L20.7202 33.9219L21.2194 34.7884ZM20.7202 2.94712L36.8142 12.2185L37.8126 10.4855L21.7186 1.21412L20.7202 2.94712ZM37.6885 13.7286V32.2714H39.6885V13.7286H37.6885ZM36.8142 33.7815L20.7202 43.0529L21.7186 44.7859L37.8126 35.5145L36.8142 33.7815ZM18.9683 43.0529L2.87431 33.7815L1.87596 35.5145L17.97 44.7859L18.9683 43.0529ZM2 32.2714V13.7286H0V32.2714H2ZM2.87431 12.2185L18.9683 2.94712L17.97 1.21412L1.87596 10.4855L2.87431 12.2185ZM2 13.7286C2 13.1065 2.3326 12.5306 2.87431 12.2185L1.87596 10.4855C0.715796 11.1539 0 12.3898 0 13.7286H2ZM2.87431 33.7815C2.3326 33.4694 2 32.8935 2 32.2714H0C0 33.6102 0.715797 34.8461 1.87596 35.5145L2.87431 33.7815ZM20.7202 43.0529C20.1783 43.3651 19.5103 43.3651 18.9683 43.0529L17.97 44.7859C19.1299 45.4541 20.5587 45.4541 21.7186 44.7859L20.7202 43.0529ZM37.6885 32.2714C37.6885 32.8935 37.3559 33.4694 36.8142 33.7815L37.8126 35.5145C38.9727 34.8461 39.6885 33.6102 39.6885 32.2714H37.6885ZM36.8142 12.2185C37.3559 12.5306 37.6885 13.1065 37.6885 13.7286H39.6885C39.6885 12.3898 38.9727 11.1539 37.8126 10.4855L36.8142 12.2185ZM21.7186 1.21412C20.5587 0.545916 19.1299 0.545916 17.97 1.21412L18.9683 2.94712C19.5103 2.63491 20.1783 2.63491 20.7202 2.94712L21.7186 1.21412ZM18.9683 33.9219L10.8604 29.2511L9.86201 30.9841L17.97 35.6549L18.9683 33.9219ZM9.98604 27.741L9.98604 18.3994H7.98605L7.98604 27.741H9.98604ZM10.8604 16.8894L18.9683 12.2185L17.97 10.4855L9.86201 15.1563L10.8604 16.8894ZM20.7202 12.2185L28.8282 16.8894L29.8265 15.1564L21.7186 10.4855L20.7202 12.2185ZM29.7025 18.3994L29.7025 27.7411H31.7025L31.7025 18.3994H29.7025ZM28.8282 29.2511L20.7202 33.9219L21.7186 35.6549L29.8265 30.9841L28.8282 29.2511ZM29.7025 27.7411C29.7025 28.3631 29.3699 28.939 28.8282 29.2511L29.8265 30.9841C30.9867 30.3158 31.7025 29.0798 31.7025 27.7411H29.7025ZM28.8282 16.8894C29.3699 17.2014 29.7025 17.7773 29.7025 18.3994H31.7025C31.7025 17.0607 30.9867 15.8247 29.8265 15.1564L28.8282 16.8894ZM18.9683 12.2185C19.5103 11.9063 20.1783 11.9063 20.7202 12.2185L21.7186 10.4855C20.5587 9.81733 19.1299 9.81733 17.97 10.4855L18.9683 12.2185ZM9.98604 18.3994C9.98605 17.7773 10.3186 17.2014 10.8604 16.8894L9.86201 15.1563C8.70184 15.8247 7.98605 17.0607 7.98605 18.3994H9.98604ZM10.8604 29.2511C10.3186 28.939 9.98604 28.3631 9.98604 27.741H7.98604C7.98604 29.0798 8.70184 30.3158 9.86201 30.9841L10.8604 29.2511ZM17.97 35.6549C19.1299 36.3231 20.5587 36.3231 21.7186 35.6549L20.7202 33.9219C20.1783 34.2341 19.5103 34.2341 18.9683 33.9219L17.97 35.6549Z" fill="#389CFE" mask="url(#path-1-outside-1_35_1395)"/>
<defs>
<linearGradient id="paint0_linear_35_1395" x1="19.8443" y1="1.71297" x2="19.8443" y2="44.287" gradientUnits="userSpaceOnUse">
<stop stop-color="#369EFF"/>
<stop offset="0.963542" stop-color="#7549D8"/>
<stop offset="1" stop-color="#7648D7"/>
</linearGradient>
<linearGradient id="paint1_linear_35_1395" x1="19.8443" y1="39.7074" x2="19.8443" y2="14.6867" gradientUnits="userSpaceOnUse">
<stop stop-color="#4B91FB"/>
<stop offset="1" stop-color="#B4C2F3"/>
</linearGradient>
</defs>
</svg>
