<svg width="36" height="36" viewBox="0 0 36 36" fill="none" xmlns="http://www.w3.org/2000/svg">
<path d="M4.25 0.5H15.8906C17.2188 0.5 18.4688 1.04688 19.4062 1.98438L33.1562 15.7344C35.1094 17.6875 35.1094 20.8906 33.1562 22.8438L22.7656 33.2344C20.8125 35.1875 17.6094 35.1875 15.6562 33.2344L1.90625 19.4844C0.96875 18.5469 0.5 17.2969 0.5 15.9688V4.25C0.5 2.21875 2.14062 0.5 4.25 0.5ZM9.25 11.75C10.5781 11.75 11.75 10.6562 11.75 9.25C11.75 7.92188 10.5781 6.75 9.25 6.75C7.84375 6.75 6.75 7.92188 6.75 9.25C6.75 10.6562 7.84375 11.75 9.25 11.75Z" fill="#697177"/>
</svg>
